<?xml version="1.0" encoding="utf-8"?>
<!-- Generator: Adobe Illustrator 16.0.0, SVG Export Plug-In . SVG Version: 6.00 Build 0)  -->
<!DOCTYPE svg PUBLIC "-//W3C//DTD SVG 1.1//EN" "http://www.w3.org/Graphics/SVG/1.1/DTD/svg11.dtd">
<svg version="1.1" id="Layer_1" xmlns="http://www.w3.org/2000/svg" xmlns:xlink="http://www.w3.org/1999/xlink" x="0px" y="0px"
	 width="1280px" height="800px" viewBox="0 0 1280 800" enable-background="new 0 0 1280 800" xml:space="preserve">
<g id="banniere">
	<rect x="553.785" y="385.157" fill="#FFFFFF" width="174.174" height="40.75"/>
	<path fill="#FFFFFF" d="M741.436,382.804l-14.438-4.625v4.625H741.436z M745.676,385.153h-18.678v40.791h18.643v-40.791H745.676z
		 M726.998,376.042L726.998,376.042l20.992,6.588l0.033,31.224h34.027l-16.68-19.834l16.4-17.978H726.998z"/>
	<path fill="#FFFFFF" d="M554.206,382.787v-4.625l-14.438,4.625H554.206z M535.561,425.961h18.645v-40.826h-18.645V425.961z
		 M499.431,376.024l16.401,17.978l-16.682,19.87h34.027l0.035-31.224l20.992-6.554v-0.069H499.431z"/>
	<rect x="582.106" y="400.066" fill="none" width="120.568" height="14.196"/>
	<text transform="matrix(1 0 0 1 586.041 412.3447)" font-family="'MyriadPro-Bold'" font-size="17.2957">PLAN D’ACCES</text>
</g>
</svg>
