<?xml version="1.0" encoding="utf-8"?>
<!-- Generator: Adobe Illustrator 22.0.0, SVG Export Plug-In . SVG Version: 6.00 Build 0)  -->
<svg version="1.1" id="Calque_1" xmlns="http://www.w3.org/2000/svg" xmlns:xlink="http://www.w3.org/1999/xlink" x="0px" y="0px"
	 viewBox="0 0 135 90" style="enable-background:new 0 0 135 90;" xml:space="preserve">
<style type="text/css">
	.st0{fill:#FFFFFF;}
</style>
<g>
	<path class="st0" d="M61.3,86l-0.1,2.7C39.8,95.2,20.6,61.2,0,61.1v-2.6C20.6,58.5,39.8,92.8,61.3,86z"/>
	<path class="st0" d="M67.3,30l0.1-1.7v-4.2c0,2-0.9,3.3-1.6,3.9s-1.3,0.8-1.4,0.8v0.1c-0.1,0-0.1,0-0.2,0.1
		C41.7,40.3,21.6,2.7,0,2.6V0c17.5,0,34,24.8,51.8,28.1c-0.4-0.4-0.7-0.9-1-1.2v-0.6c0.6,0.7,1.3,1.4,2.2,2c1.2,0.2,2.4,0.2,3.6,0.2
		c-0.4-0.2-0.7-0.3-1.1-0.5c-2.5-1.1-4-2.9-4.7-3.9v-0.6c1.1,1.2,2.6,2.7,4.5,3.3c1.1,0.4,2.3,0.9,3.4,1.5c0.7-0.1,1.5-0.3,2.2-0.5
		c-1.8-0.9-3.8-1.8-5.5-2.6c-2.5-1.1-4-2.9-4.7-3.9v-0.6c1.1,1.2,2.6,2.7,4.5,3.3c2.3,0.8,5.1,2.3,7.2,3.3c0.5-0.2,1-0.4,1.5-0.6
		c-2.3-1.6-5.7-3.1-8.5-4.3c-2.5-1.1-4-2.9-4.7-3.9V18c0-0.4,0-0.8,0-1.1c0-0.1,0-0.2,0-0.3c0.8,1.1,2.3,2.4,3.2,3.1
		c1.8,1.6,4.8,2.7,7.3,3.8c1.3,0.5,2.2,1.4,3.2,2c0.2,0.1,0.4,0.3,0.6,0.4c0.1-0.1,0.3-0.2,0.4-0.4c0.3-0.4,0.4-0.8,0.4-1.4
		c0-0.3,0-0.7-0.2-1.2c0-0.1-0.2-0.5-0.6-0.8c-1.5-1.3-5-2.3-8.1-3.8c-1.6-0.7-3-1.6-4.2-2.8c-1.1-1.2-2-2.9-2-5.1
		c0-0.4,0-0.9,0.1-1.3c0.1-0.9,0.5-1.8,1-2.5c0.6-0.7,1.3-1.3,2.4-1.8c25.9-14.7,51.7,14.6,77.6,0c-0.5,1.2-1,2.3-1.5,3.4
		C105.1,21,79.8-7,54.4,7.4c-1,0.5-1.2,0.7-1.5,1.2c-0.3,0.4-0.4,0.7-0.5,1.1c0,0.3-0.1,0.5-0.1,0.7c0,0.3,0,0.6,0.1,1l1.9-1.1
		c24.8-14.1,49.7,12.4,74.5,1.5c-4.4,9.9-8.8,18.6-13.2,26.5c4.5,8.8,9,16.7,13.4,23.5c-21,9.4-42-8.1-63-5.3L67.3,30z"/>
	<path class="st0" d="M66,59.3c21.5-2.9,43.1,15.6,64.6,4.6c0.4,0.7,0.9,1.3,1.3,1.9c-22,12.4-44.1-7-66.1-3.9"/>
	<path class="st0" d="M0,55.6V5.4c21.5,0,41.6,37.6,64.2,26.5l-2.7,51.2C39.9,90.1,20.7,55.7,0,55.6z"/>
</g>
</svg>
