<?xml version="1.0" encoding="utf-8"?>
<!-- Generator: Adobe Illustrator 16.0.0, SVG Export Plug-In . SVG Version: 6.00 Build 0)  -->
<!DOCTYPE svg PUBLIC "-//W3C//DTD SVG 1.1//EN" "http://www.w3.org/Graphics/SVG/1.1/DTD/svg11.dtd">
<svg version="1.1" id="Layer_1" xmlns="http://www.w3.org/2000/svg" xmlns:xlink="http://www.w3.org/1999/xlink" x="0px" y="0px"
	 width="1280px" height="800px" viewBox="0 0 1280 800" enable-background="new 0 0 1280 800" xml:space="preserve">
<g id="baniere">
	<g>
		<rect x="448.981" y="287.663" fill="#FFFFFF" width="384.565" height="6.895"/>
		<rect x="448.981" y="442.815" fill="#FFFFFF" width="384.565" height="6.895"/>
		<rect x="448.981" y="301.986" fill="#FFFFFF" width="384.565" height="133.138"/>
	</g>
	<g>
		<path fill="#FFFFFF" d="M995.789,515.864l-0.264,7.158c-56.744,17.237-107.654-72.917-162.275-73.182v-6.896
			C887.871,442.945,938.781,533.896,995.789,515.864z"/>
		<path fill="#FFFFFF" d="M1011.699,367.375l0.264-4.507v-11.136c0,5.303-2.387,8.75-4.242,10.34
			c-1.855,1.593-3.445,2.123-3.713,2.123v0.265c-0.264,0-0.264,0-0.531,0.266c-59.656,29.961-112.953-69.736-170.227-70.002v-6.894
			c46.402,0,90.154,65.759,137.35,74.508c-1.059-1.062-1.857-2.386-2.65-3.181v-1.591c1.592,1.854,3.445,3.71,5.834,5.302
			c3.18,0.531,6.363,0.531,9.543,0.531c-1.061-0.531-1.855-0.796-2.916-1.327c-6.627-2.915-10.605-7.688-12.461-10.34v-1.592
			c2.916,3.182,6.893,7.16,11.93,8.751c2.918,1.061,6.1,2.385,9.018,3.977c1.855-0.265,3.977-0.796,5.832-1.324
			c-4.771-2.387-10.074-4.774-14.582-6.895c-6.631-2.917-10.605-7.691-12.463-10.341v-1.591c2.916,3.182,6.895,7.158,11.932,8.75
			c6.098,2.121,13.523,6.099,19.09,8.75c1.326-0.529,2.652-1.063,3.979-1.592c-6.1-4.242-15.113-8.22-22.537-11.402
			c-6.631-2.915-10.605-7.688-12.463-10.34v-1.326c0-1.06,0-2.121,0-2.917c0-0.265,0-0.531,0-0.795
			c2.121,2.917,6.1,6.364,8.484,8.221c4.773,4.242,12.729,7.157,19.357,10.074c3.445,1.327,5.832,3.713,8.482,5.305
			c0.531,0.263,1.063,0.794,1.594,1.06c0.264-0.266,0.795-0.531,1.059-1.06c0.797-1.062,1.061-2.123,1.061-3.713
			c0-0.796,0-1.856-0.531-3.182c0-0.266-0.529-1.327-1.588-2.12c-3.979-3.447-13.26-6.099-21.479-10.077
			c-4.242-1.855-7.955-4.244-11.137-7.423c-2.918-3.184-5.303-7.691-5.303-13.524c0-1.062,0-2.386,0.266-3.448
			c0.264-2.386,1.324-4.771,2.65-6.628c1.592-1.856,3.447-3.446,6.363-4.772c68.676-38.979,137.086,38.713,205.762,0
			c-1.326,3.182-2.652,6.099-3.98,9.015c-66.816,33.94-133.902-40.304-201.252-2.121c-2.65,1.325-3.182,1.856-3.977,3.182
			c-0.795,1.061-1.061,1.856-1.324,2.918c0,0.794-0.266,1.324-0.266,1.855c0,0.796,0,1.591,0.266,2.651l5.037-2.917
			c65.76-37.388,131.783,32.88,197.541,3.979c-11.666,26.25-23.334,49.317-35,70.265c11.932,23.333,23.863,44.281,35.531,62.312
			c-55.684,24.926-111.367-21.477-167.049-14.053L1011.699,367.375z"/>
		<path fill="#FFFFFF" d="M1008.252,445.067c57.01-7.689,114.283,41.363,171.291,12.196c1.061,1.856,2.385,3.447,3.445,5.038
			c-58.332,32.879-116.932-18.561-175.268-10.341"/>
		<path fill="#FFFFFF" d="M833.25,435.256V302.148c57.008,0,110.303,99.698,170.227,70.267l-7.156,135.759
			C939.045,526.735,888.137,435.521,833.25,435.256z"/>
	</g>
	<g>
		<path fill="#FFFFFF" d="M286.442,515.698l0.266,7.158c56.743,17.234,107.653-72.918,162.274-73.184v-6.894
			C394.361,442.779,343.451,533.727,286.442,515.698z"/>
		<path fill="#FFFFFF" d="M270.533,367.209l-0.266-4.506v-11.138c0,5.304,2.386,8.75,4.242,10.341
			c1.855,1.591,3.448,2.122,3.713,2.122v0.264c0.266,0,0.266,0,0.531,0.266c59.659,29.963,112.956-69.734,170.228-70v-6.895
			c-46.401,0-90.152,65.759-137.351,74.509c1.062-1.062,1.859-2.386,2.652-3.182v-1.59c-1.591,1.854-3.446,3.71-5.832,5.303
			c-3.182,0.53-6.364,0.53-9.546,0.53c1.06-0.53,1.855-0.796,2.916-1.327c6.631-2.916,10.607-7.689,12.462-10.341v-1.591
			c-2.917,3.182-6.894,7.16-11.931,8.75c-2.917,1.062-6.1,2.386-9.015,3.979c-1.858-0.266-3.978-0.797-5.834-1.326
			c4.773-2.387,10.077-4.772,14.584-6.895c6.628-2.917,10.605-7.69,12.463-10.341v-1.592c-2.919,3.183-6.896,7.159-11.934,8.752
			c-6.099,2.12-13.523,6.099-19.091,8.748c-1.326-0.529-2.651-1.06-3.977-1.591c6.098-4.242,15.113-8.219,22.539-11.401
			c6.628-2.916,10.605-7.688,12.463-10.342v-1.324c0-1.061,0-2.121,0-2.917c0-0.266,0-0.53,0-0.796
			c-2.122,2.916-6.099,6.363-8.487,8.221c-4.772,4.242-12.726,7.158-19.355,10.075c-3.448,1.327-5.833,3.713-8.485,5.304
			c-0.531,0.264-1.062,0.795-1.591,1.061c-0.267-0.266-0.796-0.531-1.06-1.061c-0.796-1.062-1.062-2.122-1.062-3.713
			c0-0.795,0-1.856,0.531-3.182c0-0.266,0.531-1.326,1.591-2.122c3.977-3.447,13.258-6.099,21.477-10.074
			c4.244-1.856,7.954-4.243,11.137-7.425c2.916-3.183,5.304-7.689,5.304-13.522c0-1.062,0-2.388-0.267-3.447
			c-0.264-2.388-1.325-4.773-2.652-6.63c-1.59-1.855-3.445-3.446-6.361-4.771c-68.941-38.979-137.617,38.711-206.292,0
			c1.327,3.182,2.652,6.099,3.977,9.014c67.35,33.939,134.434-40.304,201.784-2.122c2.651,1.327,3.179,1.858,3.977,3.183
			c0.798,1.062,1.062,1.857,1.326,2.918c0,0.795,0.266,1.325,0.266,1.856c0,0.796,0,1.59-0.266,2.651l-5.039-2.917
			c-66.022-37.389-132.046,32.88-197.805,3.977c11.668,26.252,23.333,49.319,35,70.267c-11.933,23.334-23.864,44.281-35.53,62.312
			c55.682,24.923,111.365-21.478,167.047-14.054L270.533,367.209z"/>
		<path fill="#FFFFFF" d="M273.98,444.899c-57.009-7.688-114.018,41.364-171.292,12.198c-1.06,1.854-2.385,3.447-3.446,5.037
			c58.334,32.879,116.934-18.56,175.267-10.34"/>
		<path fill="#FFFFFF" d="M448.981,435.089V301.981c-57.008,0-110.305,99.698-170.228,70.268l7.158,135.759
			C343.186,526.569,394.094,435.354,448.981,435.089z"/>
	</g>
</g>
</svg>
