<?xml version="1.0" encoding="utf-8"?>
<!-- Generator: Adobe Illustrator 22.0.0, SVG Export Plug-In . SVG Version: 6.00 Build 0)  -->
<svg version="1.1" id="Calque_1" xmlns="http://www.w3.org/2000/svg" xmlns:xlink="http://www.w3.org/1999/xlink" x="0px" y="0px"
	 viewBox="0 0 180 155" style="enable-background:new 0 0 180 155;" xml:space="preserve">
<style type="text/css">
	.st0{fill:#FFFFFF;}
</style>
<rect x="48.8" y="13" transform="matrix(0.1624 -0.9867 0.9867 0.1624 -3.5414 160.124)" class="st0" width="87.5" height="138.2"/>
<path d="M18.2,113.4l13.9-84.7l134.7,22.2l-13.9,84.7L18.2,113.4z M30.8,26.8l-14.5,88.1l138.1,22.7l0.1-0.9l14.4-87.2L30.8,26.8z"
	/>
<g>
	<path d="M31.5,27.7c18.1,21.7,37.7,44.8,58.3,68.9c28.7-15.9,53.6-31.7,78.1-46.4c-24.1,14.1-51.4,29.2-77.2,45.6
		C70.1,71.8,50.1,48.9,31.5,27.7"/>
	<path d="M17.3,114.1c8.9-5.7,18.2-12,27.8-18.8c9.6-6.9,18.5-13.7,26.7-20.3C62.9,80.7,53.5,87,44,93.8
		C34.4,100.7,25.4,107.5,17.3,114.1"/>
	<path d="M153.6,136.6c-5.6-8.8-11.9-18.2-18.8-27.7c-6.8-9.5-13.7-18.5-20.2-26.7c5.6,8.8,11.9,18.2,18.8,27.7
		C140.2,119.4,147.1,128.4,153.6,136.6"/>
	<path d="M118.3,63.2c0.7-0.4,1.7-0.2,2.3,0.4l2,2.3c0.5,0.6,1.7,1.2,2.5,1.4l2.9,0.5c0.8,0.1,1.5,0.9,1.5,1.8l0.1,3
		c0,0.8,0.5,2,1,2.6l1.9,2.3c0.5,0.6,0.5,1.7,0,2.3l-1.9,2.3c-0.5,0.6-0.9,1.8-0.9,2.7l0,3c0,0.8-0.7,1.6-1.5,1.8l-2.9,0.6
		c-0.8,0.2-1.9,0.8-2.4,1.4l-1.9,2.3c-0.5,0.6-1.6,0.8-2.3,0.4l-2.6-1.4c-0.7-0.4-2-0.6-2.8-0.5l-2.9,0.5c-0.8,0.1-1.7-0.4-2-1.1
		l-1.1-2.8c-0.3-0.8-1.1-1.7-1.8-2.1l-2.6-1.5c-0.7-0.4-1.1-1.4-0.8-2.2l1-2.8c0.3-0.8,0.3-2.1,0-2.8l-1-2.8
		c-0.3-0.8,0.1-1.8,0.8-2.2l2.6-1.5c0.7-0.4,1.5-1.4,1.8-2.2l1-2.8c0.3-0.8,1.2-1.3,2-1.2l3,0.5c0.8,0.1,2.1-0.1,2.8-0.5L118.3,63.2
		z"/>
	<path class="st0" d="M118.8,69.3c2.5,0.4,4.6,1.8,6.1,3.6c-1.5-2.2-3.8-3.9-6.7-4.4c-5.4-0.9-10.4,2.8-11.3,8.1
		c-0.5,2.9,0.3,5.6,2,7.7c-1.3-2-1.9-4.4-1.5-7C108.4,72,113.4,68.4,118.8,69.3 M124.9,72.9c1.3,2,1.9,4.4,1.5,7
		c-0.9,5.4-6,9-11.3,8.1c-2.5-0.4-4.6-1.8-6.1-3.6c1.5,2.2,3.8,3.9,6.7,4.4c5.4,0.9,10.4-2.8,11.3-8.1
		C127.4,77.7,126.6,75,124.9,72.9"/>
</g>
<polygon class="st0" points="122.6,82.5 119.9,82.9 119.5,81.5 120.5,81.4 119.5,74.8 119.8,74.5 119.5,77.3 118,81.9 116.8,82 
	114.1,78 113.1,75.7 113.4,75.7 114.2,81.4 114.2,82.3 115.3,82.1 115.3,83.5 112.7,83.9 112.3,82.5 113.1,82.4 112.2,76 
	111.4,76.1 111.4,74.7 113.6,74.3 116.6,79.1 117.4,80.6 117.1,80.7 117.5,79 119.1,73.6 121.3,73.2 121.7,74.6 120.9,74.7 
	121.7,80.3 121.6,81.2 122.6,81.1 "/>
<g>
	<path d="M34.5,32.6c7.8,9.6,16.2,19.8,25.1,30.4s17.5,20.7,25.6,30C77.4,83.4,69,73.2,60.1,62.6C51.2,52,42.6,41.9,34.5,32.6"/>
	<path d="M32.9,33.7c7.8,9.6,16.2,19.8,25.1,30.4s17.5,20.7,25.6,30c-7.8-9.6-16.2-19.8-25.1-30.4C49.6,53.2,41,43.1,32.9,33.7"/>
	<path d="M23.9,111.6c19.3,3.6,40.1,7.2,61.8,10.8c21.7,3.6,42.6,6.8,62,9.6c-19.3-3.6-40.1-7.2-61.8-10.8
		C64.2,117.6,43.4,114.4,23.9,111.6"/>
	<path d="M28.9,109.3c18,3.2,37.3,6.4,57.5,9.8c20.2,3.3,39.5,6.4,57.6,9.2c-18-3.1-37.3-6.4-57.5-9.8
		C66.3,115.2,46.9,112.1,28.9,109.3"/>
	<path d="M37.2,30.8c19.3,3.4,40.1,6.9,61.8,10.5c21.7,3.6,42.6,6.9,61.9,9.9c-19.3-3.4-40.1-6.9-61.8-10.5
		C77.5,37.1,56.6,33.8,37.2,30.8"/>
	<path d="M40.6,34c2.6,0.6,5.4,1.2,8.4,1.7c3,0.5,5.8,0.8,8.5,1.1c-2.6-0.6-5.4-1.2-8.4-1.7C46.2,34.6,43.3,34.2,40.6,34"/>
	<path d="M66.6,38.3c2.6,0.6,5.4,1.2,8.4,1.7c3,0.5,5.8,0.8,8.5,1.1c-2.6-0.6-5.4-1.2-8.4-1.7C72.2,38.9,69.3,38.5,66.6,38.3"/>
	<path d="M137.2,49.9c2.6,0.6,5.4,1.2,8.4,1.7c3,0.5,5.8,0.8,8.5,1.1c-2.6-0.6-5.4-1.2-8.4-1.7C142.7,50.5,139.8,50.1,137.2,49.9"/>
	<path d="M93.1,42.6c5.1,1,10.5,2,16.3,3c5.7,0.9,11.2,1.7,16.3,2.4c-5.1-1-10.5-2-16.3-3C103.7,44.1,98.2,43.3,93.1,42.6"/>
	<path d="M112.4,50.2c5.1,0.9,10.6,1.9,16.3,2.8c5.7,0.9,11.2,1.8,16.3,2.5c-5.1-0.9-10.6-1.9-16.3-2.8S117.5,50.9,112.4,50.2"/>
	<path d="M70.8,43.3c5.1,0.9,10.6,1.9,16.3,2.8s11.2,1.8,16.3,2.5c-5.1-0.9-10.6-1.9-16.3-2.8C81.4,44.9,76,44.1,70.8,43.3"/>
	<path d="M53.2,40.4c1.3,0.3,2.7,0.6,4.1,0.8c1.5,0.2,2.9,0.4,4.2,0.5c-1.3-0.3-2.7-0.6-4.1-0.8C55.9,40.7,54.5,40.6,53.2,40.4"/>
	<path d="M32.4,106.8c17.1,3,35.6,6.1,54.8,9.2c19.2,3.2,37.7,6.1,54.9,8.8c-17.1-3-35.6-6.1-54.8-9.2
		C68,112.5,49.6,109.5,32.4,106.8"/>
	<path d="M36.1,104.4c16.1,2.8,33.4,5.7,51.5,8.7c18.1,3,35.4,5.8,51.6,8.3c-16.1-2.8-33.4-5.7-51.5-8.7
		C69.6,109.7,52.2,106.9,36.1,104.4"/>
	<path d="M39.3,101.8c15.1,2.6,31.4,5.3,48.5,8.1c17,2.8,33.3,5.4,48.5,7.8c-15.2-2.6-31.4-5.3-48.5-8.1
		C70.8,106.9,54.5,104.2,39.3,101.8"/>
	<path d="M42.8,99.4c14.3,2.5,29.8,5.1,45.9,7.7c16.1,2.7,31.6,5.1,45.9,7.4c-14.3-2.5-29.8-5.1-45.9-7.7
		C72.6,104.1,57.2,101.6,42.8,99.4"/>
	<path d="M46.7,96.9c13.2,2.2,27.4,4.6,42.3,7c14.8,2.4,29.1,4.8,42.3,6.9c-13.2-2.2-27.4-4.6-42.3-7
		C74.2,101.4,59.9,99.1,46.7,96.9"/>
	<path d="M49.3,94.3c12.5,2.1,25.9,4.3,39.8,6.6c14,2.3,27.4,4.5,39.9,6.5c-12.5-2.1-25.9-4.3-39.8-6.6
		C75.2,98.5,61.8,96.3,49.3,94.3"/>
	<path class="st0" d="M52.8,93.3c8.9,5.9,22.9,2.2,33.6,7.9c6,4.1,12.6-2.5,17.8,1.5c5.1,4.4,12.5-2.1,16.2,3.9
		c-9.3-4.7-22.2-4.8-33.7-5.9C75.4,94.9,61.9,98.9,52.8,93.3"/>
	<path class="st0" d="M45.4,98c3.8-0.5,7.2-2.8,11.1-3.6c2.1-0.8-2,2.9,0,4.4c1.3,1.7,3.4,2.5,5.5,2.5c4.2,0.2,8.2-1.4,12.2-2.1
		c2.3-0.8,2.9,2,4.7,3.2c1.7,1.5,4.2,1.6,6.3,1c4.1-1.2,8.3-3.8,11.8-0.8c3.1,2.2,7,6.2,11.2,3.6c3.4-2.2,8.3-3.2,9.6,1.7
		c3.1,3.2,8.1-0.9,10.8,3c-2.5-4-7.9-0.1-10.6-3.2c-1.3-1.2-1.5-4.4-4.2-3.8c-2.1,0.1-4,1-5.8,1.9c-3.9,2.4-7.5-1.4-10.7-3.7
		c-3.8-3.2-8.5-0.4-12.3,0.6c-2,0.6-4.2,0.4-5.8-0.9c-1.6-0.9-2.5-4.1-5.2-3.3c-4.2,0.8-8.1,2.3-12.1,2.2c-2,0-4-0.8-5.2-2.3
		c-0.6-0.8-0.5-1.8,0-2.7c0.4-0.6,1.3-2.5-0.3-1.8C52.5,95,49.3,97.4,45.4,98"/>
	<path class="st0" d="M55.1,93.7c-2.9,0.7-5.7,2.4-7.8,4.6c-1.4,1.2-0.2,3.2,1.5,3.4c1.5,0.4,3.1,0.5,4.6,0.5
		c3.1,0.1,6.3-0.7,9.3-0.2c3.1,0.8,4.7,4.1,7.7,5.3c6.1,3,12.7-0.2,18.8-1c6.4-0.8,13-0.8,19.2,1.1c3.1,1,6.1,2.4,8.1,5
		c1.8,2.6,5.2,5.1,8.6,3.7c1.6-0.4,3.2-1,4.8-0.9c0.8,0.1,1.5,0.5,2,1l0.7,1c0.5-0.4-0.5,0.2-0.7,0.2c-3.1,1.1-6.5,1.4-9.8,1.5
		c-6.9,0.8-12.5-4-17.8-7.9c-5-4.3-11.2-9.1-18.4-7.7c-6.8,1.4-12.8,5.2-19.5,5.9c-6.8,1.2-12.8-4-19.8-3.1
		c-1.7,0.1-3.4,0.5-4.9,1.3c0.5,0.5,2.1-2,3.2-2.8c2.3-2.2,5.3-4.4,8.5-4c3.2,0.5,5.6,3.1,7.5,5.7c1.9,2.8,5.1,4.4,8.2,5.4
		c6.2,2.2,12.7,2.9,18.9,4.5c2.9,2,6.7,0.2,8.2-2.6c2.3-2.1,5.6-3.1,8.7-2.6c6.3,1.1,11.3,5.3,16.6,8.6c2.6,1.7,5.4,3,8.1,4.5
		c3.5,1.3,5.3-4.3,2.5-6.1c2.7,1.8,0.9,7.3-2.5,6c-2.7-1.5-5.5-2.9-8.1-4.6c-5.2-3.3-10.2-7.6-16.6-8.7c-3.2-0.6-6.6,0.4-9,2.6
		c-1.8,2.8-4.8,4.5-7.9,2.5c-6.2-1.7-12.7-2.4-18.9-4.6c-3.1-1-6-2.6-7.9-5.3c-1.9-2.6-4.3-5.4-7.8-5.9c-3.6-0.4-6.6,1.9-9,4.1
		c-0.8,1.2-3.3,2.4-2.6,3.6c1.5-0.7,3.1-1.1,4.7-1.2c6.7-0.9,12.7,4.3,19.8,3.1c6.9-0.7,12.9-4.5,19.6-5.9
		c14.6-2,21.4,16.9,36.2,15.6c3.4-0.1,6.8-0.4,10-1.5c0.3-0.4,1,0.1,1-0.9l-0.7-1.1c-0.6-0.6-1.4-1.1-2.3-1.2
		c-1.8-0.2-3.4,0.5-5,0.9c-3.3,1.3-6.2-0.9-8.2-3.6c-2.1-2.6-5.3-4.1-8.4-5.1c-6.3-1.9-13-1.9-19.4-1.1c-6.3,0.8-12.7,4-18.7,1.1
		c-3-1.1-4.6-4.4-7.8-5.2c-3.2-0.6-6.3,0.3-9.4,0.2c-1.5,0-3.1,0-4.6-0.4c-1.6-0.2-2.8-2-1.4-3.3C49.4,96.2,52.2,94.5,55.1,93.7"/>
	<path class="st0" d="M55.3,92.1c-3.2,1.9-6.3,3.9-9.2,6.4l-2,2c-0.8,1.3,1.5,0.6,2,0.5c1.9-0.5,3.5-1.6,5.1-2.6
		c1.6-1.1,3.1-2.3,4.6-3.4c0.1-0.2,1.5-0.8,0.5-0.6l0.2,1.4c0.2,0.9,0.1,1.9,0.1,2.9c2.2,1.8,3.7-1.6,4.8-2.5
		c1.3-1.3,3.4-1.1,5.1-0.4c1.8,0.7,3.5,1.7,5,2.8l2.3,1.8c1.8-0.9,1.7-1.4,2.2-2.9c1.2,2.7,4.9,5.9,7.5,8.7c1.5,1.4,3.3,2.6,5.3,3.3
		c1,0.3,2.1,0.5,3.2,0.5l0.8,0c0.3-0.4-0.1,0.8,0.8-0.8l-0.1-0.4l-0.5-1.5c-1.6-4-5.2-6.9-9-8.6c-0.2,0.4-0.6-1.4-0.6,0.9l0.8,0
		l1.5,0.1c1,0,2,0.1,3,0.3c2,0.3,3.9,0.9,5.9,1.5c1.9,0.7,3.9,1.2,5.6,2.2c1.6,0.9,3.9,2.3,6.2,1.2c2-0.8,3.5-2.3,5.3-2.8
		c1.7-0.5,3.5,0.4,4.4,2.2c0.9,1.9,3.2,3.2,5.3,3c1.1,0.1,2.1-0.2,3.1-0.5l1.4-0.6l0.3-0.2c0.1-1.7-0.2-0.5-0.2-1l-0.7-0.3
		c-2.1,2.4,0.6,4.2,1.5,5.6c0.7,0.7,1.4,1.4,2.1,2.1l1.1,1l0.6,0.5c1.2-0.6,0.3-0.6,0.6-1c-0.2-5-6.3-4.8-9.5-4.8
		c-7.7,0.4-15,2.3-22.1,4.1c7.2-1.6,14.5-3.4,22.1-3.6c3.3,0,8.9,0.2,8.8,4.3c-0.5-0.5-5.6-5.2-5.5-7.4l0.7,0.3
		c0-0.3,0.4,0.9,0.2-0.7l-0.3,0.1l-1.3,0.6c-0.9,0.2-1.8,0.5-2.7,0.4c-2,0-3.6-0.8-4.5-2.6c-0.9-1.8-3.2-3.4-5.5-2.7
		c-2.1,0.7-3.6,2.1-5.4,2.8c-6.2-0.1-15.8-7.9-22.3-4.1c3.7,1.6,6.9,4.2,8.4,7.9l0.5,1.4l0.1,0.3c1-1.4,0.1-0.4,0.2-0.7l-0.7,0
		c-1,0-1.9-0.1-2.8-0.4c-1.8-0.6-3.5-1.7-4.9-3.1c-3.3-2.3-4.6-6.6-9.3-7.8c0.3,0.5-1.6,1.7-0.6,2.1l-2.4-1.8
		c-1.7-1.1-3.4-2.2-5.3-2.9c-1.8-0.7-4.3-1-6,0.6c-1.1,1.5-3.1,3.4-3.6,3c-0.1-1,0-1.9-0.2-2.9l-0.2-1.5c-1-1-1,0.2-1.5,0.2
		c-1.6,1.1-3,2.4-4.6,3.5c-1.5,1.1-3.1,2.2-4.9,2.7c-0.4,0.3-2.8,0.3-1.7,0.1l1.9-2.1C49.1,96.1,52.2,94,55.3,92.1"/>
</g>
</svg>
