<?xml version="1.0" encoding="utf-8"?>
<!-- Generator: Adobe Illustrator 22.0.0, SVG Export Plug-In . SVG Version: 6.00 Build 0)  -->
<svg version="1.1" id="Calque_1" xmlns="http://www.w3.org/2000/svg" xmlns:xlink="http://www.w3.org/1999/xlink" x="0px" y="0px"
	 viewBox="0 0 42 42" style="enable-background:new 0 0 42 42;" xml:space="preserve">
<style type="text/css">
	.st0{fill:#FFFFFF;}
</style>
<path class="st0" d="M26.8,10l-0.6,3.5c0,0-1-0.3-1.9-0.3c-0.9,0-1.8,0.3-1.8,1.3v0.4v1.2v1.1h3.8l-0.3,3.4h-3.5v6.1v1.5v1v0.6v0.5
	v0.5v0.4v0.4v0.4v0.4v0.2h-0.2c0,0,0,0,0,0H22h-0.3h-0.3H21h-0.4h-0.4h-0.5h-0.5h-0.6c0,0,0,0,0,0h-0.6v-0.1v-0.2V32v-0.2v-0.2v-0.2
	v-0.2v-0.2v-0.2v-0.3v-0.3v-3.3v-6.1h-2.4v-3.4h2.4v-1.1v-1.1v-0.2c0-1,0-2.6,0.8-3.6c0.8-1,1.9-1.7,3.7-1.7
	C25.5,9.6,26.8,10,26.8,10 M41,21c0-11-9-20-20-20S1,10,1,21s9,20,20,20S41,32,41,21"/>
</svg>
