<?xml version="1.0" encoding="utf-8"?>
<!-- Generator: Adobe Illustrator 22.0.0, SVG Export Plug-In . SVG Version: 6.00 Build 0)  -->
<svg version="1.1" id="Calque_1" xmlns="http://www.w3.org/2000/svg" xmlns:xlink="http://www.w3.org/1999/xlink" x="0px" y="0px"
	 viewBox="0 0 180 155" style="enable-background:new 0 0 180 155;" xml:space="preserve">
<style type="text/css">
	.st0{fill:#FFFFFF;}
	.st1{fill:#020203;}
</style>
<g>
	<g>
		<path class="st0" d="M175,26.1c0,0-41.5-27-113.5,51"/>
		<path class="st1" d="M113.2,33.9c39.8-22.3,61.9-8,61.9-8l0,0l-0.2,0.3c0,0-1.4-0.9-4-1.9c-2.7-1-6.6-2.1-11.9-2.5
			c-10.4-0.8-25.8,1.2-45.7,12.3c-14.8,8.3-32.2,21.7-51.8,43L61.3,77C80.9,55.7,98.3,42.3,113.2,33.9"/>
		<path class="st0" d="M175,26.1c0,0,1.3,49.5-102.7,70.3"/>
		<path class="st1" d="M72.2,96.2c28.3-5.7,48.8-13.4,63.6-21.8c29.8-16.7,36.8-35.6,38.4-43.9c0.6-2.8,0.5-4.4,0.5-4.4l0.4,0
			c0,0,0.7,26.3-39.1,48.7c-14.9,8.3-35.4,16.1-63.8,21.8L72.2,96.2z"/>
		<path class="st0" d="M175,26.1c0,0,1.3,49.5-102.7,70.3L61.4,77.1C133.5-0.9,175,26.1,175,26.1"/>
		<path class="st1" d="M72.7,95.4c27.9-5.6,48.2-13.3,62.9-21.6c34.5-19.4,38.2-41.6,38.6-46.7c0-0.3,0-0.5,0-0.6
			c-0.1-0.1-0.3-0.2-0.6-0.3c-0.7-0.3-1.6-0.8-2.9-1.3c-2.6-1-6.5-2-11.7-2.4c-10.3-0.8-25.6,1.2-45.3,12.3
			C99,43.1,81.8,56.3,62.5,77.2L72.7,95.4z M60.4,77l0.4-0.4c19.6-21.3,37.1-34.8,52-43.2c40-22.5,62.6-7.8,62.8-7.6l-0.2-0.3
			l-0.5,0.7l0.6-0.4c0,0.2,0.7,27.2-39.3,49.6c-15,8.4-35.6,16.2-63.9,21.9l-0.6,0.1L60.4,77z"/>
		<path class="st1" d="M71.9,94.9c27.7-6.5,47.9-14.5,62.7-22.8c29.7-16.7,37.4-34.3,39.3-42c0.5-2,0.6-3.3,0.7-3.8
			c-0.5-0.2-1.6-0.8-3.6-1.4c-2.5-0.8-6.3-1.6-11.4-1.7c-10.1-0.3-25.2,2.3-45,13.4c-14.8,8.3-32.2,21.3-52.1,41.6L71.9,94.9z
			 M61.5,78l0.2-0.2c20.1-20.4,37.6-33.6,52.5-41.9c39.8-22.4,60.9-10.2,60.9-10.1l-0.2,0.3l0.4,0c0,0.1-0.6,24.4-40.4,46.7
			C120,81.2,99.7,89.3,71.8,95.7l-0.3,0.1L61.5,78z"/>
		<path class="st1" d="M174.6,26.1L174.6,26.1C174.6,26.1,174.6,26.1,174.6,26.1L174.6,26.1z M71.2,93.8c27.2-7.4,47.2-15.7,62-24
			c29.7-16.7,38.1-33,40.5-40.1c0.6-1.8,0.8-2.9,0.9-3.4c-0.4-0.2-1.6-0.6-3.4-1.1c-2.4-0.6-6.1-1.1-10.9-0.9
			c-9.8,0.3-24.5,3.4-44.4,14.5c-14.8,8.3-32.4,21-52.8,40.4L71.2,93.8z M62.2,79.2l0.2-0.2c20.6-19.5,38.3-32.4,53.2-40.7
			c39.8-22.3,59.5-12.5,59.6-12.5l-0.2,0.3l0.4,0c0,0.1-1.9,22-41.7,44.3c-14.9,8.3-35.1,16.8-62.5,24.1l-0.3,0.1L62.2,79.2z"/>
		<path class="st1" d="M174.6,26L174.6,26L174.6,26z M70.5,92.6c26.7-8.3,46.5-17.1,61.3-25.4c29.8-16.7,39-31.6,41.7-37.9
			c0.7-1.5,0.9-2.5,1-3c-0.4-0.1-1.5-0.4-3.1-0.7c-2.3-0.3-5.8-0.5-10.5,0c-9.4,1-23.8,4.7-43.7,15.9c-14.8,8.3-32.6,20.7-53.6,39.1
			L70.5,92.6z M62.9,80.4l0.2-0.2c21.1-18.5,39.1-31,53.9-39.3c39.8-22.3,58-15.1,58.1-15.1l-0.1,0.3l0.3,0.1
			c0,0.1-3.4,19.4-43.2,41.7c-14.9,8.3-34.9,17.1-61.7,25.5l-0.3,0.1L62.9,80.4z"/>
		<path class="st1" d="M174.7,26L174.7,26L174.7,26L174.7,26z M69.8,91.4c26.1-9.3,45.8-18.4,60.6-26.7c29.8-16.7,39.8-30.2,43-35.8
			c0.7-1.3,1.1-2.1,1.2-2.6c-0.4-0.1-1.4-0.2-2.8-0.3c-2.2-0.1-5.4,0-10,0.8c-9.1,1.6-23.1,6-43,17.1C104,52.3,86,64.3,64.4,81.8
			L69.8,91.4z M63.6,81.6l0.2-0.2c21.7-17.5,39.8-29.6,54.7-38c39.8-22.3,56.5-17.7,56.6-17.7l-0.1,0.3l0.3,0.1
			c0,0.1-4.8,16.7-44.6,39C115.8,73.6,96,82.7,69.8,92.1l-0.2,0.1L63.6,81.6z"/>
		<path class="st1" d="M174.7,26.9L174.7,26.9L174.7,26.9L174.7,26.9z M69.8,92.2c26.1-9.3,45.8-18.4,60.6-26.7
			c29.8-16.7,39.8-30.2,43-35.8c0.7-1.3,1.1-2.1,1.2-2.6c-0.4-0.1-1.4-0.2-2.8-0.3c-2.2-0.1-5.4,0-10,0.8c-9.1,1.6-23.1,6-43,17.1
			C104,53.1,86,65.2,64.4,82.6L69.8,92.2z M63.6,82.4l0.2-0.2c21.7-17.5,39.8-29.6,54.7-38C158.3,22,175,26.6,175.1,26.6l-0.1,0.3
			l0.3,0.1c0,0.1-4.8,16.7-44.6,39C115.8,74.4,96,83.5,69.8,92.9L69.5,93L63.6,82.4z"/>
		<path class="st1" d="M69.1,90.5c25.7-10.3,45.2-19.7,60.1-28c19.9-11.1,31.3-20.3,37.8-26.6c5.7-5.6,7.5-9,7.9-9.7
			c-0.8-0.1-4.6-0.3-12.4,1.7c-8.8,2.2-22.5,7.2-42.4,18.3c-14.8,8.3-33.1,20.1-55.2,36.6L69.1,90.5z M64.5,82.8L64.5,82.8
			C86.8,66.1,105,54.3,119.9,46C159.7,23.7,175,26,175,26l0,0.1l0.1,0c0,0-6.1,14.3-45.8,36.6C114.4,71,94.8,80.5,69.1,90.8l-0.1,0
			L64.5,82.8z"/>
		<path class="st1" d="M68.3,89.1c25.1-11.4,44.4-21.3,59.2-29.6c19.9-11.1,31.7-19.5,38.6-25.1c5.9-4.8,8.2-7.6,8.7-8.2
			c-0.8,0.1-4.3,0.6-11.5,3.1c-8.4,3-21.7,8.7-41.6,19.8c-14.8,8.3-33.3,19.7-56.1,35.1L68.3,89.1z M65.3,84.2L65.3,84.2
			c22.9-15.5,41.4-26.9,56.3-35.2C161.3,26.7,175,26,175,26l0,0.1l0.1,0.1c0,0-7.7,11.3-47.5,33.6C112.7,68,93.4,77.9,68.3,89.3
			l-0.1,0L65.3,84.2z"/>
		<path class="st1" d="M164.1,30.8c-7.9,3.7-20.8,10.3-40.7,21.4c-14.9,8.3-33.6,19.2-57.1,33.4l1.1,2
			c24.4-12.6,43.5-22.9,58.3-31.2c19.9-11.1,32.2-18.7,39.5-23.6c6-3.9,8.7-6,9.4-6.6C173.8,26.6,170.6,27.8,164.1,30.8 M66.2,85.7
			L66.2,85.7c23.5-14.3,42.3-25.2,57.2-33.5C163.1,29.9,175,26,175,26l0,0.1l0,0c0,0-9.4,8.1-49.2,30.4c-14.9,8.3-34,18.6-58.5,31.2
			L66.2,85.7z"/>
		<path class="st0" d="M79.9,58.8c0,0-2.7,0.7-4.1-0.4c-1.3-1-1.3-4.3-0.1-5.3l-23,12.9c0,0,7.5,0.1,9.6,3.9c2.1,3.8,1.5,5.2,0.6,6"
			/>
		<path class="st1" d="M75.5,52.8l0.4,0.5c-0.8,0.6-1,3.1-0.3,4.3c0.1,0.2,0.3,0.4,0.4,0.5c0.5,0.4,1.5,0.5,2.3,0.5
			c0.8,0,1.5-0.2,1.5-0.2l0,0l0.2,0.8c0,0-2.8,0.7-4.4-0.4c-0.3-0.2-0.5-0.5-0.7-0.8c-0.6-1-0.7-2.5-0.3-3.7L54.1,65.8
			c2.3,0.2,6.8,1,8.5,4c2.2,3.8,1.6,5.6,0.5,6.5l-0.6-0.6c0.7-0.7,1.4-1.7-0.7-5.5c-1-1.7-3.2-2.7-5.3-3.2c-2.1-0.5-3.9-0.5-3.9-0.5
			l-1.6,0L75.5,52.8z"/>
		<path class="st0" d="M97.5,90.2c0,0-2,2-1.8,3.7c0.2,1.7,2.9,3.4,4.4,2.8l-23,12.9c0,0,3.7-6.5,1.6-10.4c-2.1-3.8-3.6-3.8-4.7-3.5
			"/>
		<path class="st1" d="M76.7,109.4c0,0,0.9-1.6,1.6-3.7c0.7-2.1,1-4.6,0-6.3c-2.2-3.8-3.3-3.6-4.2-3.3l-0.2-0.8
			c1.3-0.4,3.1-0.2,5.2,3.7c1.7,3.1,0,7.4-1,9.5l20.5-11.5c-1.2-0.3-2.4-1.2-3-2.2c-0.2-0.3-0.3-0.6-0.3-1c-0.1-2,1.9-4,1.9-4l0,0
			l0.6,0.6c0,0-0.5,0.5-0.9,1.1c-0.5,0.7-0.9,1.5-0.8,2.2c0,0.2,0.1,0.4,0.2,0.6c0.6,1.2,2.7,2.2,3.7,1.8l0.3,0.8L76,110.7
			L76.7,109.4z"/>
		<path class="st0" d="M43.6,64.9c-2.8-5.1-3.9-7.4,7.9-14c11.8-6.6,23.5-9.2,29.6-7c-1.3,6.3-9.6,15-21.4,21.6
			C47.9,72.1,46.7,70.5,43.6,64.9"/>
		<path class="st1" d="M41.8,58.3c0.9-2.2,3.7-4.4,9.6-7.8c11.9-6.6,23.6-9.2,29.8-7l0.3,0.1l-0.1,0.3c-1.3,6.5-9.7,15.2-21.5,21.8
			c-5.9,3.3-9.2,4.6-11.5,4.3c-2.4-0.3-3.5-2.3-5-5l0.3-0.2l0.3-0.2c1.6,2.8,2.6,4.5,4.6,4.7c2,0.3,5.2-0.9,11.1-4.2
			c11.6-6.5,19.8-15,21.2-21.1c-5.9-2-17.5,0.5-29.1,7c-5.9,3.3-8.5,5.5-9.3,7.4c-0.8,1.9,0.1,3.6,1.5,6.2l-0.3,0.2l-0.3,0.2
			C41.9,62.5,40.8,60.6,41.8,58.3"/>
		<path class="st1" d="M43.4,65l0.2-0.1l0.2-0.1c1.2,2.2,2,3.4,3.9,3.4c1.9,0,5.1-1.3,11-4.6C70.3,57.1,78.9,49.3,80.8,44
			c-5.5-1.1-16.7,2.2-28.3,8.7c-5.9,3.3-8.6,5.4-9.6,7.1c-0.9,1.7-0.3,3,0.8,5l-0.2,0.1L43.4,65c-1.1-1.9-1.9-3.5-0.8-5.4
			c1.1-1.9,3.8-4,9.7-7.3c11.8-6.6,23.2-9.9,28.8-8.7l0.2,0.1L81.3,44c-1.9,5.4-10.6,13.4-22.4,20c-5.9,3.3-9.1,4.7-11.2,4.7
			c-2.1,0-3-1.4-4.1-3.4C43.5,65.1,43.5,65.1,43.4,65"/>
		<path class="st1" d="M42.1,58.9c1-2,3.8-4.2,9.7-7.5c11.9-6.6,23.4-9.6,29.4-7.8l0.3,0.1L81.4,44c-1.6,6-10.2,14.3-22,21
			c-5.9,3.3-9.1,4.6-11.4,4.5c-2.3-0.2-3.3-1.9-4.7-4.4l0.3-0.2l0.3-0.2c1.4,2.5,2.3,3.9,4.2,4c1.9,0.2,5.1-1.1,11-4.4
			c11.5-6.5,19.9-14.6,21.6-20.2c-5.7-1.5-17,1.4-28.5,7.9c-5.9,3.3-8.6,5.5-9.4,7.3c-0.8,1.7-0.1,3.2,1.2,5.5l-0.3,0.2L43.3,65
			c0-0.1-0.1-0.1-0.1-0.2C42,62.7,41.1,61,42.1,58.9"/>
		<path class="st1" d="M43.6,61.4c1.3-1.4,4.1-3.4,10-6.7c11.8-6.6,22.6-10.9,27.4-11l0.4,0L81.2,44c-2.6,4-11.9,11-23.7,17.6
			c-5.9,3.3-9,4.8-10.9,5.2c-1.9,0.4-2.6-0.6-3.2-1.8l0.2-0.1l0.2-0.1c0.7,1.3,1.1,1.9,2.8,1.6c1.8-0.3,4.9-1.8,10.8-5.1
			c11.4-6.4,20.5-13.2,23.3-17.2c-4.8,0.4-15.4,4.5-26.8,11c-5.9,3.3-8.7,5.2-9.9,6.6c-1.1,1.3-0.8,2-0.1,3.1l-0.2,0.1L43.4,65
			c0-0.1-0.1-0.1-0.1-0.2C42.7,63.8,42.4,62.7,43.6,61.4"/>
		<path class="st1" d="M43.4,65l0.2-0.1l0.2-0.1c1,1.8,1.6,2.7,3.4,2.6c1.8-0.1,5-1.5,10.9-4.8c11.5-6.4,20.3-13.8,22.6-18.5
			c-5.2-0.4-16.1,3.2-27.6,9.7c-5.9,3.3-8.7,5.3-9.7,6.9c-1,1.5-0.5,2.5,0.4,4.1l-0.2,0.1L43.4,65c-0.9-1.6-1.6-2.9-0.4-4.6
			c1.2-1.7,4-3.7,9.9-7c11.8-6.6,22.9-10.3,28.2-9.7l0.3,0L81.3,44c-2.2,4.8-11.2,12.4-23,19c-5.9,3.3-9.1,4.7-11.1,4.9
			c-2,0.2-2.8-1-3.7-2.6C43.5,65.2,43.4,65.1,43.4,65"/>
		<path class="st1" d="M43.5,64.9L43.5,64.9l0.2-0.1c0.3,0.4,0.3,0.7,2,0c1.6-0.7,4.7-2.3,10.6-5.6C67.5,53,76.9,47.1,80.5,44.2
			c-4.4,1.6-14.3,6.6-25.6,12.9c-5.9,3.3-8.8,5.1-10.2,6.1c-1.4,1.1-1.2,1.3-1,1.7L43.5,64.9L43.5,64.9c-0.3-0.4-0.3-0.9,1.1-1.9
			C46,62,49,60.2,54.9,56.9C66.7,50.3,77,45.1,81,43.8l0.1,0.2c-3.3,2.8-13,8.9-24.8,15.5c-5.9,3.3-8.9,4.9-10.6,5.6
			C44.2,65.7,43.8,65.5,43.5,64.9C43.5,65,43.5,65,43.5,64.9"/>
		<path class="st0" d="M73.1,117.5c-2.8-5.1-3.9-7.4,7.9-14c11.8-6.6,23.5-9.2,29.6-7c-1.3,6.3-9.6,15-21.4,21.6
			C77.4,124.7,76.2,123,73.1,117.5"/>
		<path class="st0" d="M145.9,52.4c-4.3,2.4-9.8,1-12.1-3.2c-2.4-4.2-0.8-9.6,3.6-12c4.3-2.4,9.8-1,12.1,3.2
			C151.9,44.6,150.3,50,145.9,52.4"/>
		<path class="st1" d="M145.9,52.4c-3.9,2.1-9.3,0.8-11.5-3.1c-2.4-3.8-0.9-9.4,3.3-11.6c4-2.4,9.6-0.8,11.6,3.3
			C151.5,44.9,149.7,50.2,145.9,52.4c3.9-1.9,6.4-7.3,4.1-11.8c-2-4.6-8.4-6.6-12.9-3.9c-4.7,2.5-6.3,9-3.4,13.1
			C136.4,54,142.3,54.8,145.9,52.4"/>
		<path class="st0" d="M145.2,51.1c-3.6,2-8.1,0.8-10-2.7c-2-3.5-0.6-7.9,3-9.9c3.6-2,8.1-0.8,10,2.7
			C150.1,44.6,148.8,49.1,145.2,51.1"/>
		<path class="st1" d="M138.2,38.6c-3.5,2-4.8,6.3-2.9,9.8c1.9,3.4,6.3,4.6,9.8,2.6c3.5-2,4.8-6.3,2.9-9.8
			C146.1,37.8,141.7,36.6,138.2,38.6 M138.1,38.4c3.7-2,8.2-0.8,10.2,2.7c2,3.6,0.6,8.1-3,10.1c-3.7,2-8.2,0.8-10.2-2.7
			C133.1,44.9,134.4,40.4,138.1,38.4"/>
		<path class="st0" d="M138.6,39.3c-3.1,1.7-4.3,5.6-2.6,8.6c1.7,3,5.6,4.1,8.7,2.3c3.1-1.7,4.3-5.6,2.6-8.6
			C145.6,38.6,141.7,37.6,138.6,39.3"/>
		<path class="st1" d="M138.6,39.3c-2.8,1.4-4.5,5.3-2.9,8.5c1.4,3.2,5.9,4.6,9.1,2.7c3.3-1.7,4.5-6.3,2.4-9.2
			C145.4,38.2,141.3,37.6,138.6,39.3c2.8-1.5,6.7-0.7,8.4,2.2c1.8,2.8,0.7,6.9-2.4,8.5c-2.9,1.8-7,0.5-8.5-2.4
			C134.5,44.7,135.9,40.9,138.6,39.3"/>
		<path class="st0" d="M139.3,40.5c-2.4,1.4-3.3,4.4-2,6.7c1.3,2.4,4.4,3.2,6.8,1.8c2.4-1.4,3.3-4.4,2-6.7
			C144.7,40,141.7,39.2,139.3,40.5"/>
		<path class="st1" d="M139.3,40.5c-2.3,0.9-3.9,4-2.7,6.8c1.1,2.8,5.1,4.2,7.9,2.5c2.9-1.5,3.8-5.6,2-8
			C144.8,39.3,141.2,39,139.3,40.5c2.3-1,5.1-0.1,6.1,2c1.1,2,0.3,4.7-1.8,5.8c-2,1.2-4.8,0.5-5.9-1.5
			C136.6,44.8,137.3,41.9,139.3,40.5"/>
		<path class="st0" d="M48.4,69.3c-0.6,0.4-2.5-1.7-4.1-4.6c-1.6-2.9-2.4-5.5-1.8-5.9c0.6-0.4,2.5,1.7,4.1,4.6
			C48.2,66.3,49,69,48.4,69.3"/>
		<path class="st1" d="M42.7,59.5c0,0.3,0.1,0.7,0.2,1.2c0.3,1,0.9,2.4,1.7,3.8c1.1,2,2.4,3.6,3.1,4.2c0.2,0.1,0.3,0.2,0.4,0.2
			c0-0.1,0-0.1,0-0.3c0-0.3-0.1-0.7-0.2-1.2c-0.3-1-0.9-2.4-1.7-3.8c-1.1-2-2.4-3.6-3.1-4.2c-0.2-0.1-0.3-0.2-0.4-0.2
			C42.7,59.2,42.7,59.3,42.7,59.5 M41.8,59.5c0-0.4,0-0.8,0.4-1c0.4-0.2,0.8,0,1.1,0.2c0.3,0.2,0.7,0.6,1.1,1
			c0.8,0.9,1.6,2.1,2.5,3.6c1.2,2.2,2,4.2,2.1,5.4c0,0.4,0,0.8-0.4,1c-0.4,0.2-0.8,0-1.1-0.2c-0.3-0.2-0.7-0.6-1.1-1
			c-0.8-0.9-1.6-2.1-2.5-3.6C42.7,62.7,41.9,60.7,41.8,59.5"/>
		<path class="st1" d="M47.6,53.2c2.5,0.9,3.8,4,5.4,6.4c1.2,2.6,3.2,5.4,2.7,8c0.9-2.6-0.9-5.6-2.2-8.2
			C51.9,56.9,50.3,53.8,47.6,53.2"/>
		<path class="st0" d="M48.1,52.9c2.4,1,3.5,4.2,5.1,6.6c1.2,2.6,3.3,5.2,2.9,7.8c1.1-2.7-0.7-5.7-1.9-8.4
			C52.7,56.5,51,53.3,48.1,52.9"/>
		<path class="st0" d="M72.2,96.4c-1.1,0.6-4.5-3.2-7.4-8.5c-3-5.3-4.5-10.1-3.3-10.8c1.1-0.6,4.5,3.2,7.4,8.5
			C71.9,90.9,73.4,95.7,72.2,96.4"/>
		<path class="st1" d="M64.4,79.2c-1.3-1.5-2.5-2.2-2.8-2c-0.4,0.2-0.4,1.5,0.2,3.4c0.6,1.9,1.7,4.5,3.2,7.1
			c1.5,2.7,3.1,4.9,4.4,6.4c1.3,1.5,2.5,2.2,2.8,2c0.4-0.2,0.4-1.5-0.2-3.4c-0.6-1.9-1.7-4.5-3.2-7.1C67.3,83,65.7,80.7,64.4,79.2
			 M61.4,80.8c-0.6-2-0.8-3.3-0.1-3.8c0.8-0.4,1.9,0.5,3.2,2c1.4,1.5,2.9,3.8,4.4,6.5c1.5,2.7,2.6,5.2,3.2,7.2
			c0.6,2,0.8,3.3,0.1,3.8c-0.8,0.4-1.8-0.5-3.2-2c-1.4-1.5-2.9-3.8-4.4-6.5C63.2,85.3,62,82.8,61.4,80.8"/>
		<path class="st1" d="M78.2,59.4c-2.4,2-4.9,4.3-7.4,6.8c-2.5,2.5-4.9,4.9-6.8,7.4c2.2-2.2,4.7-4.5,7.2-7
			C73.8,64.1,76.1,61.7,78.2,59.4"/>
		<path class="st1" d="M78.6,59.8c-2.4,2-4.9,4.3-7.4,6.8c-2.5,2.5-4.9,4.9-6.8,7.4c2.2-2.2,4.7-4.5,7.2-7
			C74.1,64.5,76.5,62.1,78.6,59.8"/>
		<path class="st1" d="M75.5,60.2c-1.8,1.4-3.7,3-5.6,4.7c-1.9,1.7-3.6,3.5-5.2,5.1c1.8-1.4,3.7-3,5.6-4.7
			C72.2,63.6,74,61.8,75.5,60.2"/>
		<path class="st1" d="M73.2,59.9c-1.4,1-2.8,2.1-4.2,3.4c-1.4,1.3-2.7,2.5-3.8,3.8c1.4-1,2.8-2.1,4.2-3.4
			C70.8,62.4,72.1,61.1,73.2,59.9"/>
		<path class="st1" d="M73.3,57.6c-1.8,1.4-3.7,3-5.7,4.5c-2,1.6-4,3-6,4.2c2.2-0.8,4.3-2.2,6.3-3.7C70,60.9,71.8,59.3,73.3,57.6"/>
		<path class="st1" d="M96,91c-3.1,0.6-6.4,1.3-9.8,2.2c-3.4,0.8-6.6,1.8-9.7,2.5c3.1-0.3,6.4-1.1,9.8-2C89.7,92.9,93,92,96,91"/>
		<path class="st1" d="M95.8,90.5c-3.1,0.6-6.4,1.3-9.8,2.2c-3.4,0.8-6.6,1.8-9.7,2.5c3.1-0.3,6.4-1.1,9.8-2
			C89.6,92.4,92.8,91.5,95.8,90.5"/>
		<path class="st1" d="M93.9,92.9c-2.2,0.5-4.6,1-7.1,1.7c-2.5,0.7-4.8,1.5-6.9,2.3c2.2-0.5,4.6-1,7.1-1.7
			C89.4,94.5,91.8,93.7,93.9,92.9"/>
		<path class="st1" d="M92.9,95c-1.7,0.3-3.4,0.7-5.2,1.3c-1.8,0.6-3.5,1.2-5.1,1.8c1.7-0.3,3.4-0.7,5.2-1.3S91.4,95.7,92.9,95"/>
		<path class="st1" d="M95,96.1c-2.3,0.4-4.6,1.1-7.1,2c-2.4,0.9-4.7,2-6.5,3.4c2-1.1,4.3-2,6.7-2.9C90.5,97.8,92.8,96.9,95,96.1"/>
		<path class="st1" d="M127.7,53.3c-0.2,0.1-0.5,0-0.7-0.2s0-0.5,0.2-0.7c0.2-0.1,0.5,0,0.7,0.2C128.1,52.9,128,53.2,127.7,53.3"/>
		<path class="st1" d="M120,57.6c-0.2,0.1-0.5,0-0.7-0.2c-0.1-0.2,0-0.5,0.2-0.7c0.2-0.1,0.5,0,0.7,0.2
			C120.4,57.2,120.3,57.5,120,57.6"/>
		<path class="st1" d="M112.4,61.9c-0.2,0.1-0.5,0-0.7-0.2c-0.1-0.2,0-0.5,0.2-0.7c0.2-0.1,0.5,0,0.7,0.2
			C112.7,61.5,112.6,61.8,112.4,61.9"/>
		<path class="st1" d="M104.7,66.2c-0.2,0.1-0.5,0-0.7-0.2c-0.1-0.2,0-0.5,0.2-0.7c0.2-0.1,0.5,0,0.7,0.2
			C105,65.8,104.9,66.1,104.7,66.2"/>
		<path class="st1" d="M97,70.5c-0.2,0.1-0.5,0-0.7-0.2c-0.1-0.2,0-0.5,0.2-0.7c0.2-0.1,0.5,0,0.7,0.2C97.3,70.1,97.2,70.4,97,70.5"
			/>
		<path class="st1" d="M89.3,74.8c-0.2,0.1-0.5,0-0.7-0.2c-0.1-0.2,0-0.5,0.2-0.7c0.2-0.1,0.5,0,0.7,0.2
			C89.6,74.4,89.5,74.7,89.3,74.8"/>
		<path class="st1" d="M81.6,79.2c-0.2,0.1-0.5,0-0.7-0.2c-0.1-0.2,0-0.5,0.2-0.7c0.2-0.1,0.5,0,0.7,0.2
			C81.9,78.7,81.8,79,81.6,79.2"/>
		<path class="st1" d="M123.8,46.4c-0.2,0.1-0.5,0.1-0.7-0.2c-0.1-0.2-0.1-0.5,0.2-0.7c0.2-0.1,0.5-0.1,0.7,0.2
			C124.1,46,124.1,46.3,123.8,46.4"/>
		<path class="st1" d="M116.1,50.6c-0.2,0.1-0.5,0.1-0.7-0.2c-0.1-0.2-0.1-0.5,0.2-0.7c0.2-0.1,0.5-0.1,0.7,0.2
			C116.4,50.2,116.3,50.5,116.1,50.6"/>
		<path class="st1" d="M108.6,55.3c-0.2,0.1-0.5,0.1-0.7-0.2c-0.1-0.2-0.1-0.5,0.2-0.7c0.2-0.1,0.5-0.1,0.7,0.2
			C108.9,54.9,108.9,55.2,108.6,55.3"/>
		<path class="st1" d="M101.2,60c-0.2,0.1-0.5,0.1-0.7-0.2c-0.1-0.2-0.1-0.5,0.2-0.7c0.2-0.1,0.5-0.1,0.7,0.2
			C101.5,59.5,101.4,59.8,101.2,60"/>
		<path class="st1" d="M93.7,64.7c-0.2,0.1-0.5,0.1-0.7-0.2c-0.1-0.2-0.1-0.5,0.2-0.7c0.2-0.1,0.5-0.1,0.7,0.2
			C94,64.2,93.9,64.5,93.7,64.7"/>
		<path class="st1" d="M86.2,69.3c-0.2,0.1-0.5,0.1-0.7-0.2c-0.1-0.2-0.1-0.5,0.2-0.7c0.2-0.1,0.5-0.1,0.7,0.2
			C86.5,68.9,86.4,69.2,86.2,69.3"/>
		<path class="st1" d="M79,74.4c-0.2,0.1-0.5,0.1-0.7-0.2c-0.1-0.2-0.1-0.5,0.2-0.7c0.2-0.1,0.5-0.1,0.7,0.2
			C79.3,74,79.2,74.3,79,74.4"/>
		<path class="st1" d="M131.1,59.4c-0.2,0.1-0.3,0.4-0.2,0.7c0.1,0.2,0.4,0.3,0.7,0.2c0.2-0.1,0.3-0.4,0.2-0.7
			C131.6,59.3,131.3,59.2,131.1,59.4"/>
		<path class="st1" d="M123.5,63.7c-0.2,0.1-0.3,0.4-0.2,0.7c0.1,0.2,0.4,0.3,0.7,0.2c0.2-0.1,0.3-0.4,0.2-0.7
			C124,63.7,123.7,63.6,123.5,63.7"/>
		<path class="st1" d="M115.6,67.7c-0.2,0.1-0.3,0.4-0.2,0.7c0.1,0.2,0.4,0.3,0.7,0.2c0.2-0.1,0.3-0.4,0.2-0.7
			C116.1,67.7,115.8,67.6,115.6,67.7"/>
		<path class="st1" d="M107.7,71.6c-0.2,0.1-0.3,0.4-0.2,0.7c0.1,0.2,0.4,0.3,0.7,0.2c0.2-0.1,0.3-0.4,0.2-0.7
			C108.2,71.6,107.9,71.5,107.7,71.6"/>
		<path class="st1" d="M99.8,75.6c-0.2,0.1-0.3,0.4-0.2,0.7c0.1,0.2,0.4,0.3,0.7,0.2c0.2-0.1,0.3-0.4,0.2-0.7
			C100.3,75.5,100,75.4,99.8,75.6"/>
		<path class="st1" d="M91.9,79.5c-0.2,0.1-0.3,0.4-0.2,0.7c0.1,0.2,0.4,0.3,0.7,0.2c0.2-0.1,0.3-0.4,0.2-0.7
			C92.4,79.5,92.2,79.4,91.9,79.5"/>
		<path class="st1" d="M83.8,83c-0.2,0.1-0.3,0.4-0.2,0.7c0.1,0.2,0.4,0.3,0.7,0.2c0.2-0.1,0.3-0.4,0.2-0.7C84.3,83,84,82.9,83.8,83
			"/>
		<path class="st1" d="M85.2,119.8c0-0.1,0.1-0.3,0.1-0.4c0.1-0.1,0.3-0.1,0.4-0.2c0-0.2,0-0.5,0-0.7c-0.1,0.1-0.2,0.1-0.3,0.2
			c0-0.1,0-0.3,0-0.4c0.1,0,0.2-0.1,0.2-0.1c0-0.1-0.1-0.3-0.1-0.4c-0.1,0-0.1,0.1-0.2,0.1c0-0.2-0.1-0.5-0.1-0.7c0,0,0.1,0,0.1-0.1
			c-0.1-0.2-0.1-0.3-0.2-0.5c0,0,0,0-0.1,0c-0.1-0.3-0.2-0.5-0.3-0.8c-0.6-1.3-1.4-2.5-2-3.8c-0.8-1.2-1.4-2.5-2.2-3.7
			c-0.1-0.2-0.2-0.3-0.4-0.5c0,0,0,0,0,0c-0.1-0.1-0.2-0.3-0.3-0.4c0,0-0.1,0-0.1,0.1c-0.2-0.2-0.4-0.4-0.6-0.5
			c0.1,0,0.1-0.1,0.2-0.1c-0.1-0.1-0.2-0.2-0.3-0.3c-0.1,0-0.2,0.1-0.2,0.1c-0.1-0.1-0.3-0.2-0.4-0.3c0.1-0.1,0.2-0.1,0.3-0.2
			c-0.2-0.2-0.4-0.3-0.6-0.4c-0.1,0.1-0.3,0.2-0.4,0.2c-0.1,0-0.2-0.1-0.3-0.1c0.1-0.1,0.3-0.2,0.4-0.3c-0.1-0.1-0.2-0.1-0.4-0.2
			c0.2,0,0.3,0.1,0.5,0.1c0.9-0.6,1.9-1.2,3-1.8c5.8-3.3,11.7-5.6,16.8-6.7c-5.1,1.4-10.8,3.7-16.6,7c-1,0.6-2,1.1-2.8,1.7
			c0.3,0.1,0.5,0.2,0.7,0.3c0.7-0.4,1.6-0.9,2.4-1.4c7.3-4.1,14.5-6.8,20.3-7.8c-5.7,1.3-12.8,4.1-20.1,8.2
			c-0.8,0.5-1.5,0.9-2.2,1.3c0.1,0.1,0.2,0.2,0.4,0.3c0.6-0.4,1.3-0.8,2.1-1.2c9-5,17.7-8.1,23.7-8.7c-5.9,1.1-14.4,4.4-23.4,9.4
			c-0.7,0.4-1.3,0.7-1.9,1.1c0.1,0.1,0.2,0.2,0.3,0.4c0.6-0.3,1.1-0.6,1.7-1c9.4-5.3,18.4-8.7,24.2-9.5c-5.6,1.4-14.3,5.2-23.7,10.4
			c-0.6,0.3-1.1,0.6-1.6,0.9c0.1,0.1,0.2,0.2,0.3,0.3c0.5-0.3,1-0.6,1.5-0.9c10.9-6.1,20.9-10.2,26.1-10.9
			c-4.6,1.8-14.2,6.6-25,12.7c-0.5,0.3-0.9,0.5-1.4,0.8c0,0.1,0.1,0.1,0.1,0.2c0.4-0.2,0.9-0.5,1.4-0.8
			c11.3-6.3,21.2-11.3,25.6-12.9c-3.6,2.9-13.1,8.8-24.3,15.1c-0.5,0.3-0.9,0.5-1.4,0.8c0,0.1,0.1,0.1,0.1,0.2
			c0.4-0.2,0.9-0.5,1.4-0.8c10.8-6.1,19.9-11.7,23.9-14.8c-3.3,4-12,10.5-22.9,16.6c-0.5,0.3-1.1,0.6-1.6,0.9
			c0.1,0.1,0.1,0.3,0.2,0.4c0.5-0.3,1-0.6,1.6-0.9c9.6-5.4,17.5-11,21.5-15.1c-3.6,4.6-11.4,10.6-21,16c-0.6,0.4-1.2,0.7-1.8,1
			c0,0.2,0.1,0.3,0.1,0.5c0.6-0.3,1.2-0.7,1.9-1.1c8.6-4.9,15.7-10.2,19.8-14.6c-3.8,4.7-10.8,10.3-19.5,15.2
			c-0.8,0.4-1.5,0.8-2.2,1.2c0,0.2,0,0.3,0,0.5c0.7-0.4,1.5-0.8,2.3-1.3c7-3.9,12.8-8.3,16.9-12.3c-3.9,4.2-9.7,8.8-16.7,12.7
			c-0.9,0.5-1.7,1-2.5,1.4c0,0.3-0.1,0.5-0.1,0.8c0.9-0.5,1.9-1,3-1.6c6.2-3.5,11.4-7.4,15.3-11.2c-3.7,4-8.9,8-15.2,11.5
			c-1.2,0.7-2.3,1.3-3.3,1.8c0,0.1-0.1,0.2-0.1,0.2c0-0.1,0-0.1,0-0.2C85.5,119.7,85.3,119.7,85.2,119.8 M78.6,122c0,0,0-0.1,0-0.1
			c1.6-0.2,3.6-1,6.5-2.5c0,0.1,0,0.3,0,0.4C82.1,121.3,80.1,122,78.6,122 M78.6,121.3c0-0.1,0-0.1,0-0.2c1.6-0.3,3.6-1.2,6.5-2.7
			c0,0.1,0,0.3,0.1,0.4C82.2,120.3,80.1,121,78.6,121.3 M84.8,117.2c0.1,0.2,0.1,0.5,0.2,0.7c-2.9,1.5-5,2.4-6.5,2.7
			c0-0.2-0.1-0.3-0.1-0.5C79.9,119.7,81.9,118.7,84.8,117.2 M78.2,119.6c-0.1-0.3-0.2-0.5-0.3-0.8c1.5-0.6,3.5-1.6,6.3-3.1
			c0.2,0.3,0.3,0.7,0.4,1C81.7,118.3,79.7,119.2,78.2,119.6 M77,116.8c1.4-0.7,3.4-1.7,6.1-3.3c0.3,0.6,0.7,1.2,1,1.8
			c-2.8,1.5-4.8,2.5-6.3,3.1C77.5,117.9,77.3,117.4,77,116.8 M81.8,111.1c0.2,0.3,0.4,0.7,0.6,1c0.2,0.4,0.4,0.8,0.6,1.2
			c-2.8,1.5-4.7,2.6-6.1,3.3c-0.1-0.2-0.2-0.4-0.3-0.5c-0.3-0.5-0.6-0.9-0.8-1.4C77.1,113.9,79,112.7,81.8,111.1 M77.4,121.6
			c-0.8-0.6-2-2.2-3.1-4.2c-0.8-1.4-1.4-2.8-1.7-3.8c-0.2-0.5-0.2-0.9-0.2-1.2c0-0.1,0-0.2,0-0.3c0.1,0,0.2,0.1,0.4,0.2
			c0.8,0.6,2,2.2,3.1,4.2c0.8,1.4,1.4,2.8,1.7,3.8c0.2,0.5,0.2,0.9,0.2,1.2c0,0.1,0,0.2,0,0.3C77.7,121.8,77.6,121.7,77.4,121.6
			 M74.3,112.8c-0.1-0.1-0.2-0.2-0.2-0.3c-0.1-0.1-0.2-0.2-0.3-0.3c1.1-1.1,3-2.4,6-4.2c0.2,0.3,0.4,0.5,0.6,0.8
			C77.5,110.5,75.6,111.8,74.3,112.8 M74.6,113.1c1.2-1,3.1-2.2,6-3.9c0.4,0.6,0.7,1.2,1.1,1.8c-2.8,1.6-4.7,2.7-6,3.6
			C75.3,114,74.9,113.5,74.6,113.1 M79,107c0.2,0.2,0.3,0.4,0.5,0.6c-3,1.8-4.8,3.1-6,4.2c-0.1-0.1-0.3-0.2-0.4-0.3
			C74.1,110.3,75.9,108.9,79,107 M72.5,111.2c0.8-1.3,2.6-2.8,5.8-4.8c0.1,0.1,0.2,0.2,0.3,0.3c-3.1,1.9-4.9,3.3-6,4.6
			C72.6,111.3,72.6,111.3,72.5,111.2 M77.4,105.9c0.1,0,0.2,0.1,0.3,0.2c-3,1.9-4.8,3.4-5.8,4.8C72.7,109.5,74.3,107.9,77.4,105.9
			 M110.8,96.7c0,0,0-0.1,0-0.1l0.1-0.3l-0.3-0.1c-0.2-0.1-0.4-0.1-0.6-0.1c-6.4-1.9-17.8,0.7-29.2,7.2c-5.9,3.3-8.6,5.6-9.6,7.8
			c-0.7,1.6-0.3,3,0.5,4.7c0.3,0.6,0.6,1.2,1,1.9l0.1,0.2c0.4,0.7,0.8,1.3,1.1,1.9c1,1.6,2,2.7,3.5,3.1c0.2,0.1,0.3,0.1,0.5,0.1
			c2.3,0.2,5.6-1.1,11.4-4.3C101.1,111.7,109.4,103.1,110.8,96.7"/>
		<path class="st0" d="M152.9,24.7c14.8-2.3,22.1,1.4,22.1,1.4"/>
		<path class="st1" d="M152.9,24.3c14.8-2.3,22.2,1.4,22.3,1.5l-0.3,0.7c0,0-0.4-0.2-1.3-0.5c-0.9-0.3-2.3-0.7-4.1-1
			c-3.6-0.6-9.1-1-16.5,0.1l0,0L152.9,24.3z"/>
		<path class="st1" d="M73.4,69.4c11.6-8.7,24.1-17.8,37.8-26.2c13.7-8.3,27.6-15.2,41.7-18.5c-14.5,1.1-29.6,7.2-43.5,15.6
			C95.4,48.8,83.5,59.1,73.4,69.4"/>
		<path class="st1" d="M175,26.1c-3,11.2-11.6,20-20.7,27.6c-9.4,7.6-20.2,13.8-31.6,19.4c-11.5,5.5-23.1,10.2-34.5,14.3
			c-5.7,2-11.4,3.9-17.1,5.8l-0.1,0l-0.1,0l0,0l0,0c0.5,0.2-1.1-0.5,1.1,0.5l-0.1-0.2l-0.3-0.5l-0.6-0.9l-1.2-1.9l-2.4-3.7l-4.7-7.3
			l3.8,7.8l1.9,4l1,2l0.5,1l0.2,0.5l0.1,0.2c2.2,0.9,0.6,0.3,1.1,0.5l0,0l0,0l0.1,0l0.1,0c5.8-1.3,11.7-2.8,17.6-4.4
			c11.8-3.4,23.8-7.8,35.5-13.4c11.6-5.7,22.6-12.5,31.8-21C165.4,47.9,173.4,37.7,175,26.1"/>
		<path class="st0" d="M175,26.1c-1.5,11-8.6,20.5-16.6,28.4c-8.2,7.9-17.9,14.3-28.3,19.7c-10.4,5.3-21.4,9.8-32.9,13.5
			c-5.7,1.8-11.5,3.5-17.4,5.1c-2.7,0.6-6.4,1.9-8.3,1.9l-4.5-8l-4.5-8c1-1.6,4-4.1,5.9-6.1c4.4-4.2,8.9-8.3,13.4-12.2
			c9.1-7.8,18.7-14.9,28.7-21c10-6,20.5-11,31.5-13.9C153,22.7,164.8,21.7,175,26.1c-10.1-4.5-22-3.6-32.9-0.9
			C131,28,120.5,33,110.4,38.9c-10,6.1-19.6,13.1-28.8,20.9c-4.6,3.9-9.1,8-13.5,12.2c-2,2.3-4.9,3.8-6,6.8l4.5,8l4.5,8
			c3.2,0.5,6-1.1,9-1.6c5.9-1.6,11.7-3.3,17.4-5.1c11.4-3.8,22.5-8.2,32.9-13.6c10.4-5.5,20.1-11.9,28.2-19.9
			C166.6,46.7,173.6,37.1,175,26.1"/>
		<path class="st0" d="M175,26.1c-2.9,10.4-10.7,18.7-18.9,25.8c-8.4,7.2-17.9,13.1-27.9,18.4c-10.1,5.2-20.6,9.8-31.5,13.9
			c-5.5,2-11,3.9-16.6,5.7l-8.5,2.6l-1.1,0.3c1,0.5,0-0.4,0.1-0.6l-1.1-1.9l-2.2-3.9l-2.2-3.9l-1.1-1.9c-0.2,0-0.4-1.4-0.5-0.2
			l0.8-0.7l6.7-5.9c4.5-3.8,9-7.6,13.6-11.2c9.2-7.2,18.6-13.8,28.3-19.7c9.7-5.8,19.8-10.8,30.3-14.2
			C153.5,25.5,164.7,23.1,175,26.1c-10.3-3.1-21.5-1-32,2.2c-10.6,3.3-20.7,8.2-30.5,14c-9.8,5.8-19.3,12.4-28.5,19.6
			c-4.6,3.6-9.1,7.3-13.6,11.2l-6.7,5.9l-0.8,0.7c-0.3,1.7,0.2,1,0.3,1.7l1.1,1.9l2.2,3.9l2.2,3.9l1.1,1.9c0.5,0.4-0.3,0.5,1.3,1.1
			l1.1-0.3l8.5-2.6c5.6-1.8,11.2-3.8,16.6-5.8c10.9-4.1,21.5-8.8,31.6-14.1c10-5.4,19.5-11.5,27.8-18.8
			C164.6,45,172.3,36.5,175,26.1"/>
		<path class="st0" d="M73.4,69.4c11-9.4,23.3-19,37.1-27.4c13.8-8.4,28.2-14.9,42.5-17.3c-14.4,2.1-28.9,8.5-42.8,16.8
			C96.3,50,84.1,59.8,73.4,69.4"/>
		<path class="st0" d="M175,26.1c-2.4,11.4-10.7,20.8-19.8,28.8c-9.3,8-20.2,14.4-31.7,20.1c-11.6,5.6-23.3,10.1-35,13.9
			c-5.8,1.9-11.6,3.6-17.3,5.2c-2.9-4.4-5.8-10-8.7-14.8c2.9,4.9,5.3,10.4,8.7,15.1c5.7-1.5,11.5-3.2,17.4-5
			c11.7-3.7,23.5-8.2,35.1-13.8c11.5-5.7,22.4-12.2,31.7-20.3C164.5,47.1,172.8,37.5,175,26.1"/>
		<path class="st0" d="M72.5,95.5c-1.1,0.6-4.2-2.9-7-8c-2.8-5-4.2-9.6-3.1-10.2c1.1-0.6,4.2,3,7,8C72.2,90.3,73.6,94.9,72.5,95.5"
			/>
		<path class="st1" d="M71.6,94.8c0.5,0.3,0.7,0.3,0.7,0.3c0,0,0.2-0.2,0.2-0.8c0-0.5-0.2-1.3-0.4-2.2c-0.5-1.8-1.6-4.2-3-6.6
			c-2.1-3.7-4.4-6.6-5.7-7.5c-0.5-0.3-0.7-0.3-0.7-0.3c0,0-0.2,0.2-0.2,0.8c0,0.5,0.2,1.3,0.4,2.2c0.5,1.8,1.6,4.2,3,6.6
			C67.9,91,70.2,94,71.6,94.8 M61.6,78.5c0-0.6,0.1-1.2,0.6-1.5c0.5-0.3,1.1,0,1.6,0.3c0.5,0.4,1.1,0.9,1.8,1.7
			c1.3,1.5,2.8,3.6,4.2,6.2c2.1,3.8,3.4,7.3,3.5,9.2c0,0.6-0.1,1.2-0.6,1.5c-0.5,0.3-1.1,0-1.6-0.3c-0.5-0.4-1.1-0.9-1.8-1.7
			c-1.3-1.5-2.8-3.6-4.2-6.2C63,83.9,61.6,80.4,61.6,78.5"/>
		<path class="st0" d="M49.2,88.8c0.3-0.2,0.7-0.4,1-0.6"/>
		<path class="st1" d="M50.1,88.2l0.1,0.2c-0.3,0.2-0.7,0.4-1,0.6h0l-0.1-0.2C49.5,88.5,49.8,88.4,50.1,88.2"/>
		<path class="st1" d="M46.1,90.8c0.6-0.4,1.3-0.8,1.9-1.2"/>
		<path class="st1" d="M40.7,94.7c1-0.8,2-1.5,3-2.2"/>
		<path class="st0" d="M48.8,90.1c0.6-0.4,1.3-0.8,1.9-1.1"/>
		<path class="st1" d="M50.6,88.9l0.1,0.2c-0.6,0.4-1.3,0.7-1.9,1.1l0,0L48.7,90C49.3,89.6,50,89.3,50.6,88.9"/>
		<path class="st0" d="M50,90.2c0.8-0.5,1.7-1,2.5-1.5"/>
		<path class="st1" d="M52.4,88.6l0.1,0.2c-0.8,0.5-1.7,1-2.5,1.5l0,0l-0.1-0.2C50.8,89.6,51.6,89.1,52.4,88.6"/>
		<path class="st1" d="M45.2,93.4c1.1-0.8,2.2-1.6,3.3-2.3"/>
		<path class="st0" d="M66.2,99.2c1-0.4,1.9-0.4,2.5-1.4c0.4-0.5,0.7-1.1,1.1-1.7c0.3-0.2,0.6-0.5,0.8-0.7c0.1-0.1,0.2-0.1,0.3-0.2
			l-0.2,0.1c0.9-1,1.3-2.1,0.7-3.6l0.1,0c-0.1-0.3-0.2-0.5-0.4-0.8c-0.1-0.3-0.3-0.5-0.5-0.8c-0.2-0.3-0.3-0.6-0.5-0.9
			c-0.2-0.9-0.6-1.9-1.1-2.9c-0.5-0.8-1-1.5-1.6-2.1c-0.4-0.8-1-1.8-1.6-2.5c-0.1-0.3-0.2-0.6-0.4-0.8c-0.8-1.5-2.1-2.4-4.2-1.9
			c-2.8,0-5.1,0.6-6.9,3.1c-0.9,1.2-1.9,0.9-3.2,1.2c-1.6,0.4-2.2,0.9-2.7,2.7c0.8-0.6,1.5-0.9,2.4-0.8l-36.8,21.4l34.4-18.4
			c-0.1,0.1-0.1,0.3-0.1,0.4l-36.7,21.6L44,93c-0.3,0.3-0.7,0.7-1,1L9.2,113.9l30.7-16.4c-0.3,0.3-0.5,0.7-0.8,1L6.7,117.6
			l30.5-16.3c-0.2,0.3-0.3,0.6-0.5,0.8L4.2,121.3l31.6-16.8c0,0.2,0,0.3,0,0.5L5.2,123l32.4-17.3c0.3,0,0.6,0.1,0.9,0.1l-28.9,17
			l32.2-17.1c0.4,0,0.9-0.1,1.3-0.1l-29,17.1l33.4-17.8c0.5-0.1,1-0.2,1.5-0.3l-30.5,17.9l37.2-19.8c0.1,0,0.3,0.1,0.4,0.1L23,122.2
			l39.4-21.2l0,0c0.3-0.2,0.6-0.3,0.9-0.5c0.2,0.9-0.4,1.3-1,1.7c1.1,0.2,1.9,0,2.4-0.8C65.2,100.5,65.2,99.6,66.2,99.2 M71.3,125.3
			c1-0.5,2.1-1.3,3.5-2.4c1.7-1.4,2.5-3.9,1.1-6.3c-1.3-2.4-3.8-2.9-5.9-2.3c-1.8,0.5-3.2,1.1-4.3,1.6l0,0l-24.1,14l21.7-11.6
			c0,0.1-0.1,0.2-0.1,0.2l-23.2,13.6l20.3-10.9c-0.2,0.2-0.4,0.4-0.6,0.6l-21.3,12.5l19.4-10.4c-0.2,0.2-0.3,0.4-0.5,0.6l-20.5,12
			l19.2-10.3c-0.1,0.2-0.2,0.3-0.3,0.5l-20.5,12L54.9,128c0,0.1,0,0.2,0,0.3l-19.4,11.3l20.4-11c0.2,0,0.4,0,0.6,0l-18.3,10.7
			l20.3-10.9c0.3,0,0.5-0.1,0.8-0.1L41,139.2l21-11.3c0.3-0.1,0.6-0.2,1-0.2l-19.2,11.3l23.5-12.6c0.1,0,0.2-0.1,0.3-0.1
			c0.1,0,0.1,0,0.2,0l-21.3,12.5L71.3,125.3L71.3,125.3z M44.9,69.6c1.7-1.4,2.5-3.9,1.2-6.3c-1.3-2.4-3.8-2.9-5.9-2.3
			c-1.8,0.5-3.2,1.1-4.3,1.6l0,0l-24.1,14L33.3,65c0,0.1-0.1,0.2-0.1,0.2L10.1,78.8l20.3-10.9c-0.2,0.2-0.4,0.4-0.6,0.6L8.4,81
			l19.4-10.4c-0.2,0.2-0.3,0.4-0.5,0.6l-20.5,12L26,73c-0.1,0.2-0.2,0.3-0.3,0.5l-20.5,12L25,74.8c0,0.1,0,0.2,0,0.3L5.7,86.4
			l20.4-11c0.2,0,0.4,0,0.6,0L8.4,86.2l20.3-10.9c0.3,0,0.5-0.1,0.8-0.1L11.2,85.9l21-11.3c0.3-0.1,0.6-0.2,1-0.2L13.9,85.7
			l23.5-12.6c0.1,0,0.2-0.1,0.3-0.1c0.1,0,0.1,0,0.2,0L16.6,85.5l24.8-13.4l0,0C42.4,71.5,43.6,70.7,44.9,69.6"/>
	</g>
	<polygon class="st0" points="85.4,19.3 86,23.7 87.7,19.6 87.1,24 89.8,20.5 88.1,24.5 91.6,21.9 88.9,25.3 92.9,23.6 89.4,26.3 
		93.8,25.7 89.7,27.4 94.1,28 89.7,28.6 93.8,30.2 89.4,29.6 92.9,32.3 88.9,30.6 91.6,34.1 88.1,31.4 89.8,35.5 87.1,32 87.7,36.4 
		86,32.3 85.4,36.7 84.9,32.3 83.2,36.4 83.8,32 81.1,35.5 82.8,31.4 79.3,34.1 82,30.6 77.9,32.3 81.4,29.6 77,30.2 81.1,28.6 
		76.7,28 81.1,27.4 77,25.7 81.4,26.3 77.9,23.6 82,25.3 79.3,21.9 82.8,24.5 81.1,20.5 83.8,24 83.2,19.6 84.9,23.7 	"/>
	<polygon class="st0" points="133.9,107.9 135.1,110.5 137.9,110.9 135.9,112.8 136.4,115.6 133.9,114.3 131.4,115.6 131.9,112.8 
		129.9,110.9 132.6,110.5 	"/>
	<polygon class="st0" points="22.1,45.2 22.9,46.7 24.6,47 23.4,48.2 23.7,49.9 22.1,49.1 20.6,49.9 20.9,48.2 19.6,47 21.4,46.7 	
		"/>
	<polygon class="st0" points="131.9,13.2 131.5,14.1 130.6,14.2 131.2,14.9 131.1,15.8 131.9,15.4 132.7,15.8 132.6,14.9 
		133.3,14.2 132.3,14.1 	"/>
	<polygon class="st0" points="58.6,18.3 59,19.1 60,19.2 59.3,19.9 59.5,20.8 58.6,20.4 57.8,20.8 57.9,19.9 57.3,19.2 58.2,19.1 	
		"/>
	<polygon class="st0" points="143.5,81.6 143.9,82.5 144.8,82.6 144.2,83.2 144.3,84.2 143.5,83.7 142.6,84.2 142.8,83.2 
		142.1,82.6 143.1,82.5 	"/>
	<polygon class="st0" points="103.1,122.4 103.5,123.3 104.4,123.4 103.7,124.1 103.9,125 103.1,124.6 102.2,125 102.4,124.1 
		101.7,123.4 102.7,123.3 	"/>
</g>
</svg>
