<?xml version="1.0" encoding="utf-8"?>
<!-- Generator: Adobe Illustrator 22.0.0, SVG Export Plug-In . SVG Version: 6.00 Build 0)  -->
<svg version="1.1" id="Calque_1" xmlns="http://www.w3.org/2000/svg" xmlns:xlink="http://www.w3.org/1999/xlink" x="0px" y="0px"
	 viewBox="0 0 165 250" style="enable-background:new 0 0 165 250;" xml:space="preserve">
<style type="text/css">
	.st0{fill:#FFFFFF;}
</style>
<g>
	<path class="st0" d="M69.6,183.6c0.5,0.8,1.1,1.5,1.8,2.1c2.8,2.8,6.5,4.4,10.5,4.4c4,0,7.7-1.5,10.5-4.4c2.8-2.8,4.4-6.5,4.4-10.5
		c0-1.1-0.1-2.2-0.4-3.3c-0.5,0.2-0.9,0.4-1.4,0.6v7.4c0,0.4-0.2,0.9-0.5,1.2l-6.7,6.7c-0.3,0.3-0.7,0.5-1.2,0.5h-9.5
		c-0.4,0-0.9-0.2-1.2-0.5l-4.8-4.8C70.6,183.2,70.1,183.4,69.6,183.6z"/>
	<path class="st0" d="M57.1,93.3L57.1,93.3c0.3,0.1,0.6,0.2,0.9,0.3c0,0,0,0,0,0c0.1,0,0.1,0,0.1-0.1c0.1,0,0.1-0.1,0.1-0.2
		c-0.1-0.9-0.2-1.8-0.2-2.6c-0.1-1.2-0.3-2.5-0.5-3.7c0-0.1-0.1-0.2-0.2-0.2c-0.1,0-0.1,0-0.1,0c-0.1,0-0.1,0-0.2-0.1
		c-0.1,0-0.1,0-0.2,0c-0.1,0-0.1,0.1-0.1,0.2c-0.2,1.2-0.3,2.4-0.5,3.6c-0.1,0.7-0.1,1.4-0.2,2.1c0,0.1,0,0.1,0.1,0.2
		C56.4,93,56.8,93.2,57.1,93.3z"/>
	<path class="st0" d="M103.4,138.8c-0.1-0.1-0.3-0.1-0.4-0.2c-0.1-0.1-0.3-0.1-0.4-0.2c-0.7-0.3-1.3-0.6-1.8-0.9
		c-0.4-0.2-0.7-0.4-1-0.5c-0.1,0-0.2-0.1-0.2-0.1c-0.7-0.4-1.2-0.7-1.6-0.9c-0.1,0-0.1,0.1-0.2,0.1c-5.3,2.1-10.5,4.5-15.8,6.8
		c-0.2,0.1-0.4,0.2-0.6,0.3c-0.6,0.3-1.3,0.6-1.9,0.9c-2.9,1.3-5.8,2.6-8.7,3.8c-0.2,0.1-0.4,0.2-0.6,0.2c-0.3,0.1-0.5,0.2-0.8,0.3
		c-0.8,0.3-1.6,0.7-2.4,1c-1.7,0.7-3.4,1.4-5.2,2c-1.3,0.5-2.7,1-4,1.4c-0.1,0-0.2,0.1-0.3,0.1c-4,1.4-8,2.5-12.1,3.3
		c-0.2,0-0.4,0.1-0.6,0.1c-0.5,0.1-0.9,0.2-1.4,0.3c-0.1,0-0.2,0-0.3,0.1c-0.4,0.1-0.7,0.1-1.1,0.2c-0.4,0.1-0.8,0.1-1.2,0.2
		c-0.6,0.1-1.2,0.2-1.7,0.2c-1.3,0.2-2.6,0.3-4,0.3c-1,0.1-2,0.1-3.1,0.1h0v0.1v2.7v1.8v14.2v5.8v3.4h0c4.1,0,8.2-0.5,12.3-1.3
		c0.6-0.1,1.1-0.2,1.7-0.4c0.5-0.1,1.1-0.2,1.6-0.4c21.5-5.2,43.2-19,65-24.9c0.2-0.1,0.5-0.1,0.8-0.2v-4.2v-1.7v-0.8v-1.3v-8.2
		c-1.2-0.3-2.4-0.7-3.6-1.2C107.5,140.7,105.3,139.7,103.4,138.8z M78.2,152.6c0.1-0.3,0.3-0.7,0.5-1.1c0.1-0.3,0.3-0.6,0.4-0.8
		c0.4-0.7,0.8-1.4,1.4-2.3c0.8,0.4,1.9,1.3,2.8,2.1c0.3,0.2,0.5,0.5,0.7,0.7c-1.1,0.1-2.1,0.3-3.2,0.4c-0.1,0.1-0.2,0.2-0.3,0.3
		c-0.4,0.3-0.9,0.7-1.3,1c-0.5,0.4-1,0.8-1.5,1.1C77.9,153.6,78,153.1,78.2,152.6z M44,178c-0.1,0.1-0.3,0.2-0.4,0.4
		c-0.2,0.2-0.5,0.4-0.7,0.5c-0.2,0.2-0.5,0.3-0.8,0.4c-0.4,0.2-0.8,0.3-1.2,0.4c-0.1,0-0.8,0.1-1.5,0.2c-0.7,0.1-1.4,0.1-1.7,0.2
		c-0.9,0.1-1.7,0.2-2.6,0.3c0,0,0,0,0,0c0,0,0,0,0,0h0c0.1-0.1,0.1-0.2,0.2-0.3c0-0.1,0.1-0.1,0.1-0.2c0.3-0.7,0.5-1.3,0.5-1.8
		c0-0.2,0-0.3,0.1-0.4c0-0.1,0-0.1,0-0.1v-10v0c0-0.3-0.2-1.6-0.9-2.6c0,0,0,0,0,0c0,0,0,0,0,0c0,0,0,0,0,0c0,0,0,0,0,0c0,0,0,0,0,0
		c0.3,0,0.7-0.1,1-0.1c0,0,0.1,0,0.1,0c0,0,0,0,0,0c0,0,0,0,0,0c0.3,0,1.2-0.2,2.2-0.4c0.2,0,0.4-0.1,0.5-0.1
		c0.6-0.1,1.2-0.2,1.6-0.3c0.2,0,0.3-0.1,0.4-0.1c0.1,0,0.2,0,0.3-0.1c0.2,0,0.4,0,0.6-0.1c0.1,0,0.2,0,0.3,0c0,0,0.1,0,0.1,0
		c0.2,0,0.5,0.1,0.7,0.2c1.2,0.4,2.2,1.3,2.8,2.6c0.3,0.8,0.5,1.6,0.6,2.6c0,0.1,0,2.9,0,3c0,0.1,0,0.1,0,0.2c0,1.8-0.6,3.4-1.5,4.8
		C44.6,177.3,44.3,177.7,44,178z M58.2,162.7c-0.4-0.1-0.8-0.1-1.2-0.1c-0.7,0-1.4,0.2-1.5,0.2c0,0,0,0,0,0
		c-0.6,0.2-1.2,0.4-1.8,0.6c0,0,0,0,0,0c0,0,0,0,0,0h0h0v0v3.8c0.1,0,0.1,0,0.2-0.1c0.4-0.1,0.8-0.3,1.2-0.4c0,0,1.1-0.5,2.1-1.4
		c0,0,0.1-0.1,0.1-0.1v3.9c0,0,0,0,0,0c-0.3-0.1-0.6-0.1-0.9-0.1c-0.7,0-1.3,0.2-1.3,0.2c-0.4,0.1-0.8,0.3-1.2,0.4
		c-0.1,0-0.2,0.1-0.2,0.1v0v3.7h0c0,0,0,0,0,0.1c0,0,0,0,0,0c0.5-0.2,1.1-0.4,1.6-0.5c0.1,0,0.1,0,0.2-0.1c0,0,1.5-0.6,2.7-1.8
		c0,0,0,0,0,0c0,0,0,0.2,0.1,0.3c0.1,0.3,0.3,0.8,0.5,1.3l-1.2,2.2c0,0,0,0,0,0c-0.1,0-0.2,0.1-0.3,0.1c-0.5,0.2-1.1,0.4-1.6,0.6
		c0,0,0,0,0,0c-0.9,0.3-1.2,0.4-1.3,0.5c-0.2,0.1-0.4,0.1-1.4,0.4c0,0,0,0,0,0l0,0l0,0c-1.2,0.4-2.4,0.7-3.5,1.1
		c0.1-0.1,0.1-0.2,0.1-0.3c0.5-1,0.6-1.8,0.7-2.3c0-0.2,0-0.4,0-0.4v-10c0,0-0.1-1.6-1-2.7c0,0,0,0,0,0c0.8-0.2,1.7-0.5,2.5-0.7
		c0,0,0,0,0.1,0c0.8-0.3,1.7-0.5,2.5-0.8c0,0,0,0,0,0c0,0,0,0,0,0c0.6-0.2,1-0.3,2-0.7l2,0.8l0.7,0.3c-0.2,0.5-0.5,1-0.7,1.5
		c-0.1,0.2-0.2,0.3-0.2,0.4C58.2,162.6,58.2,162.7,58.2,162.7z M73.2,169.2c-0.7,0.3-1.3,0.6-2,0.9c0,0,0,0,0,0
		c-0.5,0.2-0.7,0.3-0.8,0.4c0.1-0.1-0.2,0.1,0,0c-0.1,0-0.3,0.1-0.8,0.4v0c-1.2,0.5-2.3,1-3.5,1.5c0.9-1.7,0.9-3.1,0.9-3.1v-10
		c0,0,0-1.4-0.9-2.4c0.3-0.1,0.5-0.2,0.8-0.3c0.3-0.1,0.5-0.2,0.8-0.3c0.7-0.3,1.5-0.6,2.2-0.9c0.5-0.2,1-0.4,1.4-0.6
		c-0.9,1.7-0.9,3.1-0.9,3.1l0,0v10l0,0c0,0,0,0,0,0.1c0.6-0.2,0.1,0,0.7-0.3c0,0,1.5-0.7,2.7-2.1c0,0.1,0.3,0.9,0.6,1.7c0,0,0,0,0,0
		L73.2,169.2z M75.1,155.8c-0.2,0.1-0.5,0.2-0.7,0.3c-0.1,0-0.2,0.1-0.3,0.1V151v-0.1v-0.4c0.1-0.1,0.3-0.1,0.4-0.2
		c0,0,0.1,0,0.1-0.1c0,0,0.1,0,0.1-0.1c0.7-0.4,1.7-0.8,2.2-1.1c0,0.1-0.1,0.3-0.2,0.6c-0.1,0.3-0.2,0.8-0.3,1.2
		c-0.1,0.2-0.1,0.5-0.2,0.7c0,0.1,0,0.2-0.1,0.2c-0.3,1.1-0.6,2.3-0.9,3.1c0,0,0,0,0,0C75.2,155.4,75.1,155.7,75.1,155.8z
		 M78.4,166.9C78.4,166.9,78.4,166.9,78.4,166.9C78.4,166.9,78.4,166.9,78.4,166.9c0.1-0.1,0.1-0.3,0.2-0.4c0.5-1.2,0.7-2.4,0.7-2.7
		c0,0,0-0.1,0-0.1v-6.1v0c0-0.2-0.1-0.8-0.4-1.5c-0.1-0.3-0.3-0.6-0.5-0.9c0,0,0,0,0,0c0,0,0,0,0,0c0.2-0.1,0.5-0.2,0.7-0.3
		c0,0,0.1,0,0.1-0.1c0.2-0.1,0.4-0.2,0.6-0.3c0.1,0,0.2-0.1,0.3-0.1c0.9-0.4,1.7-0.8,2.6-1.1v0c0.1-0.1,0.3-0.1,0.4-0.2
		c0.2-0.1,0.3-0.1,0.5-0.2c0,0,0,0,0,0.1c0,0,0,0,0,0c0,0.1-0.1,0.1-0.1,0.2c-0.7,1.5-0.8,2.9-0.8,2.9v0.6v5.4c0,0,0.1,1,0.5,1.9
		c0,0,0,0.1,0.1,0.1c0.1,0.1,0.2,0.2,0.3,0.4c0,0,0,0,0,0c0,0,0,0,0,0C81.8,165.4,80.1,166.2,78.4,166.9z M93.5,160.3
		c-0.7,0.3-1.5,0.6-2.2,0.9c0,0,0,0,0,0c0,0-0.1,0-0.1,0c-1.8,0.8-0.8,0.3-2.6,1.1c-0.7,0.3-1.4,0.6-2.1,0.9
		c0.8-1.6,0.8-2.9,0.9-3.1v-6.3v-1V151v-0.8c0-0.2,0-1.4-0.9-2.3c0.3-0.1,0.5-0.2,0.8-0.3c0,0,0.1,0,0.1,0v0
		c0.2-0.1,0.3-0.1,0.5-0.2c0.8-0.3,1.6-0.7,2.4-1c0.2-0.1,0.4-0.2,0.6-0.2v0c0.3-0.1,0.6-0.2,0.9-0.4c-0.9,1.7-0.9,3.1-0.9,3.1h0
		v0.8v2.4v0.8v6.1h0c0,0,0,0,0,0.1c0.1,0,0.2-0.1,0.3-0.1c0,0,1.5-0.7,2.7-2c0,0.1,0.3,1,0.6,1.8c0,0,0,0,0,0L93.5,160.3z
		 M104.8,156.1c-0.7,0.2-1.4,0.5-2.1,0.7c0,0,0,0,0,0c-1.8,0.6-1,0.4-2.3,0.8c-1.3,0.5-2.7,1-4,1.5c0.9-1.7,0.9-3.1,0.9-3.1v-3.6
		v-1.8v-2v-1.1v-1.7c0,0,0-0.9-0.5-1.8c-0.1-0.2-0.2-0.4-0.4-0.6c0.1,0,0.3-0.1,0.8-0.3c0.1,0,0.1,0,0.2-0.1
		c1.1-0.4,2.8-1.1,4.1-1.5c0.2-0.1,0.4-0.2,0.6-0.2c0.7,0.3,1.5,0.7,2.3,1c0.5,0.2,1,0.4,1.4,0.6c-0.1,0.1-0.1,0.3-0.2,0.4
		c-0.2,0.4-0.4,0.8-0.4,0.8c-1.3-0.3-2.7,0.3-2.7,0.3c-0.1,0-0.1,0.1-0.2,0.1c-0.4,0.2-0.8,0.3-1.2,0.5c-0.1,0.1-0.3,0.1-0.4,0.2
		v0.7v3.4c0.5-0.2,0.9-0.3,1.4-0.5c0,0,1.2-0.5,2.2-1.5v3v0.9c-1-0.3-2.2,0.1-2.2,0.1c-0.3,0.1-0.7,0.2-1,0.4
		c-0.1,0.1-0.3,0.1-0.4,0.2v2.9c0,0,0,0,0,0.1c0.6-0.2,1.2-0.4,1.8-0.6c0,0,1.5-0.6,2.7-1.8c0,0.1,0.3,1,0.6,1.8c0,0,0,0,0,0
		L104.8,156.1z"/>
	<path class="st0" d="M59.4,31.8c-0.6,0.4-1.1,0.8-1.7,1.3v2.5V42v1v1v4.5v9.8v0.1v3.9c0.7-0.5,1.4-1,2-1.5c0.5-0.3,1-0.6,1.5-0.9
		c0.7-0.4,1.3-0.7,2-0.9c9.3-3.7,18.7,1.3,28.1,7.4c0.7,0.5,1.4,0.9,2.1,1.4c0,0,0,0,0,0c0,0,0,0,0,0c0.5,0.4,1.1,0.7,1.6,1.1
		c7.6,5,15.3,10,22.8,11c-3.7-5-7.5-10.9-11.3-17.4c-0.3-0.5-0.2-1,0.2-1.2c5.6-2.2,11.2-5.6,16.7-11.8c-0.5,0.1-0.9,0.2-1.4,0.2
		C101.5,52,79.9,17.7,59.4,31.8z M73.6,33.3c3.2,0.6,6.3,1.8,9.5,3.4c-0.3,0.4-0.7,0.8-1.1,1.3c0.4,0.7,0.7,1.5,1.1,2.2
		c-2-1-4-1.9-6-2.6v4.2c0.9-0.1,1.7-0.2,2.6-0.2c0.5,1.2,1,2.5,1.5,3.8c-1.4,0-2.7,0.1-4.1,0.3v2v2v0.8c1,0.3,2,0.7,2.9,1.1
		c0.9,0.4,1.8,0.8,2.7,1.3c-0.1,0.1-0.1,0.2-0.2,0.4c-0.2,0.3-0.3,0.7-0.5,1c0.2,0.7,0.5,1.4,0.7,2.1c-2.9-1.4-5.8-2.6-8.6-3.2
		c-0.2,0-0.3-0.1-0.5-0.1v-0.2v-5.3v-2V33.3z M63.4,53.7c0-2,0-3.9,0-5.9c0-0.7,0-1.3,0-2c0-1.7,0-3.3,0-5c0-0.7,0-1.3,0-2
		c0-1.6,0-3.2,0-4.8v0c1.1-0.4,2.3-0.7,3.4-0.9v7.9v2v5.1v1.2c0.5-0.1,1-0.1,1.5-0.2c0.9-0.1,1.8-0.1,2.6,0
		c-0.2,0.5-0.4,0.9-0.5,1.4c0,0.1-0.1,0.2-0.1,0.3c0.2,0.6,0.4,1.2,0.6,1.8c-0.2,0-0.3,0-0.5,0C68.1,52.5,65.7,52.8,63.4,53.7z
		 M93.4,62.2c-0.8-0.1-1.6-0.5-2.5-1c-2.2-1.4-4-3.6-5-5.9c-0.4-0.8-0.6-1.6-0.7-2.4c0-0.3-0.1-0.6-0.1-0.9c0,0,0,0,0,0
		c0.6,0.6,1.1,1.3,1.7,1.9c0.6,0,1.2,0.1,1.8,0.1c0,0.4,0.1,0.8,0.3,1.2c0.4,1,1.2,2,2.1,2.6c0.7,0.4,1.3,0.5,1.8,0.3
		c0.4-0.2,0.6-0.6,0.6-1.1c0-0.9-0.3-1.6-1.2-2.8c-0.6-0.8-1.3-1.6-1.9-2.4c-0.7-0.8-1.3-1.6-2-2.5c0,0,0,0,0,0
		c-0.8-0.9-1.4-2-1.8-3c-0.5-1-0.7-2-0.7-2.9c0-2.9,2.4-3.9,5.3-2c1.4,0.9,2.7,2.3,3.7,3.9c-0.7-0.3-1.4-0.5-2.1-0.8
		c-0.1,0.6-0.2,1.1-0.3,1.7c-0.3-0.5-0.8-1-1.3-1.3c-1-0.6-1.8-0.3-1.8,0.7c0,0.4,0.1,0.7,0.2,1c0.1,0.3,0.3,0.7,0.7,1.2
		c0.6,0.8,1.3,1.6,1.9,2.4c0.7,0.8,1.3,1.7,2,2.5c0,0,0,0,0,0c1.6,2.1,2.8,4.6,2.7,6.7c0,1.6-0.6,2.6-1.7,3
		C94.5,62.3,94,62.3,93.4,62.2z"/>
	<path class="st0" d="M57.6,65.8c0,0.1-0.1,0.3-0.1,0.4c0,0,0,0,0,0c0,0.3,0,0.5,0,0.6c0,0,0,0,0,0.1c0,0.1,0,0.1,0,0.2
		c0,0.1,0,0.2,0.1,0.3c0.1,0.3,0.1,0.5,0.3,0.8c0,0,0,0,0,0c0,0,0,0,0,0.1c0.1,0.2,0.1,0.3,0.2,0.5c0,0,0.1,0.1,0.1,0.1
		c0.1,0.1,0.1,0.3,0.2,0.4c0,0.1,0.1,0.1,0.1,0.2c0.1,0.1,0.1,0.2,0.2,0.3c0.1,0.1,0.1,0.2,0.2,0.2c0.1,0.1,0.2,0.2,0.2,0.3
		c0.1,0.1,0.2,0.2,0.2,0.3c0.1,0.1,0.2,0.2,0.3,0.3c0.1,0.1,0.2,0.2,0.3,0.3c0.1,0.1,0.2,0.2,0.3,0.3c0.1,0.1,0.2,0.2,0.4,0.3
		c0.1,0.1,0.2,0.2,0.3,0.3c0.1,0.1,0.3,0.2,0.4,0.3c0,0,0,0,0,0c0.1,0,0.1,0.1,0.2,0.1c0,0-0.1-0.1-0.1-0.1c-0.1,0-0.1-0.1-0.2-0.1
		c0,0,0,0,0,0c0,0,5.3,4.1,14.3,5.1c4.9,0.5,8.3,3.1,10.1,5c1.1,1.1,1.7,2,1.7,2s-0.1-0.1-0.3-0.2c0,0-0.1-0.1-0.1-0.1
		c-0.1,0-0.2-0.1-0.3-0.1c-0.1,0-0.2-0.1-0.2-0.1c-0.1-0.1-0.2-0.1-0.3-0.2c-0.1-0.1-0.2-0.1-0.3-0.2c-0.1-0.1-0.2-0.1-0.3-0.2
		c-0.1-0.1-0.3-0.1-0.4-0.2c-0.1-0.1-0.2-0.1-0.4-0.2c0,0,0,0,0,0c-0.1-0.1-0.3-0.2-0.5-0.2c-0.1-0.1-0.3-0.1-0.4-0.2
		c-0.2-0.1-0.4-0.2-0.5-0.3c-0.1-0.1-0.3-0.1-0.4-0.2c-0.2-0.1-0.4-0.2-0.6-0.3c-0.1-0.1-0.3-0.1-0.4-0.2c-0.2-0.1-0.4-0.2-0.6-0.3
		c-0.2-0.1-0.3-0.1-0.5-0.2c-0.2-0.1-0.4-0.2-0.7-0.3c-0.2-0.1-0.3-0.1-0.5-0.2c-0.2-0.1-0.5-0.2-0.7-0.2c-0.2-0.1-0.3-0.1-0.5-0.2
		c-0.2-0.1-0.5-0.2-0.7-0.2c-0.2-0.1-0.3-0.1-0.5-0.1c-0.2-0.1-0.5-0.1-0.7-0.2c-0.2,0-0.3-0.1-0.5-0.1c-0.2-0.1-0.5-0.1-0.7-0.2
		c-0.2,0-0.4-0.1-0.5-0.1c-0.2,0-0.5-0.1-0.7-0.1c-0.1,0-0.1,0-0.2,0c0,0,0,0,0,0c0.3,0.1,0.5,0.3,0.8,0.4c0.1,0.1,0.2,0.1,0.3,0.2
		c2.6,1.5,5.9,3.3,8.6,5c1.1,0.7,2.1,1.3,3.1,2c1.3,0.8,2.5,1.6,3.8,2.4c0.3,0.2,0.6,0.4,0.9,0.6c0.2,0.1,0.5,0.3,0.7,0.5
		c0.2,0.1,0.5,0.3,0.7,0.5c0,0,0,0,0,0c0-0.1,0-0.2,0-0.3c0-0.2,0-0.4,0-0.5c0,0,0,0,0,0c0,0,0-0.1,0-0.1l0-0.2v0
		c0-0.5-0.1-1.1-0.2-1.7c-0.1-0.4-0.2-0.8-0.3-1.2c-0.4-1.2-0.9-2.5-1.8-3.8c-1.8-2.6-4.9-5.2-10.2-7.2c-1.9-0.7-5.4-1.2-7.8-1.6
		c-0.5-0.1-1.1-0.2-1.5-0.3c-0.1,0-0.2-0.1-0.4-0.1c-0.4-0.1-0.8-0.2-1.1-0.3c-0.1,0-0.2,0-0.3-0.1c-0.4-0.1-0.9-0.2-1.2-0.4
		c0,0-0.1,0-0.1,0c-0.4-0.1-0.7-0.2-1-0.4c0,0-0.1,0-0.1,0c0,0,0,0,0,0c-3-1.4-4.7-3.5-5.4-4.5c0,0,0,0,0,0c0.1,0,0.1,0,0.2,0.1
		c2.5,1.2,4.5,3.1,11.2,4.3c2.4,0.4,5.9,0.8,8.1,1.6c5.6,2.1,9,4.9,11,7.8c0.4,0.6,0.7,1.2,1,1.8c0.1,0.3,0.3,0.5,0.4,0.8
		c0.2,0.4,0.3,0.8,0.5,1.2c0,0,0,0,0,0l-0.1-11.4v0l0,0l-0.8-0.8l-0.4-0.4l-4.8-4.4L87,68.4l0,0c0,0,3.3,1.9,4.6,2.7
		c0.1,0,0.2,0.1,0.2,0.1c0,0,0.1,0.1,0.2,0.1c0.1,0,0.2,0.1,0.2,0.1c0.2,0.1,0.4,0.2,0.6,0.3c0.2,0.1,0.3,0.2,0.5,0.3c0,0,0,0,0,0
		c0,0,0.1,0,0.1,0.1c0,0,0.1,0,0.1,0.1l0.3,0.2l0.2,0.1l0,0c0.4,0.2,0.7,0.4,1.1,0.6c11.7,6.8,15.9,7.2,16.9,7.2c-5-1.8-10-5-15-8.2
		c-0.7-0.5-1.4-0.9-1.9-1.2c-0.4-0.3-0.8-0.5-1.1-0.7l0,0c-0.1-0.1-0.3-0.2-0.4-0.3c-0.1,0-0.1-0.1-0.2-0.1
		c-0.3-0.2-0.5-0.4-0.8-0.5c-0.3-0.2-0.5-0.3-0.8-0.5c-9.7-6.3-19.5-11.6-29-7.6c-0.8,0.4-1.7,0.8-2.5,1.3c0,0,0,0.1-0.1,0.1
		c0,0,0,0,0,0c-0.1,0.1-0.1,0.1-0.2,0.2c0,0,0,0,0,0c-0.1,0.1-0.2,0.2-0.4,0.3c0,0,0,0,0,0c0,0,0,0,0,0c-0.2,0.2-0.4,0.3-0.6,0.5
		c0,0-0.1,0.1-0.1,0.1c-0.2,0.2-0.3,0.3-0.5,0.5c0,0,0,0,0,0.1c-0.1,0.2-0.2,0.3-0.3,0.5c0,0,0,0.1-0.1,0.1
		c-0.1,0.2-0.2,0.3-0.2,0.5c0,0,0,0,0,0.1C57.7,65.5,57.6,65.6,57.6,65.8C57.6,65.8,57.6,65.8,57.6,65.8z"/>
	<path class="st0" d="M49,58.6c-0.9,0-1.5,0.7-1.5,1.5c0,0.9,0.7,1.5,1.5,1.5c0.9,0,1.5-0.7,1.5-1.5C50.6,59.3,49.9,58.6,49,58.6z"
		/>
	<polygon class="st0" points="61.3,215.4 61.3,215.4 59.5,217.2 60.9,217.9 	"/>
	<path class="st0" d="M125.4,148.7c0.6-0.3,0.8-1.1,0.4-1.7c-0.3-0.6-1.1-0.8-1.7-0.4c-0.6,0.3-0.8,1.1-0.5,1.7
		C124.1,148.8,124.8,149,125.4,148.7z"/>
	<path class="st0" d="M117.7,148.2c0.3-0.6,0.1-1.3-0.4-1.7c-0.6-0.3-1.3-0.1-1.7,0.4c-0.3,0.6-0.1,1.3,0.4,1.7
		C116.7,149,117.4,148.8,117.7,148.2z"/>
	<path class="st0" d="M122,148.7c0-0.7-0.5-1.2-1.2-1.2c-0.7,0-1.2,0.5-1.2,1.2c0,0.7,0.5,1.2,1.2,1.2
		C121.4,149.9,122,149.4,122,148.7z"/>
	<path class="st0" d="M128.8,145.3c0.3-0.6,0.1-1.3-0.4-1.7c-0.6-0.3-1.3-0.1-1.7,0.4c-0.3,0.6-0.1,1.3,0.4,1.7
		C127.7,146,128.5,145.8,128.8,145.3z"/>
	<path class="st0" d="M109.3,164.5c1.3-0.4,2.6-0.8,4-1.1v0v-2.7c-0.3,0.1-0.5,0.1-0.8,0.2c-0.2,0.1-0.4,0.1-0.7,0.2
		c-19.5,5.5-39.2,17.4-59.1,23.3c-1.4,0.4-2.8,0.8-4.3,1.1c-0.3,0.1-0.6,0.2-0.9,0.2c-0.3,0.1-0.5,0.1-0.8,0.2
		c-0.6,0.1-1.1,0.3-1.7,0.4c-4.4,0.9-8.7,1.4-13.1,1.4c0,0,0,0,0,0v2.3c5,0,9.8-0.6,14.7-1.6c0.7-0.1,1.3-0.3,2-0.4
		c1-0.2,2-0.5,3-0.7c2.2-0.6,4.4-1.3,6.6-2c2.1-0.7,4.2-1.5,6.3-2.3c0.4-0.2,0.8-0.3,1.2-0.5c2.3-0.9,4.6-1.8,6.8-2.8
		c1.1-0.5,2.2-0.9,3.3-1.4c5.4-2.3,10.7-4.8,16-7.1c2.2-1,4.5-1.9,6.7-2.8c0.4-0.2,0.8-0.3,1.2-0.5c2.1-0.8,4.2-1.6,6.4-2.3
		C107.1,165.2,108.2,164.8,109.3,164.5z"/>
	<path class="st0" d="M114.7,101.7C114.7,101.7,114.7,101.7,114.7,101.7c0.5,0.1,0.9,0.3,1.3,0.4c0,0,0.1-0.1,0.1-0.1
		c0.1-0.1,0.2-0.2,0.3-0.3c0.1-0.1,0.2-0.2,0.4-0.3c0.1-0.1,0.2-0.1,0.2-0.2c0.1-0.1,0.3-0.2,0.4-0.2c0,0,0.1,0,0.1,0c0,0,0,0,0.1,0
		c0.1,0,0.1-0.1,0.2-0.1c0.2-0.1,0.4-0.2,0.7-0.2c0,0,0.1,0,0.1,0c0.3-0.1,0.5-0.1,0.8-0.1c0,0,0,0,0,0c0,0,0,0,0,0
		c0.3,0,0.5,0,0.8,0.1c0,0,0,0,0,0c0,0,0,0,0,0c0.1,0,0.1,0,0.2,0.1c0.2,0,0.3,0.1,0.5,0.1c0.1,0,0.2,0.1,0.3,0.1
		c0.1,0,0.2,0.1,0.2,0.1c0.1,0,0.1,0.1,0.2,0.1c0.1,0.1,0.2,0.1,0.3,0.2c0.1,0.1,0.2,0.2,0.3,0.3c0.1,0.1,0.2,0.2,0.3,0.2
		c0.1,0.1,0.2,0.2,0.3,0.3c0.2,0.2,0.3,0.4,0.4,0.6c0.1,0.1,0.1,0.2,0.2,0.3c0.1,0.1,0.1,0.3,0.2,0.4c0,0,0,0,0,0
		c0,0.1,0.1,0.1,0.1,0.2c0.9,0.1,1.8,0.1,2.7,0.1c0.2,0,0.3,0,0.5,0c-0.3-1.8-1.2-3.4-2.5-4.5c0,0,0,0-0.1-0.1
		c-0.1-0.1-0.3-0.2-0.4-0.3c-0.1,0-0.1-0.1-0.2-0.1c-0.1-0.1-0.2-0.2-0.4-0.2c-0.1,0-0.2-0.1-0.2-0.1c-0.1-0.1-0.2-0.1-0.3-0.2
		c-0.1,0-0.2-0.1-0.3-0.1c-0.1,0-0.2-0.1-0.3-0.1c-0.1,0-0.2-0.1-0.4-0.1c-0.1,0-0.2-0.1-0.3-0.1c-0.1,0-0.3-0.1-0.4-0.1
		c-0.1,0-0.2,0-0.3-0.1c-0.2,0-0.3-0.1-0.5-0.1c-0.1,0-0.1,0-0.2,0c-0.2,0-0.4,0-0.6,0c-0.1,0-0.1,0-0.2,0c0,0,0,0,0,0
		c-0.3,0-0.6,0-0.8,0.1c-0.1,0-0.2,0-0.3,0c-0.1,0-0.1,0-0.2,0c-0.2,0-0.3,0.1-0.4,0.1c-0.1,0-0.2,0-0.2,0.1
		c-0.6,0.2-1.1,0.4-1.6,0.7c0,0,0,0,0,0c-0.1,0.1-0.2,0.1-0.2,0.2c-0.2,0.1-0.3,0.2-0.5,0.4c0,0,0,0,0,0c-0.7,0.6-1.3,1.3-1.8,2.1
		c0,0,0,0,0,0.1c0,0,0,0,0.1,0c0,0,0.1,0,0.1,0C113.6,101.4,114.2,101.6,114.7,101.7z"/>
	<path class="st0" d="M83.8,131.7C83.8,131.7,83.8,131.7,83.8,131.7C83.9,131.7,83.8,131.7,83.8,131.7
		C83.9,131.7,83.9,131.6,83.8,131.7c0.1-0.1,0.1-0.1,0.2-0.1c0-0.1,0.1-0.2,0.2-0.3c0,0,0.1-0.2,0.4-0.4c0.3-0.2,0.7-0.4,1.2-0.4
		c0.5,0,0.9,0.2,1.2,0.4c0.3,0.2,0.4,0.4,0.4,0.4c0.1,0.2,0.2,0.3,0.3,0.3c0,0,0,0,0.1,0c0.1,0,0.1-0.1,0.1-0.1l0,0c0,0,0-0.2,0-0.4
		c0-0.2-0.1-0.9-0.2-1.2c0,0-0.6-1-1.7-1c-1.1,0-1.7,1-1.7,1c-0.2,0.3-0.2,1-0.2,1.2L83.8,131.7C83.7,131.6,83.7,131.6,83.8,131.7
		C83.8,131.7,83.8,131.7,83.8,131.7z"/>
	<path class="st0" d="M57.7,31.2c0.5-0.4,1.1-0.9,1.6-1.2C77.6,17.4,96.6,43,115.1,47.5c3,0.7,5.9,0.9,8.9,0.2c0,0,0,0,0-0.1
		c-0.1,0-0.2,0-0.3,0.1c0.2-0.1,0.4-0.3,0.3-0.4c0-0.1-0.2-0.1-0.4-0.2c-0.3-0.1-3.2-0.3-6.3-1c-4.1-0.8-7.7-2.5-11.9-5.1
		c-0.1,0-0.1-0.1-0.2-0.1c-3.2-2-6.2-4-9.4-6c-1-0.7-2-1.3-3.1-2c-7.4-4.6-14.6-8.6-21.6-8.8c-4.2-0.1-9.3,0.4-13.8,4.3
		c0,0.9,0,1.9,0.1,2.8C57.5,31.3,57.6,31.2,57.7,31.2z"/>
	<path class="st0" d="M97.9,89.6c-1.4,0.6-2.6,1.1-3.6,1.6l-0.1,0.3c0,0,0,0,0,0c0.6,0.3,1.1,0.7,1.7,1c0.3,0.2,0.5,0.3,0.8,0.5
		c0.2-0.1,0.4-0.2,0.5-0.2c0.4-0.2,0.8-0.4,1.2-0.5c0.3-0.1,0.5-0.2,0.8-0.3c0.4-0.2,0.7-0.3,1.1-0.5c0.3-0.1,0.5-0.2,0.8-0.3
		c0.3-0.1,0.7-0.3,1-0.4c0.3-0.1,0.5-0.2,0.8-0.3c0.3-0.1,0.6-0.2,0.9-0.3c0.3-0.1,0.6-0.2,0.9-0.3c0.3-0.1,0.6-0.2,0.9-0.3
		c0.3-0.1,0.6-0.2,1-0.3c0.3-0.1,0.5-0.1,0.8-0.2c0.4-0.1,0.8-0.2,1.2-0.2c0.2,0,0.4-0.1,0.7-0.1c0.1,0,0.2,0,0.3,0
		c0.5-0.1,1-0.2,1.5-0.2c0,0,0.1,0,0.1,0c0.2,0,0.4,0,0.6,0c1.8-0.2,3.5-0.3,5.1-0.3c1.3,0,2.5,0.1,3.7,0.2c0,0,0,0,0.1,0
		c1.2,0,3.1,0.3,3.1,0c0,0,0,0,0,0c0-0.1-0.1-0.1-0.3-0.2c-3.7-1-7.2-1.4-10.4-1.4C106.6,86.7,101.5,88.2,97.9,89.6z"/>
	<path class="st0" d="M137.5,192.9h-19.7l-0.1,0c-6.6,13.3-20.3,22.5-36.2,22.5c-7.9,0-15.2-2.3-21.4-6.2
		c-6.2-3.9-11.3-9.5-14.7-16.1c0-0.1-0.1-0.1-0.1-0.2l-0.1,0.1v0H25.7l6.2,6.1l-6.2,6.6h0.4h10.6l-1.7-5.2c0.2,0.3,0.3,0.6,0.5,0.8
		c4.5,7.9,10.9,14.5,18.7,19.2c8,4.8,17.4,7.6,27.4,7.6c20.1,0,37.6-11.2,46.6-27.7l-0.5,1.4l-1.3,3.8h0.3h10.7l-6.2-6.6l6.1-6
		L137.5,192.9z M120.6,207.8c-0.6,0.7-1.4,1.2-2.3,1.5l-0.7-1.7c0.6-0.1,1.3-0.3,1.7-0.8c0.3-0.3,0.4-0.9,0-1.2
		c-0.4-0.3-1.1,0.1-1.4,0.4c-1.1,0.7-1.8,1.1-2.9,0.2c-1.2-1-1.2-2.5-0.3-3.6c0.5-0.6,1.3-1.1,2-1.4l0.7,1.6
		c-0.5,0.1-0.9,0.3-1.2,0.7c-0.2,0.3-0.4,0.8-0.1,1c0.3,0.3,0.8,0,1.1-0.2l0.4-0.3c0.9-0.6,1.8-0.9,2.8-0.1c0.6,0.5,1,1.1,1.1,1.9
		C121.4,206.5,121.1,207.2,120.6,207.8z M46.5,204.3l-3.4,3.1l-1.3-1.5l5.6-5l1.3,1.5l-1.1,5.7l0,0L51,205l1.3,1.5l-5.6,5l-1.3-1.5
		L46.5,204.3L46.5,204.3z M58.3,218.3l-1.1,0.9l-1.8-0.9l6-5.4l1.9,1l-0.9,8l-1.9-1l0.2-1.4L58.3,218.3z M80.4,225.7l-1.9-0.2
		l-3.1-4.9l0,0l-0.5,4.6l-1.9-0.2l0.8-7.5l1.9,0.2l3.1,4.9l0,0l0.5-4.6l1.9,0.2L80.4,225.7z M105.8,214.2l1.9-1.2l0.9,1.4l-1.9,1.2
		l0.7,1.1l2-1.2l0.9,1.4l-3.6,2.2l-4-6.4l3.6-2.2l0.9,1.4l-2,1.2L105.8,214.2z M94.9,223.9l-1.9,0.5l-1.4-5.7l-1.6,0.4l-0.4-1.6
		l5-1.2l0.4,1.6l-1.6,0.4L94.9,223.9z"/>
	<path class="st0" d="M137.5,138.4L137.5,138.4c-0.1,0-0.1,0-0.2,0c-0.8,0.3-1.6,0.5-2.3,0.8c-1.1,0.3-2.2,0.6-3.3,0.7
		c-1.8,0.3-3.7,0.5-5.5,0.5h0c-3.7,0-7.4-0.6-11.1-1.7c0,0,0,0-0.1,0c0,0,0,0,0,0c-0.6-0.2-1.2-0.4-1.7-0.6c-0.1,0-0.2-0.1-0.3-0.1
		c-1.3-0.4-2.6-0.9-4-1.5c-0.4-0.2-0.8-0.3-1.2-0.5c-0.5-0.2-0.9-0.4-1.4-0.6c-0.6-0.3-1.1-0.5-1.7-0.8c-0.5-0.2-1-0.5-1.5-0.7
		c-0.5-0.2-1-0.5-1.5-0.7c-0.6-0.3-1.1-0.6-1.7-0.9c-0.2-0.1-0.4-0.2-0.7-0.3c-1.2-0.6-2.4-1.3-3.6-2c-0.6-0.3-1.2-0.7-1.7-1
		c-3.5-2-6.9-4.2-10.3-6.4c-0.1-0.1-0.2-0.1-0.3-0.2c-0.9-0.6-1.8-1.1-2.6-1.7c-2-1.3-4-2.5-6-3.7c-0.4-0.3-0.9-0.5-1.3-0.8
		c-0.3-0.2-0.5-0.3-0.8-0.5c-0.3-0.2-0.6-0.3-0.8-0.5c-0.3-0.2-0.6-0.3-0.8-0.5c-0.3-0.2-0.6-0.3-0.8-0.5c-0.2-0.1-0.4-0.2-0.5-0.3
		c-0.5-0.3-1-0.6-1.5-0.9c-0.6-0.3-1.2-0.7-1.8-1c-2.4-1.3-4.9-2.5-7.3-3.5c-1.2-0.5-2.3-0.9-3.5-1.3c-4.7-1.7-9.3-2.7-14-2.7
		c-2.8,0-5.6,0.4-8.4,1.2c-0.2,0.1-0.5,0.1-0.7,0.2c-0.4,0.1-0.8,0.3-1.2,0.4c0,0,0,0,0,0c-0.1,0.1-0.1,0.1-0.2,0.2
		c-0.2,0.3-0.4,0.6-0.4,0.9c0,0.1,0,0.1,0,0.2c0,0.1,0,0.2,0.1,0.3c0.1,0.2,0.2,0.4,0.4,0.6c0.2,0.2,0.5,0.5,0.8,0.8
		c0.2,0.1,0.4,0.3,0.6,0.5c0.2,0.2,0.5,0.3,0.7,0.5c0.6,0.4,1.4,0.8,2.3,1.2c0.3,0.1,0.6,0.3,1,0.4c2.2,0.9,5.2,2,9.2,3
		c0.8,0.2,1.5,0.4,2.2,0.7c0.2,0.1,0.3,0.1,0.5,0.2c0.7,0.2,1.3,0.4,2,0.7c0,0,0.1,0,0.1,0c0,0,0,0,0,0c-0.2,0.1-0.5,0.3-0.7,0.4
		c-0.1,0-0.1,0.1-0.2,0.1c-0.2,0.1-0.5,0.3-0.7,0.5c-0.1,0-0.1,0.1-0.2,0.1c-1.9,1.2-3.9,2.7-4.6,3.2c-0.1,0.2-0.1,0.5-0.2,0.8
		c0,0.1,0,0.2,0,0.2c0.5-0.2,1.1-0.4,1.8-0.7c0.1,0,0.1-0.1,0.2-0.1l5.4-2.4l1.4-0.6l0.6-0.2l0,0l0.1,0c0,0,0.1,0,0.1-0.1
		c0.1,0,0.2-0.1,0.2-0.1l0,0l0.1,0c0.2-0.1,0.5-0.2,0.7-0.3c0.3-0.1,0.6-0.2,0.9-0.4c0.3-0.1,0.6-0.2,0.8-0.4
		c-0.3-0.2-0.6-0.3-0.9-0.5c-0.1,0-0.2-0.1-0.3-0.1c-0.3-0.1-0.6-0.3-0.9-0.4c-0.1-0.1-0.3-0.1-0.4-0.2c-0.2-0.1-0.5-0.2-0.7-0.3
		c-0.2-0.1-0.4-0.2-0.6-0.3c-0.2-0.1-0.3-0.1-0.5-0.2c-0.3-0.1-0.6-0.2-0.9-0.4c0,0-0.1,0-0.2-0.1c-1.4-0.5-3-1-4.6-1.5
		c-0.1,0-0.3-0.1-0.4-0.1c-0.4-0.1-0.8-0.2-1.2-0.3c-0.2-0.1-0.4-0.1-0.6-0.2c-0.3-0.1-0.6-0.2-0.9-0.3c-0.2-0.1-0.4-0.1-0.6-0.2
		c-0.3-0.1-0.6-0.2-0.8-0.3c-0.2-0.1-0.4-0.1-0.5-0.2c-0.3-0.1-0.5-0.2-0.8-0.3c0,0,0,0,0,0c-0.1,0-0.3-0.1-0.4-0.1
		c-0.4-0.1-0.7-0.3-1.1-0.4c-0.1-0.1-0.3-0.1-0.4-0.1c-0.2-0.1-0.5-0.2-0.7-0.3c-0.2-0.1-0.3-0.1-0.5-0.2c-0.1,0-0.2-0.1-0.3-0.1
		c0,0,0,0,0,0c-1.9-1-2.1-1.7-2.1-1.7s-0.2-0.2,0.8,0.1c0,0,0,0,0,0c0.8,0.2,4.3,1.3,7.3,2.1c0.9,0.2,1.8,0.4,2.5,0.6c0,0,0,0,0,0
		c0.4,0.1,0.7,0.2,1.1,0.3c0.1,0,0.2,0,0.2,0.1c0.6,0.2,1.2,0.3,1.8,0.5c0.2,0,0.3,0.1,0.5,0.1c0.4,0.1,0.9,0.3,1.3,0.4
		c0.2,0.1,0.4,0.1,0.5,0.2c0.4,0.1,0.8,0.3,1.1,0.4c0.2,0.1,0.3,0.1,0.5,0.2c0.4,0.1,0.7,0.3,1.1,0.4c0.2,0.1,0.3,0.1,0.5,0.2
		c0.4,0.2,0.7,0.3,1.1,0.5c0.1,0.1,0.3,0.1,0.4,0.2c0.4,0.2,0.7,0.3,1.1,0.5c0.1,0.1,0.2,0.1,0.3,0.2c0.4,0.2,0.7,0.4,1.1,0.6
		c0.1,0,0.2,0.1,0.2,0.1c0.1,0,0.1,0.1,0.2,0.1c0,0,0,0,0,0c1.2-0.5,2.4-1,3.5-1.5l-0.1-0.1l-7.1-4.6c1,0.3,2,0.7,3,1.1l6,2.7
		l0.2,0.1c0.5,0.3,1.1,0.6,1.7,0.9c0.4,0.2,0.7,0.4,1.1,0.6c1.2,0.6,2.4,1.3,3.6,2c0,0,0,0,0,0l0,0c0,0,0.1,0,0.1,0.1
		c0.3,0.2,0.6,0.3,0.8,0.5c0.1,0.1,0.2,0.1,0.3,0.2h0c0,0,0,0,0,0c0,0,0,0-0.1,0.1c-0.1,0.1-0.1,0.1-0.2,0.2
		c-0.3,0.3-0.6,0.6-0.8,0.8c-0.8,0.8-1.5,1.7-2.1,2.7c-0.3,0.5-0.6,0.9-0.9,1.4c0,0,0,0.1-0.1,0.1c-0.3,0.5-0.5,1-0.8,1.5
		c-0.3,0.6-0.5,1.2-0.7,1.8c-0.2,0.6-0.4,1.2-0.5,1.8c-0.4,1.6-0.6,3.3-0.6,5.1c0,4.2,1.2,8,3.3,11.3c-0.1,0-0.2,0.1-0.3,0.1
		c-0.1,0-0.2,0.1-0.4,0.1c-0.8,0.3-1.5,0.6-2.3,0.9c0,0,0,0,0,0l0.1-0.2v0l-0.3,0l-3.2,0.5c-0.2,0-0.5-0.1-0.6-0.3
		c-0.1-0.2-0.1-0.4,0-0.6l1.3-1.6l0.9-1.1l-3.5-0.1c-0.1,0-0.2,0-0.2-0.1c-0.1-0.1-0.2-0.2-0.3-0.3c0-0.1,0-0.2,0-0.4
		c0-0.1,0.1-0.2,0.1-0.2l1-0.9l1.6-1.5l-2-0.4l-1.4-0.3c-0.1,0-0.1,0-0.1-0.1c-0.2-0.1-0.3-0.2-0.3-0.4c0-0.2,0.1-0.5,0.3-0.6
		l0.7-0.4l2.3-1.4l0,0l-2.8-1.1l-0.5-0.2c-0.2-0.1-0.4-0.3-0.4-0.5c0-0.2,0.1-0.4,0.4-0.5l3.3-1.3l-3-1.8c-0.1-0.1-0.2-0.1-0.2-0.2
		c0-0.1-0.1-0.2,0-0.3c0-0.1,0.1-0.3,0.2-0.3c0.1,0,0.1-0.1,0.2-0.1l2.2-0.4l1.3-0.3l-2.6-2.3c-0.1-0.1-0.1-0.1-0.1-0.2
		c-0.1-0.1-0.1-0.3,0-0.4c0.1-0.2,0.3-0.4,0.5-0.4l2.2-0.1l0,0l1.3,0l-2.2-2.7c0,0,0-0.1,0-0.1c-0.1-0.1-0.1-0.2-0.1-0.3
		c0-0.1,0-0.1,0-0.2c0.1-0.1,0.2-0.2,0.3-0.2c0.1,0,0.2,0,0.2,0c0,0,0,0,0,0l1.8,0.3l1.7,0.3l0,0l-0.7-1.2l0-0.1l-0.3-0.6l-0.7-1.2
		c-0.1-0.1-0.1-0.2-0.1-0.4c0,0,0,0,0,0c0-0.1,0-0.2,0.1-0.2c0-0.1,0.1-0.1,0.2-0.1c0,0,0.1-0.1,0.1-0.1c0,0,0.1,0,0.1,0
		c0.1,0,0.1,0,0.2,0l3.2,1.1l0,0c0,0,0,0,0-0.1c0.1-0.3-0.2-0.8-0.6-1.2c-0.1-0.1-0.3-0.3-0.5-0.5c-0.7-0.7-1.8-1.4-2.6-1.9
		c0,0,0,0,0,0c-1.1,0.5-2.3,1-3.5,1.6c-0.1,0-0.1,0-0.2,0.1c-0.6,0.2-1.1,0.5-1.7,0.7c-0.2,0.1-0.3,0.1-0.5,0.2
		c-0.2,0.1-0.4,0.2-0.6,0.3c-0.1,0-0.1,0-0.2,0.1c-0.3,0.1-0.6,0.2-0.9,0.4c-0.2,0.1-0.3,0.1-0.5,0.2c-0.2,0.1-0.4,0.2-0.6,0.3
		c-0.1,0.1-0.3,0.1-0.4,0.2c-0.3,0.1-0.6,0.3-0.9,0.4c-0.6,0.3-1.1,0.5-1.7,0.8c-0.4,0.2-0.9,0.4-1.3,0.6c-0.1,0.1-0.2,0.1-0.4,0.2
		c-0.3,0.2-0.7,0.3-1,0.4c-0.1,0-0.1,0.1-0.2,0.1c-0.4,0.2-0.8,0.3-1.2,0.5c-0.4,0.2-0.8,0.3-1.2,0.5l0,0l0,0l-2.1,0.9l0,0
		c0,0-0.2,0.1-0.5,0.2c0,0-0.1,0-0.1,0c-0.1,0-0.2,0.1-0.4,0.1c0,0,0,0,0,0c0,0,0,0,0,0c-0.4,0.1-0.6,0.2-0.6,0.2
		c0,0-0.3,0.1-0.7,0.2c0,0,0,0,0,0c-0.1,0-0.3,0.1-0.5,0.1c-0.7,0.2-1.7,0.5-2.6,0.7c0,0,0,0,0,0c-0.3,0.1-0.6,0.1-0.9,0.2
		c0,0-0.1,0-0.1,0c-1.1,0.1-1.8-0.1-2.3-0.5c-0.3-0.2-0.6-0.5-0.8-0.8c-0.7-1.1-0.5-2.6-0.4-3.1c-0.3,0-0.5,0.1-0.8,0.2
		c-0.9,0.4-1.4,1.2-1.7,2.1c-0.1,0.4-0.3,0.8-0.3,1.1c-0.2,0.8-0.2,1.5-0.2,1.5c0,0.4,0,0.7,0,1c0,0.2,0,0.3,0,0.4
		c0,0.5,0.1,0.9,0.2,1.4c0.7,3.6,2.9,5.9,5.5,7.5c0.3,0.2,0.6,0.3,0.9,0.5c0.8,0.4,1.7,0.8,2.6,1.1c0.1,0,0.3,0.1,0.4,0.1
		c0.7,0.2,1.4,0.4,2.1,0.6c0.1,0,0.2,0,0.2,0.1c1,0.2,1.8,0.3,2.5,0.4c1.2,0.1,1.9,0.1,1.9,0.1s-0.1,0-0.2,0.1c0,0,0,0,0,0
		c0,0,0,0,0,0c0.3,0,0.5,0,0.5,0c0,0,0,0,0,0l0,0c0,0,0,0-0.1,0c0,0,0,0,0,0c0,0-0.1,0-0.1,0.1c0,0,0,0-0.1,0c0,0,0,0,0,0
		c0,0,0,0,0,0c0,0-0.1,0.1-0.2,0.1c0,0-0.1,0-0.1,0.1c0,0,0,0,0,0c0,0,0,0,0,0c0,0,0,0,0,0c-0.2,0.1-0.3,0.3-0.5,0.4
		c-0.1,0-0.1,0.1-0.2,0.1c-0.1,0-0.1,0.1-0.2,0.1c0,0,0,0,0,0c-0.2,0.1-0.3,0.3-0.5,0.5c0,0,0,0,0,0c0,0,0,0,0,0c0,0,0,0,0,0
		c-0.2,0.2-0.4,0.4-0.6,0.6c0,0,0,0,0,0c0,0,0,0,0,0c0,0,0,0,0,0c-0.1,0.1-0.2,0.2-0.2,0.3c-0.4,0.4-0.8,0.9-1.2,1.4
		c-0.1,0.2-0.3,0.4-0.4,0.6c0,0,0,0,0,0c0,0,0,0,0,0c0,0,0,0,0,0c-0.1,0.2-0.2,0.4-0.4,0.6c-0.1,0.1-0.1,0.2-0.2,0.3c0,0,0,0,0,0
		c0,0,0,0,0,0c0,0,0,0,0,0c-0.4,0.7-0.7,1.4-0.9,2.2c0,0,0,0,0,0c-0.1,0.4-0.2,0.8-0.3,1.2c0,0,0,0.1,0,0.1
		c-0.1,0.4-0.2,0.8-0.2,1.3c0,0.1,0,0.1,0,0.2c0,0.3,0,0.6-0.1,0.9c0,0.2,0,0.3,0,0.5c0,0,0,0,0,0c0,0.6,0,1.2,0,1.8
		c0,0.3,0,0.5,0.1,0.8c0,0.4,0.1,0.8,0.2,1.2l0,0.1l0,0.1c0.3-0.1,0.7-0.1,1-0.2c2.2-0.4,4.5-0.9,6.7-1.5v0
		c4.5-1.2,9.1-2.7,13.6-4.4c0,0,0,0,0,0c0.9-0.3,1.7-0.7,2.6-1c1.1-0.4,2.1-0.9,3.2-1.3c0.1-0.1,0.3-0.1,0.4-0.2c0,0,0.1,0,0.1-0.1
		c0.1,0,0.1-0.1,0.2-0.1c1-0.4,2-0.8,3-1.3c0.8-0.4,1.6-0.7,2.5-1.1c1.1-0.5,2.2-1,3.3-1.5c0,0,0,0,0,0c0.6-0.3,1.2-0.5,1.7-0.8
		c0,0,0,0,0,0c1.3-0.6,2.6-1.2,3.9-1.7c2.7-1.2,5.4-2.4,8.2-3.6c1.9-0.8,3.8-1.6,5.7-2.4c0.1,0,0.2-0.1,0.4-0.2
		c0.1,0,0.2,0.1,0.3,0.1c0.2,0.1,0.4,0.2,0.6,0.3c0.4,0.2,0.7,0.4,1.1,0.6c0.2,0.1,0.4,0.2,0.7,0.3c0.8,0.4,1.5,0.8,2.3,1.2
		c0.1,0,0.1,0.1,0.2,0.1c0.8,0.4,1.6,0.7,2.3,1.1c0.1,0.1,0.2,0.1,0.3,0.2c0.8,0.3,1.5,0.7,2.3,1c0.2,0.1,0.5,0.2,0.7,0.3
		c0.6,0.2,1.2,0.5,1.8,0.7c0,0,0,0,0,0c0.3,0.1,0.6,0.2,0.9,0.3c0,0,0,0,0,0c0,0,0.1,0,0.1,0c0.3,0.1,0.6,0.2,0.9,0.3
		c0.3,0.1,0.5,0.2,0.8,0.2c0,0,0,0,0,0c0.1,0,0.3,0.1,0.4,0.1c0.4,0.1,0.7,0.2,1.1,0.3c0.1,0,0.2,0.1,0.3,0.1v1.3c0.8,2.3,3,4,5.7,4
		c2.6,0,4.8-1.7,5.7-4c0.6,0,1.2,0,1.8-0.1c0.2,0,1.2,0,2.5-0.1c-0.9,4.8-5,8.4-10,8.4c-2.1,0-4-0.6-5.7-1.7v1.4v1.5
		c0.1,0,0.2,0,0.2,0c0.3,0.1,0.6,0.2,0.9,0.4c0,0,0.1,0.1,0.2,0.1c0.2,0.1,0.4,0.4,0.7,0.9l1.5,4.1c0.1,0.2,0.3,0.4,0.5,0.5
		c0.1,0,0.2,0.1,0.3,0.1l2.5,0c0.3,0,0.7-0.2,0.8-0.6l1.4-3.8c0.4-1,1-1.3,1-1.3c0.3-0.1,0.6-0.2,0.8-0.4c0.1,0,0.6-0.1,1.3,0.1
		l4,1.8c0.3,0.1,0.7,0.1,0.9-0.2l1.8-1.8c0.2-0.2,0.3-0.7,0.2-1l-1.7-3.7c-0.4-1-0.2-1.7-0.2-1.7c0.1-0.3,0.2-0.6,0.4-0.9
		c0.1-0.1,0.4-0.5,1-0.8l4.1-1.5c0.1,0,0.1-0.1,0.2-0.1c0.2-0.2,0.3-0.4,0.3-0.7v-2.5c0-0.2-0.1-0.5-0.3-0.6
		C137.7,138.5,137.6,138.4,137.5,138.4z M84.8,126.1C84.9,126.1,84.9,126.1,84.8,126.1c0.7,0.4,1.3,0.8,1.9,1.2c0,0,0,0,0,0
		c0.6,0.4,1.2,0.7,1.8,1.1c0.1,0,0.1,0.1,0.2,0.1c0.6,0.4,1.1,0.7,1.7,1.1c0.1,0.1,0.2,0.1,0.3,0.2c0.2,0.1,0.5,0.3,0.7,0.4
		c0.3,0.2,0.7,0.4,1,0.6c0,0,0,0,0,0c0.1,0.2,0.1,0.4,0.2,0.6c0.1,0.6,0.2,1.2,0.2,1.8c0,0.1,0,0.2,0,0.4c-1.2,0.5-2.3,1-3.5,1.5
		c0.2-0.6,0.4-1.7,0.4-2.2c0,0,0,0,0-0.1c0-0.4,0-0.8,0-0.8l0,0c0,0-0.1-0.1-0.2-0.1c-0.1,0-0.1,0-0.1,0.1c-0.1,0.1-0.3,0.3-0.5,0.7
		c0,0-0.3,0.4-0.9,0.9c-0.2,0.2-0.4,0.3-0.7,0.4c-0.1,0.1-0.3,0.2-0.5,0.2c-0.4,0.1-0.8,0.2-1.2,0.2c-0.8,0-1.4-0.3-1.9-0.6
		c-0.1-0.1-0.3-0.2-0.4-0.3c-0.6-0.5-0.9-0.9-0.9-0.9c-0.1-0.2-0.3-0.4-0.4-0.5c0-0.1-0.1-0.1-0.1-0.2c0,0,0,0,0-0.1
		c0,0,0,0-0.1-0.1h0c0,0-0.1,0-0.1,0.1c0,0.1,0,0.1,0,0.1c0,0.1,0,0.5,0,0.9c0,0.3,0.1,1.2,0.3,1.8c0.1,0.3,0.1,0.5,0.2,0.6
		c0,0,0.2,0.4,0.6,0.8c0.4,0.4,1,0.8,1.7,1.1c-1.1,0.5-2.3,1-3.4,1.5c-0.4-0.4-0.8-0.8-1.2-1.3c-0.3-0.4-0.6-0.9-0.8-1.4
		c-0.4-0.9-0.6-1.8-0.6-2.8C78.5,129.5,81.3,126.5,84.8,126.1z M78.6,122.2L78.6,122.2C78.6,122.2,78.7,122.2,78.6,122.2
		c0.6,0.4,1.1,0.7,1.6,1c0,0,0,0,0,0l-3.2,5.5l-2.1,3.6c-0.1,0.1-0.1,0.3-0.1,0.5s0.1,0.5,0.1,0.5l2.1,3.6l0.8,1.4l0.8,1.4
		c-0.6,0.3-1.2,0.5-1.7,0.8l-0.8-1.3l-0.8-1.4l-2-3.5c-0.1-0.1-0.1-0.2-0.1-0.3c-0.2-0.4-0.2-0.8-0.2-1.2c0-0.4,0.1-0.8,0.2-1.1
		c0,0,0,0,0,0c0,0,0,0,0,0c0-0.1,0.1-0.2,0.2-0.3L78.6,122.2C78.6,122.2,78.6,122.2,78.6,122.2C78.6,122.2,78.6,122.2,78.6,122.2z
		 M68.5,128.5c0.2-0.8,0.4-1.5,0.8-2.2c0.2-0.5,0.5-1,0.7-1.5c0.1-0.1,0.1-0.2,0.2-0.3c0.2-0.4,0.5-0.9,0.8-1.3
		c0.3-0.4,0.6-0.8,0.9-1.2c0.3-0.3,0.5-0.6,0.8-0.9c0.1-0.1,0.3-0.3,0.4-0.4c0.4-0.4,0.8-0.7,1.2-1.1c0,0,0,0,0,0
		c0.8,0.5,1.5,0.9,2.3,1.4c0,0,0,0,0,0c-2,1.5-3.6,3.5-4.7,5.7c-0.5,1-0.8,2-1.1,3.1c-0.3,1.1-0.4,2.3-0.4,3.5
		c0,2.2,0.5,4.4,1.4,6.3c0.2,0.5,0.5,1,0.8,1.5c0.2,0.4,0.5,0.8,0.8,1.2c-0.8,0.3-1.6,0.7-2.4,1c-0.1-0.1-0.2-0.3-0.3-0.4
		c-0.2-0.3-0.4-0.6-0.5-0.9c-1.4-2.6-2.3-5.5-2.3-8.7c0-1.1,0.1-2.1,0.3-3.1C68.2,129.5,68.3,129,68.5,128.5z"/>
	<path class="st0" d="M77,186.5h9.4l6.7-6.7v-7.3c-0.5,0.2-0.9,0.4-1.4,0.6c-5.9,2.6-11.8,5.3-17.8,7.9c-0.5,0.2-1.1,0.5-1.6,0.7
		c0,0,0,0-0.1,0L77,186.5L77,186.5z M89.8,177c0.7,0,1.2,0.5,1.2,1.2c0,0.7-0.5,1.2-1.2,1.2c-0.7,0-1.2-0.5-1.2-1.2
		C88.6,177.6,89.1,177,89.8,177z M85.5,181.4c0.7,0,1.2,0.5,1.2,1.2c0,0.7-0.5,1.2-1.2,1.2c-0.7,0-1.2-0.5-1.2-1.2
		C84.3,181.9,84.8,181.4,85.5,181.4z M78.7,182c0.7,0,1.2,0.5,1.2,1.2c0,0.7-0.5,1.2-1.2,1.2c-0.7,0-1.2-0.5-1.2-1.2
		C77.5,182.5,78,182,78.7,182z"/>
	<path class="st0" d="M38.2,152.1C38.2,152.1,38.1,152.2,38.2,152.1c-2,0.8-3.8,1.4-5.2,2c-1.6,0.6-1.4,1.5-1.2,1.9
		c0.1,0,0.1,0,0.2,0c0,0,0,0,0,0c0.7,0,1.5,0,2.2,0c1.2-0.1,2.7-0.3,4.5-0.5c0.4-0.1,0.9-0.1,1.3-0.2l0-0.1
		c-0.1-0.5-0.1-0.9-0.2-1.4c0,0,0,0,0,0c0-0.1,0-0.1,0-0.2c-0.1-0.6-0.1-1.2-0.1-1.7c0,0,0-0.1,0-0.1c0,0,0-0.1,0-0.1
		C39.2,151.8,38.7,151.9,38.2,152.1z"/>
	<path class="st0" d="M66.1,184.2c-0.2,0.1-0.5,0.2-0.7,0.3c-0.5,0.2-1,0.4-1.6,0.6c0,0-0.1,0-0.1,0.1c1.7,3,4.1,5.6,7.1,7.4
		c3.1,2,6.9,3.1,10.8,3.1c11.4,0,20.6-9.2,20.6-20.6c0-2.1-0.3-4-0.9-5.9c-0.5,0.2-0.9,0.4-1.4,0.5c-0.2,0.1-0.4,0.2-0.7,0.3
		c-0.5,0.2-1,0.4-1.5,0.6c-0.1,0-0.1,0-0.2,0.1c0.4,1.4,0.6,2.9,0.6,4.4c0,4.6-1.8,8.7-4.8,11.7c-3,3-7.1,4.8-11.7,4.8
		c-3.3,0-6.4-1-9-2.7c-1-0.6-1.9-1.3-2.7-2.1c-0.9-0.9-1.7-2-2.4-3.1C67.1,183.8,66.6,184,66.1,184.2z"/>
	<path class="st0" d="M31.5,69.7c3.4-1.1,6.7-1.6,10-1.6c5.5,0,11,1.4,16.6,3.5c0,0,0,0,0,0c-0.2-0.2-0.3-0.4-0.5-0.6
		c0,0-0.1-0.1-0.1-0.1c-0.1-0.2-0.3-0.4-0.4-0.6c0,0-0.1-0.1-0.1-0.1c-0.1-0.2-0.2-0.4-0.3-0.6c0,0-0.1-0.1-0.1-0.1
		c-0.1-0.2-0.2-0.5-0.3-0.7c-0.1-0.3-0.2-0.6-0.3-0.9c0-0.1-0.1-0.2-0.1-0.4c-0.1-0.3-0.1-0.6-0.2-0.9c-0.1-0.5-0.1-0.9-0.1-1.2
		c0,0,0,0,0,0c0,0,0,0,0,0c0-0.4,0-0.8,0.1-1.2c0-0.1,0.1-0.3,0.1-0.4c0-0.1,0-0.3,0.1-0.4v-6.1V52L55.7,52l0.1-0.4v-0.9
		c0-0.1-0.1-0.1-0.2-0.2c0,0,0,0,0,0l-2.2-1.3c-0.3-0.2-0.7-0.1-0.9,0.2l-1.4,1.7l-0.2,0.2L50.7,49c0-0.1-0.1-0.3-0.2-0.4
		c-0.1-0.1-0.3-0.2-0.5-0.2h-2.5c-0.3,0-0.6,0.3-0.7,0.6l-0.3,2.4l0,0.1l-1.6-2c0,0,0,0-0.1,0c-0.2-0.2-0.6-0.3-0.8-0.1l-2.2,1.3
		c-0.3,0.2-0.4,0.5-0.3,0.8l0.9,2.3l-2.3-0.9c-0.3-0.1-0.7,0-0.8,0.3l-1.3,2.2c-0.2,0.3-0.1,0.7,0.2,0.9l2,1.6l-2.5,0.4
		c-0.3,0-0.6,0.3-0.6,0.7v2.5c0,0.3,0.2,0.5,0.5,0.6c0,0,0.1,0,0.1,0l2.5,0.4l-0.1,0.1l-1.8,1.5c-0.3,0.2-0.3,0.6-0.2,0.9l0.3,0.6
		c-2.9,0.3-5.8,1-8.8,2.2v2.8c0.1,0,0.2-0.1,0.2-0.1C30.4,70.1,30.9,69.9,31.5,69.7z M49,63.8c-2,0-3.6-1.6-3.6-3.6
		c0-2,1.6-3.6,3.6-3.6c2,0,3.6,1.6,3.6,3.6C52.6,62.2,51,63.8,49,63.8z"/>
	<path class="st0" d="M111.9,180.7l6.6-2.4c0.5-0.2,0.9-0.7,0.9-1.3v-4c0-0.4-0.2-0.8-0.5-1c-0.1-0.1-0.2-0.2-0.4-0.2l-6.2-2.3
		c-0.2-0.1-0.3-0.1-0.4-0.2c-0.1,0-0.2-0.1-0.2-0.1c-0.2-1.1-0.5-2.2-0.8-3.2c-0.5,0.1-0.9,0.3-1.4,0.4c-0.9,0.3-1.7,0.5-2.6,0.8
		c-0.5,0.2-1,0.4-1.6,0.5c-0.1,0-0.1,0-0.2,0.1c0.7,2.3,1.1,4.7,1.1,7.3c0,6.8-2.7,12.9-7.2,17.4c-4.5,4.4-10.6,7.2-17.4,7.2
		c-4.6,0-8.9-1.3-12.6-3.5c-1.7-1-3.3-2.3-4.7-3.7c-1.7-1.7-3.2-3.7-4.3-5.9c-0.5,0.2-1,0.3-1.4,0.5c-2.2,0.7-4.4,1.4-6.6,2
		c-0.8,0.2-1.7,0.4-2.5,0.6c-0.2,0-0.3,0.1-0.5,0.1l-0.8,1c-0.3,0.4-0.4,1.1-0.1,1.5l2,3.5c0.1,0.2,0.4,0.4,0.6,0.5
		c0.2,0.1,0.5,0.2,0.8,0.1l6.3-1.1c0.4-0.1,0.7-0.1,0.9-0.1c0,0.1,0.1,0.1,0.1,0.2c0.9,1,1.8,1.9,2.8,2.8c0,0.1,0,0.2,0,0.3
		l-1.2,6.9c-0.1,0.5,0.2,1.1,0.7,1.4l0.2,0.1l3.3,1.9c0.4,0.3,1.1,0.2,1.5-0.1l5.1-4.2c0.2-0.2,0.4-0.3,0.6-0.4
		c1.3,0.4,2.7,0.8,4,1.1c0,0,0,0.1,0.1,0.1c0,0.1,0.1,0.1,0.1,0.2l2.4,6.6c0.1,0.3,0.4,0.6,0.7,0.7c0.2,0.1,0.4,0.2,0.6,0.2h4
		c0.5,0,1.1-0.4,1.3-0.9l2.3-6.2c0.1-0.3,0.2-0.5,0.3-0.7c1.4-0.3,2.7-0.6,4-1.1c0.1,0.1,0.2,0.1,0.3,0.2l0,0l5.3,4.5
		c0.1,0,0.1,0.1,0.2,0.1c0.4,0.2,0.9,0.2,1.3,0l3.5-2c0.4-0.3,0.7-0.9,0.7-1.4l-1.1-6.3c-0.1-0.4-0.1-0.7-0.1-1c1-0.9,2-1.9,2.9-2.9
		c0.1,0,0.2,0,0.4,0l6.9,1.2c0.5,0.1,1.1-0.2,1.4-0.7l2-3.5c0.3-0.4,0.2-1.1-0.1-1.5l-4.2-5.1c-0.2-0.2-0.3-0.4-0.4-0.6
		c0.4-1.3,0.8-2.7,1.1-4C111.7,180.8,111.8,180.8,111.9,180.7z"/>
	<path class="st0" d="M138.1,103.2c-0.2,0.1-0.4,0.1-0.6,0.2c-0.4,0.1-0.8,0.3-1.2,0.4c-1.3,0.4-2.7,0.8-4,1
		c-0.5,0.1-1.1,0.2-1.6,0.3c-1.3,0.2-2.6,0.3-3.8,0.3c-0.2,0-0.4,0-0.5,0c-0.8,0-1.7,0-2.5-0.1c-0.3,0-0.7-0.1-1-0.1
		c-0.1,0-0.1,0-0.2,0c-0.4,0-0.8-0.1-1.2-0.1c-0.1,0-0.1,0-0.2,0c-1.2-0.2-2.4-0.4-3.5-0.7c-0.3-0.1-0.5-0.1-0.8-0.2
		c-0.6-0.1-1.1-0.3-1.7-0.5c-0.6-0.2-1.2-0.4-1.8-0.6c0,0,0,0-0.1,0c-0.3-0.1-0.7-0.2-1-0.4c-0.1,0-0.1,0-0.2-0.1
		c-0.5-0.2-1.1-0.4-1.6-0.6c-0.3-0.1-0.6-0.2-0.9-0.3c-4.4-1.8-8.7-4.2-13.1-6.8c-0.6-0.3-1.1-0.7-1.7-1c-0.2-0.1-0.5-0.3-0.7-0.4
		c-0.1,0-0.2-0.1-0.2-0.1c-0.3-0.2-0.6-0.4-1-0.6c-0.2-0.1-0.4-0.3-0.6-0.4c-0.3-0.2-0.5-0.3-0.8-0.5c0,0,0,0,0,0
		c0,0-0.1-0.1-0.1-0.1c-0.8-0.5-1.6-1-2.4-1.5c-2.2-1.4-4.3-2.7-6.5-4.1c-2.6-1.7-6.1-3.5-8.8-5.1c-11.6-6.3-22-11.2-32.2-11.2
		c-3.3,0-6.7,0.5-10,1.7c-0.6,0.2-1.1,0.4-1.7,0.6c0,0-0.1,0-0.1,0v4.1v4.1v2V94v11.3c0.2-0.1,0.3-0.1,0.5-0.2c0.1,0,0.1,0,0.2-0.1
		c0.1,0,0.2-0.1,0.2-0.1c0.4-0.1,0.8-0.3,1.2-0.4c0.1,0,0.3-0.1,0.4-0.1c0.1,0,0.2-0.1,0.2-0.1c3-0.9,6.1-1.3,9.1-1.3h0
		c5.9,0,11.8,1.6,17.7,4c1,0.4,1.9,0.8,2.9,1.3c0.6,0.3,1.1,0.5,1.7,0.8c1.4,0.7,2.9,1.4,4.3,2.2c0.6,0.3,1.2,0.6,1.7,1
		c0.4,0.2,0.7,0.4,1.1,0.6c0.3,0.1,0.5,0.3,0.8,0.4c0.3,0.2,0.6,0.3,0.9,0.5c0.2,0.1,0.4,0.2,0.5,0.3c0.7,0.4,1.3,0.8,2,1.2
		c0.5,0.3,1.1,0.6,1.6,1c2.3,1.4,4.7,2.9,7,4.4c0.2,0.1,0.4,0.2,0.5,0.3c0.8,0.5,1.7,1,2.5,1.6c3,1.9,6,3.8,9,5.5
		c0.4,0.2,0.8,0.5,1.2,0.7c0.2,0.1,0.4,0.2,0.6,0.3c0.7,0.4,1.4,0.8,2.1,1.2c0.4,0.2,0.9,0.5,1.3,0.7c0.6,0.3,1.2,0.6,1.7,0.9
		c0.2,0.1,0.3,0.2,0.5,0.2c0.2,0.1,0.5,0.2,0.7,0.4c0.7,0.4,1.5,0.7,2.2,1.1c0.3,0.1,0.6,0.3,0.9,0.4c0.6,0.3,1.2,0.5,1.8,0.8
		c0.9,0.4,1.8,0.7,2.8,1.1c0.6,0.2,1.1,0.4,1.7,0.6c0.6,0.2,1.2,0.4,1.8,0.6c3.7,1.1,7.4,1.7,11.1,1.7c0.8,0,1.6,0,2.4-0.1
		c2-0.1,4-0.5,6-1c1.2-0.3,2.4-0.7,3.6-1.2c0-2,0-4.2,0-6.5c0-6.7,0-14.2,0-20.9V103.2z M113.9,126.4
		C113.9,126.4,113.9,126.4,113.9,126.4l0-12.4v-0.4c0,0,0,0,0,0c0-0.1,0-0.4-0.1-0.9c0-0.4-0.1-0.9-0.2-1.5c-0.1-0.6-0.3-1.3-0.5-2
		c0,0,0,0,0,0c0-0.1-0.1-0.2-0.1-0.3c0,0,0,0,0,0c0.2,0.1,0.3,0.1,0.5,0.2c0.1,0,0.3,0.1,0.4,0.1c0.6,0.2,1.2,0.4,1.8,0.5
		c0.5,0.1,1.1,0.3,1.6,0.4c0,0,0,0,0,0c0.1,0,0.1,0,0.2,0c0.3,0.1,0.5,0.1,0.8,0.2c0,0,0,0,0.1,0c0.1,0,0.2,0,0.3,0.1
		c0,0,0.1,0,0.1,0c0.4,0.1,0.8,0.1,1.4,0.2c0.2,0,0.5,0.1,0.8,0.1c0,0,0,0,0,0c0.1,0,0.3,0,0.4,0c0.2,0,0.3,0,0.5,0
		c0.2,0,0.4,0,0.6,0.1c0.3,0,0.5,0.1,0.8,0.1c-0.1,0.1-0.2,0.2-0.3,0.4c-0.4,0.6-0.9,1.7-1,3c0,0.2,0,0.4,0,0.5c0,0.2,0,0.4,0,0.6
		c0,0.3,0.1,0.5,0.1,0.7c-0.2-0.2-0.4-0.3-0.6-0.5c-0.4-0.3-0.7-0.5-1-0.6c-0.3-0.1-0.6-0.3-0.8-0.3c-0.1,0-0.2-0.1-0.2-0.1
		c0,0,0,0-0.1,0c0,0,0,0,0,0h0c0,0,0,0,0,0c-0.7-0.1-1.3-0.2-2-0.4c-0.1,0-0.1,0-0.2,0c0,0-0.1,0.1-0.1,0.2c0,0,0,0,0,0c0,0,0,0,0,0
		v0.8v3.4c0,0.1,0.1,0.2,0.2,0.2c0.5,0.1,1,0.2,1.6,0.3c0,0,0,0,0,0c0,0,0,0,0,0c0,0,0,0,0,0c0,0,0.1,0,0.2,0c0.4,0,1.3-0.1,2.1-0.6
		v5.9c-0.5-0.4-1-0.7-1.4-0.9c-0.2-0.1-0.5-0.2-0.6-0.3c-0.1,0-0.1,0-0.2-0.1c0,0,0,0,0,0c0,0,0,0,0,0c0,0,0,0,0,0v0c0,0,0,0,0,0
		c0,0,0,0,0,0c0,0,0,0,0,0c-0.5-0.1-1-0.2-1.6-0.3c-0.1,0-0.1,0-0.2,0c-0.1,0-0.1,0.1-0.1,0.2v4.2c0,0,0,0,0,0c0,0,0,0,0,0.1
		c0,0.1,0.1,0.2,0.2,0.2c0.7,0.2,1.4,0.3,2,0.4c0,0,0,0,0,0c0,0,0.1,0,0.2,0c0.4,0,1.5-0.1,2.6-0.8c0,0.3-0.1,0.5-0.1,0.8
		c0,0.2,0,0.4,0,0.6c0,1.3,0.4,2.4,0.8,3.2c0.2,0.4,0.4,0.7,0.5,0.9c-1.2-0.1-2.4-0.2-3.7-0.4l0,0c-2.2-0.4-0.9-0.1-3.1-0.7
		c0,0,0,0,0,0c-1.2-0.3-2.5-0.7-3.7-1.1C113.9,128.7,113.9,126.6,113.9,126.4z M119.3,123.3C119.2,123.3,119.2,123.3,119.3,123.3
		C119.2,123.3,119.2,123.3,119.3,123.3C119.3,123.3,119.3,123.3,119.3,123.3z M96.9,101.3c-0.9,1.8-0.9,4-0.9,4.1v10.1v2.6v0.1v0v0
		v0c0,0.2,0,2.3,0.8,4.8c-0.2-0.1-0.3-0.2-0.5-0.3c-1.5-0.9-3.1-1.8-4.6-2.8c0.2-0.4,0.4-0.8,0.5-1.3c0.1-0.5,0.2-1,0.3-1.4
		c0.1-0.4,0.1-0.8,0.1-1c0-0.1,0-0.2,0-0.3c0,0,0-0.1,0-0.1v0c0,0,0,0,0,0l0,0v-0.1v-2.4v-10.3l0,0h0v0v0v0c0-0.2,0-2.2-0.8-4.7
		c0,0,0-0.1,0-0.1c0,0,0,0,0.1,0C93.5,99.4,95.2,100.4,96.9,101.3z M82.7,92.6c-0.9,1.8-0.9,4-0.9,4.1v3.2v1.3
		c0,0.1,0.1,0.2,0.1,0.2c0.1,0,0.2,0.1,0.3,0.1c0.4,0.2,0.9,0.3,1.3,0.5l0.1,0c0.6-0.1,1.2-0.2,1.8-0.2c0.1,0,0.2-0.1,0.2-0.2
		c0-0.5,0-0.9,0-1.4c0-0.4,0-0.9,0-1.3c0,0,0,0,0,0c0-0.1,0-0.2,0-0.4c0-0.8-0.2-2.4-0.8-4.4c1.5,0.9,3,1.9,4.5,2.8
		c0.2,0.1,0.4,0.3,0.6,0.4c-0.2,0.4-0.4,0.9-0.5,1.4c-0.3,1.3-0.4,2.5-0.4,2.7v0v10.4v2.4v0c0,0,0,0.2,0,0.4c0,0.5,0.1,1.5,0.4,2.8
		c0.1,0.5,0.2,1.1,0.4,1.7c-1.6-1-3.2-2-4.8-3c-0.1-0.1-0.2-0.1-0.3-0.2c0.3-0.6,0.5-1.4,0.7-2c0.2-1.1,0.2-1.9,0.2-2V110V107
		c0-0.1-0.1-0.2-0.1-0.2c-0.4-0.1-0.8-0.3-1.1-0.4c-0.2-0.1-0.3-0.1-0.4-0.1c-0.1,0-0.1,0-0.1,0c0,0,0,0,0,0c0,0,0,0,0,0l0,0h0
		c0,0,0,0,0,0h0l0,0h0c0,0,0,0,0,0c0,0,0,0,0,0c0,0,0,0-0.1,0c-0.2,0-1,0-1.8,0.1c-0.1,0-0.2,0.1-0.2,0.2v2.9c0,0,0,0,0,0
		c0,0,0,0,0,0c0,0.2,0,1.9,0.6,4.2c0.1,0.2,0.1,0.5,0.2,0.7c-0.3-0.2-0.7-0.4-1-0.6c-0.5-0.3-0.9-0.6-1.4-0.8
		c-0.1-0.1-0.2-0.1-0.3-0.2c-0.8-0.5-1.6-1-2.4-1.5c0.2-0.4,0.4-0.9,0.5-1.3c0.4-1.4,0.4-2.6,0.4-2.8v0v-3.9v-1.8v-7
		c0-0.1,0-2.2-0.8-4.9C79.3,90.4,81,91.5,82.7,92.6z M65.2,86.2c0.8-1.5,1.9-2.3,3.1-2.3c0.5,0,1.1,0.2,1.7,0.5c1.5,0.8,2.9,2.7,4,5
		l0,0c0.8,1,1.5,2,2.3,3c-0.3,0.4-0.7,0.7-1.1,0.9c-0.7,0.4-1.2,0.6-1.7,0.6c-1.1,0-1.7-1-1.7-1.7c0-0.2,0-0.4-0.1-0.6
		c-0.3-1.8-0.8-3-1.5-3.4l0,0c-0.1-0.1-0.2-0.1-0.3-0.1c-0.7,0.1-1,0.9-1.3,2c-0.2,0.7-0.2,2.8-0.2,5c0,2,0.1,3.9,0.2,4.7
		c0.3,1.8,0.8,3.1,1.5,3.5c0.1,0.1,0.2,0.1,0.3,0.1c0.7-0.1,1-0.9,1.3-2.1l0,0c0-0.1,0.1-0.4,0.2-1.8c0.5,0.6,1.4,1.7,2.7,1.7
		c0.5,0,1.1-0.2,1.6-0.6c0,0.6-0.1,1.1-0.2,1.7c-0.1,0.7-0.3,1.4-0.5,2c-0.7,2.3-2.1,3.6-3.6,3.6c-0.5,0-1.1-0.1-1.7-0.5
		c-0.1,0-0.1-0.1-0.2-0.1c-0.3-0.2-0.6-0.4-1-0.7c-0.2-0.2-0.5-0.4-0.7-0.6c-0.2-0.2-0.4-0.5-0.6-0.7c-2.3-2.9-4-7.9-4-12.9
		C63.9,89.9,64.4,87.7,65.2,86.2z M55.4,78c0.2,0.1,0.5,0.2,0.7,0.3c0,0,0,0,0,0c0.6,0.2,1.3,0.5,1.9,0.7c0,0,0,0,0,0
		c1,0.4,2,0.8,3,1.3c-0.3,1.1-0.4,2.5-0.4,3.4c0,0.4,0,0.6,0,0.9c0,0.1,0,0.2,0,0.2c0,0,0,0.1,0,0.1l0,0v0c0.2,2.1,0.5,4.2,0.7,6.3
		c0,0.2,0.1,0.5,0.1,0.7c0.2,2.1,0.5,4.2,0.7,6.3c0,0,0,0,0,0.1c0,0.3,0.3,1.7,0.8,3.5c0.1,0.5,0.3,1,0.5,1.5
		c-0.4-0.2-0.7-0.3-1.1-0.5c0,0,0,0,0,0c-0.6-0.3-1.2-0.6-1.9-0.8c0,0,0,0-0.1,0c0,0-0.1,0-0.1,0c-0.8-0.4-1.6-0.7-2.4-1
		c0.1-0.2,0.1-0.5,0.2-0.7c0.1-0.7,0.2-1.3,0.2-1.9c0-0.4,0-0.8,0-1.1c0-0.2,0-0.4,0-0.5c0-0.1,0-0.1-0.1-0.2
		c-0.3-0.2-0.7-0.4-0.9-0.5c-0.2-0.1-0.3-0.1-0.5-0.2c-0.3-0.1-0.5-0.1-0.7-0.1c-0.1,0-0.2,0-0.3,0c-0.1,0-0.2,0.1-0.2,0.2
		c0,0.1,0,0.2,0,0.3c0,0,0,0.1,0,0.1c0,0.5,0,1.2,0.1,2.1c0.1,0.6,0.2,1.2,0.3,1.9c-0.3-0.1-0.6-0.2-0.9-0.3c0,0,0,0-0.1,0
		c-0.3-0.1-0.7-0.2-1-0.3c-0.7-0.2-1.4-0.4-2-0.6c-0.4-0.1-0.9-0.2-1.3-0.4c0.2-0.4,0.4-0.8,0.6-1.2c0.2-0.5,0.4-1,0.5-1.5
		c0.1-0.2,0.1-0.3,0.1-0.5c0.1-0.2,0.1-0.4,0.1-0.6c0-0.1,0-0.2,0.1-0.3c0,0,0-0.1,0-0.1c0,0,0,0,0,0l0,0c0-0.3,0.1-0.6,0.1-0.8
		c0.2-1.7,0.4-3.3,0.6-5c0-0.2,0.1-0.4,0.1-0.7c0.2-1.8,0.4-3.6,0.7-5.4l0,0v-1.3c0,0,0,0,0,0c0-0.1,0-0.2-0.1-0.3
		c0-0.1-0.2-0.2-0.3-0.2c-0.2,0-0.4,0.2-0.6,0.3c-0.3,0.3-0.6,0.7-0.8,1c-0.1,0.2-0.2,0.3-0.3,0.4c-0.2-0.5-0.5-1.8-0.7-3.1
		c-0.2-0.8-0.3-1.5-0.4-2c-0.1-0.2-0.1-0.4-0.1-0.6C52,76.9,53.8,77.5,55.4,78z M43.4,97.4c0.3-1,0.5-2.4,0.7-3.7
		c0.1-0.7,0.1-1.4,0.1-2c0-0.7,0-1.2,0.1-1.3c0,0,0,0,0,0v-1.1v-2.1v-2.8c0-0.1-0.1-0.2-0.2-0.2c-0.1,0-0.2,0-0.2,0.1
		c-0.3,0.6-0.6,1.2-0.9,1.9c-0.2,0.5-0.5,1-0.7,1.5c-0.3,0.6-0.6,1.2-0.8,1.8c-0.2,0.4-0.4,0.8-0.5,1.2c-0.4-0.8-0.8-1.6-1.2-2.5
		c-0.6-1.3-1.2-2.5-1.8-3.8c0,0,0,0,0,0c0,0,0,0,0,0c0,0,0,0,0,0c0,0,0,0,0,0c0,0,0,0-0.1-0.1c-0.1,0-0.1,0-0.1,0
		c-0.1,0-0.1,0-0.1,0.1c0,0-0.1,0.1-0.1,0.1c0,0,0,0,0,0c0,0,0,0.4,0,0.7c0,0.2,0,0.3,0,0.5c0,0.1,0,0.1,0,0.2v0.1v0v0.6v2.1v0.8
		v3.5c0,0,0.1,2.5,0.9,4.6c-1.7,0.2-3.6,0.5-5.3,1c0,0,0,0,0,0c0,0,0-0.1,0-0.1c0.7-2.3,0.8-4.7,0.8-4.7v-6.4v-1.6v-2.1v-2.5v-0.2
		c0,0,0,0,0,0c0-0.2-0.1-1-0.3-2.1c-0.1-0.7-0.3-1.5-0.6-2.2c0.9-0.3,1.9-0.5,2.8-0.7c1-0.2,1.3-0.2,2.3-0.3
		c0.9,1.8,1.7,3.7,2.6,5.6c0,0.1,0.1,0.1,0.2,0.1c0.1,0,0.2-0.1,0.2-0.1c0.8-1.9,1.7-3.8,2.5-5.7c1.4,0.1,2,0.1,3.5,0.4
		c0.6,0.1,1.1,0.2,1.7,0.3c-0.8,2-0.9,4.4-0.9,4.4v0v9.3V92v1.3v0c0,0,0,0,0,0c0,0.1,0,0.6,0.1,1.3c0.1,0.7,0.2,1.5,0.5,2.5
		c0.1,0.3,0.2,0.6,0.3,1C47,97.7,45,97.5,43.4,97.4z M98.5,124c0.3-0.7,0.6-1.5,0.7-2.2c0-0.1,0-0.2,0.1-0.3c0-0.1,0-0.2,0-0.3
		c0.1-0.7,0.1-1.2,0.1-1.3c0,0,0,0,0,0v-1.7v-11.1l0,0c0-0.1,0-2.2-0.8-4.8c1.1,0.6,2.3,1.2,3.4,1.8c0,0,0,0,0,0
		c0.3,0.2,0.6,0.6,0.8,1c0.1,0.2,0.2,0.4,0.2,0.5c0,0.1,0,0.1,0.1,0.2l0,0l0,0.1c1.1,3.7,2.3,7.4,3.4,11.1c0,0.1,0.1,0.2,0.2,0.1
		c0.1,0,0.2-0.1,0.2-0.2v-6l0,0c0-0.1,0-2.2-0.8-4.8c0.2,0.1,0.3,0.1,0.5,0.2c1,0.5,2,0.9,3,1.3c0.5,0.2,1,0.4,1.4,0.6
		c-0.1,0.2-0.1,0.3-0.2,0.5c-0.2,0.5-0.3,1-0.4,1.4c-0.1,0.3-0.1,0.6-0.2,0.9c0,0.3-0.1,0.5-0.1,0.7c0,0.1,0,0.3,0,0.4
		c0,0.1,0,0.2,0,0.3c0,0,0,0.1,0,0.1v0c0,0,0,0,0,0v1.5v11.2c0,0,0,0,0,0v0v0c0,0.2,0,2.3,0.8,4.7c-1.2-0.4-2.3-0.9-3.5-1.4
		c0,0,0,0-0.1-0.1c-0.2-0.1-0.4-0.2-0.6-0.3c-1.3-4.1-2.6-8.3-3.8-12.4c0-0.1-0.1-0.2-0.2-0.1c-0.1,0-0.2,0.1-0.2,0.2v5.5v0.4
		c0,0,0,0,0,0c0,0.1,0,0.3,0,0.7c0,0.6,0.1,1.5,0.4,2.5c0.1,0.5,0.2,1,0.4,1.6c-0.6-0.3-1.2-0.6-1.8-0.9
		C100.6,125.1,99.6,124.6,98.5,124z M134.2,130.6c-0.9,1.5-2.6,2.7-4.5,2.9c-0.1,0-0.3,0-0.4,0c-1.1,0-3.1-0.2-4-0.2
		c-0.1,0-0.2,0-0.2,0c0.3-2.2,0.5-4.4,0.8-6.5c0.5,0.8,1.6,2.3,3.1,2.3v0c0.1,0,0.3,0,0.4,0c0.1,0,0.2,0,0.4,0
		c1.5-0.2,2.2-1.2,2.2-2.4c0,0,0-0.1,0-0.1c0-1.2-0.7-1.9-2.5-2.7c-2.4-1-4.1-3.2-4.3-6.6c0-0.2,0-0.3,0-0.5c0-1.1,0.2-2,0.5-2.9
		c0.2-0.6,0.5-1.1,0.8-1.5c0.6-0.8,1.4-1.4,2.3-1.7c0.5-0.2,1-0.4,1.6-0.4c0.2,0,0.4,0,0.5,0c0.8,0,1.4,0.2,1.9,0.5
		c0.1,0,0.1,0,0.2,0c0.1,0,0.1-0.1,0.2-0.2c0.4-0.2,0.7-0.5,1.1-0.7c-0.3,2.2-0.5,4.5-0.8,6.7c-0.5-0.6-1.4-1.6-2.6-1.9l-0.1,0
		c-0.1,0-0.2,0-0.4,0c-1.4,0.2-2,1.1-2,2.1c0,0,0,0.1,0,0.1c0,0.6,0.2,1.1,0.7,1.5c0.5,0.4,1.2,0.8,2.1,1.2c2.6,1,4.2,2.5,4.3,5.7
		c0,0.2,0,0.3,0,0.5C135.4,127.5,135,129.2,134.2,130.6z"/>
	<path class="st0" d="M122.2,90.2c-0.2,0-0.4-0.1-0.7-0.1c-0.3,0-0.5,0-0.8-0.1c-0.3,0-0.7-0.1-1-0.1c-0.7,0-1.4-0.1-2.1-0.1
		c-0.3,0-0.5,0-0.8,0c-0.8,0-1.7,0-2.6,0.1c-0.9,0-1.9,0.1-2.9,0.2c-0.6,0.1-1.2,0.1-1.8,0.2c-0.2,0-0.4,0.1-0.5,0.1
		c-0.4,0.1-0.8,0.1-1.1,0.2c-0.2,0.1-0.5,0.1-0.7,0.2c-0.3,0.1-0.6,0.2-0.9,0.2c-0.2,0.1-0.5,0.1-0.7,0.2c-0.3,0.1-0.6,0.2-0.9,0.3
		c-0.3,0.1-0.5,0.2-0.8,0.3c-0.3,0.1-0.6,0.2-0.8,0.3c-0.3,0.1-0.6,0.2-0.8,0.3c-0.3,0.1-0.6,0.2-0.8,0.3c-0.3,0.1-0.6,0.2-0.9,0.4
		c-0.3,0.1-0.6,0.3-0.9,0.4c-0.3,0.1-0.6,0.3-0.9,0.4c0,0-0.1,0-0.1,0.1c0,0,0,0,0,0c4.2,2.4,8.3,4.6,12.4,6.3c0,0,0,0,0,0
		c0-0.1-0.1-0.2-0.1-0.3l-1.3-2.7c0,0,0-0.1,0-0.1c0-0.1,0-0.2,0-0.3c0-0.1,0.1-0.2,0.1-0.3l1.3-1.3c0,0,0.1-0.1,0.1-0.1
		c0.2-0.1,0.4-0.1,0.6,0l2.7,1.2l0.2,0.1c0.5,0.2,0.9,0.1,1,0.1c0.2-0.1,0.4-0.2,0.6-0.3c0,0,0.1-0.1,0.2-0.2
		c0.1-0.1,0.2-0.2,0.3-0.4c0,0,0,0,0-0.1c0.1-0.1,0.1-0.2,0.2-0.4l0.2-0.6l0.8-2.2c0-0.1,0-0.1,0.1-0.1c0,0,0,0,0,0
		c0,0,0.1-0.1,0.1-0.1c0,0,0,0,0.1-0.1c0.1,0,0.1-0.1,0.2-0.1c0.1,0,0.1,0,0.2,0l0.3,0l1.5,0c0.2,0,0.5,0.2,0.6,0.4l1.2,3
		c0.2,0.5,0.5,0.7,0.6,0.7c0.2,0.1,0.4,0.1,0.5,0.2c0,0,0.1,0,0.1,0c0,0,0.2,0,0.5,0c0.2,0,0.5-0.1,0.8-0.2l1.8-0.9l0,0l0.9-0.4
		c0.1-0.1,0.2-0.1,0.4,0c0.1,0,0.2,0.1,0.3,0.2l1.3,1.3c0.2,0.2,0.2,0.5,0.1,0.7l-0.3,0.6l-1,2.3c-0.1,0.2-0.1,0.3-0.1,0.5
		c0,0.2,0,0.3,0,0.4c0,0,0,0,0,0.1c0.1,0.2,0.2,0.4,0.3,0.6c0,0,0.2,0.4,1,0.7l2.5,0.9l0.3,0.1c0,0,0,0,0,0c0,0,0,0,0,0
		c1-0.2,2-0.5,3-0.8c0.2-0.1,0.5-0.1,0.7-0.2c0,0,0,0,0,0c0.3-0.1,0.6-0.2,0.9-0.3c0,0,0,0,0,0c0,0,0,0,0.1-0.1c0,0,0.1-0.1,0.1-0.1
		c0,0,0,0,0.1-0.1c0.2-0.2,0.3-0.4,0.4-0.6c0.2-0.3,0.3-0.6,0.4-0.8c0-0.1,0.1-0.2,0.1-0.3c0-0.1,0-0.1,0-0.2c0-1.7-1.3-3.9-4.1-5.9
		c0,0-0.1-0.1-0.1-0.1c0,0,0,0,0,0c-1-0.6-2.1-1.2-3.4-1.8c-1.3-0.5-2.7-1-4.2-1.3c-1-0.2-2.2-0.5-3.3-0.6
		C122.4,90.2,122.3,90.2,122.2,90.2z"/>
	<path class="st0" d="M42.9,168.3c0-0.5-0.1-0.9-0.1-1.1c0-0.1-0.1-0.1-0.1-0.2c-0.4-0.7-1.3-1-1.8-1c0,0,0,0,0,0
		c-0.7,0.1-1,0.3-1.2,0.5c-0.1,0.2-0.2,0.4-0.2,0.7c0,0.1,0,0.2,0,0.4v7.1c0,0,0,0.1,0,0.1v1.1v0v0.2c0,0.3,0,0.5,0.1,0.7
		c0,0,0,0,0,0.1c0,0,0,0,0,0c0.1,0.1,0.2,0.2,0.3,0.3c0.2,0.1,0.6,0.1,1.1,0c0.1,0,0.4-0.1,0.6-0.3c0.2-0.1,0.5-0.3,0.7-0.6
		c0.3-0.3,0.5-0.6,0.6-0.9c0,0,0,0,0-0.1c0-0.1,0.1-0.3,0.1-0.5c0.1-1,0.1-3.3,0.1-5.1C43,169.3,43,168.7,42.9,168.3z"/>
</g>
</svg>
