<?xml version="1.0" encoding="utf-8"?>
<!-- Generator: Adobe Illustrator 16.0.0, SVG Export Plug-In . SVG Version: 6.00 Build 0)  -->
<!DOCTYPE svg PUBLIC "-//W3C//DTD SVG 1.1//EN" "http://www.w3.org/Graphics/SVG/1.1/DTD/svg11.dtd">
<svg version="1.1" id="Layer_1" xmlns="http://www.w3.org/2000/svg" xmlns:xlink="http://www.w3.org/1999/xlink" x="0px" y="0px"
	 width="1280px" height="800px" viewBox="0 0 1280 800" enable-background="new 0 0 1280 800" xml:space="preserve">
<g id="LOGO">
	<path fill="#FFFFFF" d="M594.862,517.659c0.961,1.539,2.115,2.885,3.462,4.039c5.386,5.387,12.502,8.463,20.195,8.463
		c7.695,0,14.812-2.885,20.197-8.463c5.385-5.385,8.463-12.502,8.463-20.195c0-2.113-0.193-4.23-0.77-6.348
		c-0.961,0.385-1.731,0.771-2.693,1.156v14.232c0,0.77-0.385,1.73-0.961,2.307l-12.887,12.887c-0.577,0.578-1.347,0.961-2.309,0.961
		h-18.272c-0.77,0-1.731-0.383-2.308-0.961l-9.233-9.232C596.785,516.89,595.823,517.274,594.862,517.659z"/>
	<path fill="#FFFFFF" d="M659.875,431.491c-0.193-0.193-0.578-0.193-0.77-0.387c-0.193-0.191-0.578-0.191-0.771-0.383
		c-1.346-0.578-2.5-1.156-3.461-1.732c-0.77-0.385-1.346-0.77-1.924-0.961c-0.191,0-0.385-0.191-0.385-0.191
		c-1.346-0.771-2.307-1.348-3.078-1.732c-0.191,0-0.191,0.191-0.383,0.191c-10.195,4.039-20.197,8.656-30.392,13.082
		c-0.384,0.191-0.769,0.383-1.153,0.576c-1.154,0.576-2.501,1.152-3.655,1.729c-5.578,2.502-11.156,5.004-16.734,7.311
		c-0.385,0.193-0.77,0.385-1.154,0.385c-0.577,0.193-0.961,0.385-1.539,0.578c-1.538,0.576-3.078,1.344-4.616,1.922
		c-3.27,1.348-6.54,2.693-10.002,3.848c-2.5,0.961-5.194,1.922-7.694,2.693c-0.192,0-0.385,0.191-0.578,0.191
		c-7.693,2.693-15.387,4.809-23.273,6.348c-0.384,0-0.769,0.191-1.154,0.191c-0.961,0.193-1.731,0.387-2.693,0.578
		c-0.191,0-0.384,0-0.576,0.191c-0.77,0.193-1.347,0.193-2.116,0.385c-0.77,0.193-1.539,0.193-2.308,0.385
		c-1.154,0.191-2.309,0.385-3.271,0.385c-2.5,0.385-5,0.578-7.694,0.578c-1.923,0.191-3.846,0.191-5.962,0.191l0,0v0.193v5.193
		v3.463v27.313v11.154v6.539l0,0c7.887,0,15.772-0.963,23.659-2.5c1.154-0.193,2.115-0.385,3.27-0.77
		c0.963-0.191,2.116-0.383,3.078-0.77c41.354-10,83.094-36.545,125.023-47.893c0.385-0.191,0.963-0.191,1.539-0.385v-8.078v-3.27
		v-1.539v-2.502v-15.771c-2.307-0.578-4.614-1.346-6.924-2.307C667.76,435.146,663.529,433.22,659.875,431.491z M611.403,458.034
		c0.192-0.576,0.578-1.348,0.962-2.115c0.191-0.578,0.577-1.154,0.769-1.539c0.77-1.348,1.539-2.693,2.693-4.424
		c1.539,0.77,3.655,2.498,5.385,4.037c0.578,0.387,0.961,0.961,1.347,1.348c-2.116,0.191-4.041,0.578-6.155,0.768
		c-0.193,0.193-0.384,0.387-0.577,0.578c-0.77,0.578-1.731,1.348-2.5,1.924c-0.961,0.77-1.924,1.539-2.885,2.115
		C610.826,459.956,611.019,458.995,611.403,458.034z M545.622,506.89c-0.193,0.193-0.577,0.385-0.77,0.77
		c-0.385,0.385-0.961,0.768-1.347,0.961c-0.384,0.383-0.961,0.576-1.538,0.768c-0.77,0.385-1.54,0.578-2.309,0.771
		c-0.192,0-1.539,0.193-2.885,0.385s-2.693,0.191-3.271,0.383c-1.73,0.193-3.27,0.387-5.001,0.578l0,0l0,0l0,0
		c0.193-0.191,0.193-0.385,0.386-0.578c0-0.191,0.192-0.191,0.192-0.383c0.577-1.348,0.961-2.5,0.961-3.461
		c0-0.385,0-0.578,0.192-0.771c0-0.191,0-0.191,0-0.191v-19.236l0,0c0-0.576-0.385-3.076-1.731-5l0,0l0,0l0,0l0,0l0,0
		c0.578,0,1.347-0.191,1.924-0.191h0.192l0,0l0,0c0.577,0,2.308-0.385,4.231-0.77c0.385,0,0.769-0.191,0.961-0.191
		c1.155-0.193,2.308-0.385,3.078-0.578c0.384,0,0.577-0.191,0.769-0.191c0.191,0,0.384,0,0.577-0.193c0.385,0,0.769,0,1.154-0.193
		c0.192,0,0.385,0,0.578,0h0.191c0.385,0,0.962,0.193,1.346,0.387c2.308,0.77,4.232,2.5,5.387,5c0.576,1.539,0.961,3.078,1.153,5
		c0,0.193,0,5.578,0,5.771s0,0.193,0,0.385c0,3.463-1.153,6.539-2.885,9.232C546.776,505.544,546.198,506.312,545.622,506.89z
		 M572.934,477.462c-0.769-0.193-1.538-0.193-2.309-0.193c-1.346,0-2.692,0.383-2.884,0.383l0,0
		c-1.154,0.387-2.309,0.771-3.463,1.156l0,0l0,0l0,0l0,0l0,0v7.309c0.192,0,0.192,0,0.385-0.193c0.77-0.191,1.539-0.576,2.309-0.77
		c0,0,2.116-0.959,4.04-2.691l0.192-0.193v7.504l0,0c-0.578-0.193-1.154-0.193-1.731-0.193c-1.347,0-2.5,0.383-2.5,0.383
		c-0.77,0.193-1.539,0.578-2.309,0.771c-0.192,0-0.385,0.191-0.385,0.191l0,0v7.117l0,0c0,0,0,0,0,0.191l0,0
		c0.962-0.385,2.116-0.77,3.078-0.961c0.192,0,0.192,0,0.385-0.191c0,0,2.884-1.154,5.192-3.463l0,0c0,0,0,0.383,0.192,0.576
		c0.192,0.578,0.577,1.539,0.962,2.5l-2.309,4.232l0,0c-0.193,0-0.384,0.189-0.577,0.189c-0.961,0.387-2.116,0.773-3.078,1.158l0,0
		c-1.73,0.576-2.308,0.77-2.5,0.961c-0.384,0.191-0.769,0.191-2.692,0.77l0,0l0,0l0,0c-2.309,0.768-4.617,1.346-6.733,2.115
		c0.193-0.193,0.193-0.383,0.193-0.576c0.961-1.924,1.154-3.461,1.347-4.428c0-0.383,0-0.766,0-0.766v-19.236
		c0,0-0.193-3.076-1.924-5.191l0,0c1.539-0.387,3.27-0.963,4.809-1.348c0,0,0,0,0.192,0c1.539-0.576,3.271-0.961,4.809-1.537l0,0
		l0,0c1.154-0.385,1.924-0.58,3.848-1.348l3.847,1.539l1.346,0.576c-0.385,0.963-0.961,1.924-1.346,2.887
		C573.126,477.075,572.934,477.269,572.934,477.462C572.934,477.269,572.934,477.462,572.934,477.462z M601.786,489.962
		c-1.347,0.578-2.5,1.156-3.847,1.732l0,0c-0.962,0.385-1.346,0.578-1.539,0.77c0.193-0.191-0.384,0.193,0,0
		c-0.191,0-0.577,0.193-1.538,0.77l0,0c-2.308,0.961-4.425,1.922-6.732,2.885c1.731-3.27,1.731-5.963,1.731-5.963v-19.234
		c0,0,0-2.693-1.731-4.617c0.577-0.191,0.961-0.385,1.539-0.576s0.962-0.385,1.54-0.578c1.346-0.576,2.884-1.152,4.231-1.73
		c0.961-0.385,1.924-0.77,2.693-1.154c-1.731,3.271-1.731,5.963-1.731,5.963l0,0v19.234l0,0c0,0,0,0,0,0.195
		c1.155-0.387,0.193,0,1.347-0.578c0,0,2.885-1.348,5.193-4.039c0,0.189,0.577,1.729,1.153,3.268l0,0L601.786,489.962z
		 M605.44,464.188c-0.385,0.191-0.961,0.385-1.347,0.578c-0.191,0-0.383,0.191-0.576,0.191v-10.004v-0.189v-0.771
		c0.193-0.189,0.576-0.189,0.769-0.383c0,0,0.193,0,0.193-0.193c0,0,0.192,0,0.192-0.191c1.346-0.771,3.27-1.539,4.231-2.115
		c0,0.189-0.192,0.576-0.385,1.154c-0.192,0.576-0.384,1.539-0.577,2.307c-0.193,0.383-0.193,0.961-0.384,1.348
		c0,0.189,0,0.383-0.192,0.383c-0.578,2.117-1.155,4.424-1.731,5.963l0,0C605.633,463.419,605.44,463.997,605.44,464.188z
		 M611.789,485.538L611.789,485.538L611.789,485.538c0.192-0.191,0.192-0.576,0.384-0.77c0.961-2.307,1.347-4.615,1.347-5.193
		v-0.189v-11.734l0,0c0-0.385-0.193-1.539-0.77-2.885c-0.193-0.578-0.577-1.156-0.961-1.732l0,0l0,0
		c0.384-0.191,0.961-0.385,1.346-0.576c0,0,0.192,0,0.192-0.193c0.384-0.191,0.77-0.383,1.154-0.576
		c0.192,0,0.384-0.193,0.577-0.193c1.731-0.77,3.271-1.539,5.001-2.115l0,0c0.192-0.193,0.577-0.193,0.77-0.385
		c0.384-0.191,0.577-0.191,0.961-0.385c0,0,0,0,0,0.193l0,0c0,0.191-0.193,0.191-0.193,0.383c-1.346,2.887-1.539,5.58-1.539,5.58
		v1.152v10.389c0,0,0.192,1.922,0.962,3.654c0,0,0,0.191,0.191,0.191c0.193,0.193,0.385,0.385,0.578,0.77l0,0l0,0
		C618.328,482.653,615.058,484.194,611.789,485.538z M640.832,472.845c-1.346,0.576-2.885,1.154-4.232,1.73l0,0h-0.191
		c-3.462,1.539-1.54,0.576-5.002,2.117c-1.346,0.576-2.692,1.152-4.039,1.73c1.539-3.078,1.539-5.578,1.732-5.965v-12.115v-1.924
		v-3.465v-1.537c0-0.385,0-2.691-1.732-4.424c0.578-0.193,0.962-0.383,1.539-0.578h0.193l0,0c0.383-0.191,0.576-0.191,0.961-0.383
		c1.539-0.578,3.078-1.346,4.616-1.924c0.385-0.193,0.77-0.385,1.154-0.385l0,0c0.578-0.191,1.154-0.385,1.731-0.77
		c-1.731,3.27-1.731,5.963-1.731,5.963l0,0v1.537v4.617v1.539v11.734l0,0c0,0,0,0,0,0.191c0.192,0,0.385-0.191,0.578-0.191
		c0,0,2.885-1.348,5.193-3.848c0,0.191,0.576,1.924,1.154,3.461l0,0L640.832,472.845z M662.566,464.767
		c-1.346,0.383-2.691,0.961-4.039,1.346l0,0c-3.461,1.154-1.924,0.768-4.424,1.539c-2.5,0.963-5.193,1.924-7.693,2.885
		c1.73-3.27,1.73-5.963,1.73-5.963v-6.926v-3.461v-3.848v-2.115v-3.27c0,0,0-1.73-0.961-3.461c-0.193-0.387-0.386-0.771-0.77-1.156
		c0.192,0,0.576-0.191,1.539-0.576c0.191,0,0.191,0,0.383-0.191c2.117-0.77,5.387-2.117,7.887-2.887
		c0.385-0.191,0.77-0.385,1.154-0.385c1.348,0.576,2.885,1.346,4.424,1.924c0.963,0.385,1.924,0.77,2.693,1.156
		c-0.193,0.191-0.193,0.576-0.385,0.768c-0.385,0.77-0.77,1.537-0.77,1.537c-2.5-0.576-5.193,0.578-5.193,0.578
		c-0.191,0-0.191,0.193-0.385,0.193c-0.77,0.385-1.539,0.578-2.307,0.961c-0.193,0.193-0.578,0.193-0.771,0.385v1.348v6.539
		c0.963-0.387,1.732-0.576,2.693-0.961c0,0,2.309-0.963,4.232-2.887v5.771v1.73c-1.924-0.576-4.232,0.191-4.232,0.191
		c-0.576,0.193-1.346,0.387-1.922,0.77c-0.193,0.193-0.578,0.193-0.771,0.385v5.578c0,0,0,0,0,0.193
		c1.154-0.385,2.309-0.77,3.465-1.154c0,0,2.883-1.154,5.191-3.461c0,0.191,0.578,1.922,1.154,3.461l0,0L662.566,464.767z"/>
	<path fill="#FFFFFF" d="M575.242,225.681c-1.153,0.77-2.115,1.539-3.269,2.502v4.809V245.3v1.924v1.924v8.654v18.85v0.191v7.504
		c1.346-0.963,2.692-1.924,3.847-2.887c0.961-0.578,1.923-1.154,2.885-1.73c1.346-0.77,2.5-1.346,3.847-1.73
		c17.888-7.117,35.968,2.5,54.049,14.232c1.347,0.963,2.693,1.732,4.04,2.693l0,0l0,0c0.961,0.77,2.116,1.346,3.077,2.115
		c14.617,9.617,29.43,19.234,43.855,21.158c-7.119-9.617-14.426-20.965-21.736-33.467c-0.576-0.963-0.383-1.924,0.385-2.309
		c10.771-4.23,21.543-10.771,32.121-22.697c-0.961,0.191-1.73,0.385-2.693,0.385C656.219,264.534,614.673,198.562,575.242,225.681z
		 M602.555,228.565c6.155,1.154,12.118,3.463,18.273,6.541c-0.578,0.77-1.347,1.539-2.117,2.5c0.77,1.348,1.347,2.885,2.117,4.23
		c-3.848-1.922-7.694-3.654-11.541-5v8.08c1.731-0.193,3.269-0.387,5-0.387c0.962,2.309,1.923,4.809,2.886,7.311
		c-2.693,0-5.194,0.191-7.887,0.576v3.848v3.846v1.539c1.924,0.576,3.847,1.346,5.578,2.115s3.463,1.539,5.193,2.502
		c-0.192,0.191-0.192,0.383-0.385,0.77c-0.384,0.576-0.576,1.346-0.961,1.922c0.386,1.346,0.961,2.693,1.347,4.039
		c-5.578-2.693-11.156-5-16.542-6.154c-0.385,0-0.577-0.193-0.962-0.193v-0.383v-10.195v-3.848V228.565z M582.937,267.804
		c0-3.846,0-7.502,0-11.348c0-1.348,0-2.5,0-3.846c0-3.271,0-6.348,0-9.619c0-1.346,0-2.5,0-3.846c0-3.076,0-6.154,0-9.232l0,0
		c2.116-0.77,4.423-1.348,6.54-1.73v15.195v3.846v9.811v2.307c0.961-0.191,1.923-0.191,2.885-0.383c1.731-0.195,3.462-0.195,5.002,0
		c-0.386,0.959-0.77,1.73-0.963,2.691c0,0.191-0.191,0.383-0.191,0.576c0.384,1.154,0.769,2.309,1.154,3.463
		c-0.386,0-0.578,0-0.963,0C591.977,265.495,587.36,266.073,582.937,267.804z M640.64,284.153c-1.539-0.193-3.078-0.961-4.809-1.922
		c-4.231-2.695-7.694-6.926-9.617-11.35c-0.77-1.539-1.154-3.078-1.347-4.615c0-0.578-0.191-1.156-0.191-1.732l0,0
		c1.153,1.154,2.116,2.502,3.27,3.654c1.154,0,2.308,0.193,3.461,0.193c0,0.768,0.193,1.537,0.578,2.309
		c0.77,1.922,2.308,3.848,4.039,5c1.347,0.77,2.5,0.961,3.463,0.576c0.768-0.385,1.154-1.152,1.154-2.115
		c0-1.732-0.577-3.076-2.309-5.387c-1.154-1.537-2.5-3.076-3.654-4.615c-1.346-1.539-2.5-3.078-3.846-4.809l0,0
		c-1.539-1.73-2.693-3.846-3.463-5.77c-0.961-1.924-1.347-3.848-1.347-5.578c0-5.578,4.617-7.502,10.195-3.848
		c2.693,1.73,5.192,4.426,7.116,7.502c-1.346-0.576-2.692-0.961-4.039-1.539c-0.192,1.154-0.385,2.115-0.577,3.271
		c-0.577-0.963-1.539-1.926-2.5-2.502c-1.923-1.154-3.462-0.576-3.462,1.346c0,0.77,0.192,1.348,0.384,1.924
		c0.193,0.578,0.577,1.348,1.347,2.309c1.154,1.539,2.5,3.078,3.654,4.615c1.347,1.539,2.5,3.271,3.847,4.809l0,0
		c3.077,4.039,5.385,8.85,5.193,12.889c0,3.078-1.154,5-3.271,5.768C642.756,284.347,641.795,284.347,640.64,284.153z"/>
	<path fill="#FFFFFF" d="M571.78,291.077c0,0.193-0.193,0.578-0.193,0.77l0,0c0,0.578,0,0.961,0,1.156c0,0,0,0,0,0.191
		s0,0.191,0,0.385c0,0.191,0,0.385,0.193,0.576c0.193,0.578,0.193,0.961,0.577,1.539l0,0c0,0,0,0,0,0.191
		c0.193,0.385,0.193,0.578,0.385,0.963l0.192,0.191c0.192,0.193,0.192,0.578,0.385,0.77c0,0.193,0.192,0.193,0.192,0.385
		c0.193,0.191,0.193,0.385,0.386,0.578c0.192,0.191,0.192,0.385,0.384,0.385c0.193,0.191,0.385,0.385,0.385,0.576
		c0.193,0.191,0.386,0.385,0.386,0.578c0.191,0.191,0.383,0.385,0.577,0.576c0.192,0.191,0.384,0.385,0.577,0.576
		c0.191,0.193,0.384,0.385,0.577,0.578c0.192,0.191,0.384,0.385,0.77,0.576c0.192,0.193,0.384,0.385,0.577,0.578
		c0.192,0.191,0.577,0.383,0.769,0.576l0,0c0.192,0,0.192,0.193,0.385,0.193l-0.193-0.193c-0.192,0-0.192-0.193-0.384-0.193l0,0
		c0,0,10.195,7.887,27.505,9.811c9.426,0.961,15.964,5.961,19.428,9.617c2.115,2.117,3.27,3.848,3.27,3.848
		s-0.192-0.193-0.577-0.387l-0.193-0.189c-0.192,0-0.385-0.193-0.577-0.193s-0.384-0.193-0.384-0.193
		c-0.193-0.191-0.385-0.191-0.578-0.383c-0.192-0.193-0.384-0.193-0.577-0.385c-0.192-0.193-0.384-0.193-0.577-0.385
		c-0.192-0.193-0.578-0.193-0.769-0.385c-0.192-0.193-0.385-0.193-0.77-0.385l0,0c-0.192-0.193-0.578-0.387-0.961-0.387
		c-0.193-0.191-0.578-0.191-0.771-0.383c-0.384-0.193-0.769-0.385-0.961-0.578c-0.191-0.193-0.577-0.193-0.769-0.385
		c-0.385-0.191-0.77-0.385-1.154-0.576c-0.193-0.191-0.578-0.191-0.771-0.385c-0.384-0.191-0.769-0.385-1.153-0.576
		c-0.385-0.193-0.577-0.193-0.961-0.385c-0.386-0.193-0.769-0.387-1.347-0.578c-0.384-0.191-0.577-0.191-0.961-0.387
		c-0.385-0.189-0.962-0.383-1.347-0.383c-0.384-0.193-0.577-0.193-0.961-0.383c-0.386-0.195-0.962-0.387-1.347-0.387
		c-0.385-0.191-0.577-0.191-0.961-0.191c-0.385-0.191-0.962-0.191-1.346-0.385c-0.386,0-0.577-0.193-0.962-0.193
		c-0.385-0.191-0.962-0.191-1.347-0.383c-0.385,0-0.77-0.193-0.961-0.193c-0.385,0-0.962-0.191-1.347-0.191
		c-0.192,0-0.192,0-0.385,0l0,0c0.578,0.191,0.961,0.576,1.54,0.768c0.192,0.193,0.384,0.193,0.576,0.387
		c5.001,2.885,11.349,6.346,16.542,9.615c2.116,1.348,4.039,2.502,5.962,3.848c2.5,1.539,4.809,3.076,7.309,4.615
		c0.578,0.387,1.154,0.771,1.731,1.154c0.384,0.193,0.961,0.578,1.347,0.963c0.384,0.191,0.961,0.578,1.347,0.961l0,0
		c0-0.191,0-0.383,0-0.578c0-0.383,0-0.768,0-0.961l0,0v-0.191v-0.385l0,0c0-0.963-0.193-2.117-0.385-3.27
		c-0.192-0.77-0.385-1.539-0.578-2.309c-0.769-2.309-1.73-4.809-3.462-7.309c-3.462-5.002-9.424-10.002-19.619-13.85
		c-3.654-1.346-10.387-2.307-15.004-3.078c-0.961-0.191-2.115-0.385-2.884-0.576c-0.192,0-0.385-0.193-0.77-0.193
		c-0.77-0.191-1.54-0.385-2.116-0.576c-0.193,0-0.385,0-0.578-0.191c-0.77-0.191-1.731-0.387-2.308-0.77h-0.193
		c-0.77-0.193-1.345-0.385-1.923-0.77h-0.192l0,0c-5.771-2.693-9.041-6.732-10.387-8.656l0,0c0.193,0,0.193,0,0.385,0.193
		c4.808,2.307,8.655,5.961,21.543,8.27c4.616,0.77,11.348,1.541,15.579,3.078c10.771,4.039,17.312,9.426,21.158,15.002
		c0.769,1.154,1.347,2.309,1.923,3.463c0.192,0.576,0.577,0.963,0.77,1.539c0.385,0.77,0.577,1.539,0.961,2.309l0,0l-0.191-21.928
		l0,0l0,0l-1.539-1.539l-0.769-0.77l-9.233-8.463l-1.346-0.385l0,0c0,0,6.347,3.654,8.847,5.193c0.192,0,0.385,0.191,0.385,0.191
		s0.192,0.193,0.385,0.193c0.193,0,0.384,0.191,0.384,0.191c0.385,0.193,0.77,0.385,1.155,0.578
		c0.384,0.191,0.577,0.385,0.961,0.576l0,0c0,0,0.193,0,0.193,0.193c0,0,0.192,0,0.192,0.191l0.576,0.385l0.387,0.193l0,0
		c0.768,0.385,1.345,0.77,2.114,1.152c22.505,13.08,30.584,13.85,32.505,13.85c-9.615-3.463-19.232-9.615-28.85-15.771
		c-1.347-0.963-2.693-1.732-3.655-2.309c-0.77-0.576-1.538-0.963-2.114-1.346l0,0c-0.193-0.193-0.578-0.385-0.771-0.578
		c-0.192,0-0.192-0.191-0.384-0.191c-0.578-0.387-0.962-0.77-1.539-0.963c-0.578-0.385-0.961-0.576-1.539-0.961
		c-18.657-12.117-37.507-22.311-55.78-14.617c-1.539,0.77-3.27,1.537-4.809,2.5c0,0,0,0.191-0.192,0.191l0,0
		c-0.193,0.191-0.193,0.191-0.386,0.385l0,0c-0.191,0.191-0.384,0.385-0.768,0.578l0,0l0,0c-0.386,0.385-0.77,0.576-1.154,0.961
		l-0.193,0.193c-0.384,0.383-0.577,0.576-0.961,0.959c0,0,0,0,0,0.193c-0.192,0.385-0.385,0.578-0.578,0.961
		c0,0,0,0.193-0.191,0.193c-0.193,0.385-0.385,0.578-0.385,0.963c0,0,0,0,0,0.191C571.973,290.501,571.78,290.694,571.78,291.077
		L571.78,291.077z"/>
	<path fill="#FFFFFF" d="M555.239,277.228c-1.731,0-2.886,1.35-2.886,2.887c0,1.732,1.347,2.887,2.886,2.887
		c1.731,0,2.884-1.348,2.884-2.887C558.316,278.577,556.97,277.228,555.239,277.228z"/>
	<polygon fill="#FFFFFF" points="578.896,578.825 578.896,578.825 575.434,582.286 578.127,583.634 	"/>
	<path fill="#FFFFFF" d="M702.189,450.532c1.154-0.576,1.539-2.117,0.77-3.27c-0.576-1.154-2.115-1.539-3.27-0.77
		c-1.154,0.578-1.539,2.117-0.961,3.27C699.689,450.726,701.035,451.11,702.189,450.532z"/>
	<path fill="#FFFFFF" d="M687.379,449.571c0.576-1.156,0.193-2.5-0.77-3.27c-1.154-0.578-2.5-0.193-3.27,0.77
		c-0.578,1.152-0.193,2.5,0.77,3.268C685.455,451.11,686.801,450.726,687.379,449.571z"/>
	<path fill="#FFFFFF" d="M695.648,450.532c0-1.346-0.961-2.309-2.307-2.309c-1.348,0-2.309,0.963-2.309,2.309
		s0.961,2.309,2.309,2.309C694.496,452.841,695.648,451.878,695.648,450.532z"/>
	<path fill="#FFFFFF" d="M708.729,443.991c0.578-1.152,0.191-2.498-0.768-3.27c-1.154-0.576-2.502-0.191-3.271,0.771
		c-0.576,1.152-0.191,2.498,0.77,3.268C706.613,445.339,708.152,444.954,708.729,443.991z"/>
	<path fill="#FFFFFF" d="M671.223,480.923c2.501-0.77,5-1.537,7.693-2.115l0,0v-5.193c-0.578,0.191-0.963,0.191-1.539,0.385
		c-0.385,0.191-0.77,0.191-1.346,0.385c-37.508,10.578-75.399,33.467-113.676,44.814c-2.693,0.77-5.385,1.537-8.27,2.115
		c-0.578,0.193-1.154,0.385-1.732,0.385c-0.577,0.193-0.961,0.193-1.539,0.385c-1.153,0.193-2.115,0.576-3.27,0.77
		c-8.463,1.73-16.733,2.693-25.197,2.693l0,0v4.422c9.617,0,18.85-1.152,28.275-3.074c1.346-0.195,2.5-0.578,3.846-0.771
		c1.924-0.385,3.847-0.963,5.771-1.346c4.231-1.154,8.463-2.5,12.694-3.848c4.039-1.346,8.079-2.885,12.119-4.424
		c0.769-0.383,1.538-0.576,2.307-0.961c4.424-1.73,8.849-3.461,13.079-5.385c2.116-0.963,4.232-1.732,6.348-2.693
		c10.388-4.422,20.581-9.232,30.775-13.656c4.233-1.924,8.656-3.654,12.887-5.387c0.77-0.383,1.539-0.574,2.309-0.961
		c4.039-1.539,8.078-3.076,12.311-4.422C666.99,482.269,669.107,481.499,671.223,480.923z"/>
	<path fill="#FFFFFF" d="M681.609,360.13L681.609,360.13c0.961,0.193,1.73,0.576,2.5,0.77l0.191-0.193
		c0.193-0.191,0.385-0.383,0.578-0.576c0.191-0.191,0.383-0.385,0.77-0.576c0.191-0.193,0.385-0.193,0.385-0.385
		c0.191-0.193,0.576-0.387,0.768-0.387h0.193c0,0,0,0,0.191,0c0.193,0,0.193-0.189,0.387-0.189c0.383-0.195,0.768-0.387,1.346-0.387
		h0.191c0.578-0.191,0.961-0.191,1.539-0.191l0,0l0,0c0.578,0,0.963,0,1.539,0.191l0,0l0,0c0.193,0,0.193,0,0.385,0.191
		c0.385,0,0.576,0.195,0.963,0.195c0.191,0,0.383,0.189,0.576,0.189c0.191,0,0.385,0.193,0.385,0.193
		c0.191,0,0.191,0.193,0.385,0.193c0.191,0.191,0.383,0.191,0.576,0.385c0.191,0.191,0.385,0.385,0.578,0.576
		c0.191,0.193,0.383,0.385,0.576,0.385c0.191,0.191,0.385,0.385,0.576,0.576c0.385,0.385,0.578,0.77,0.77,1.156
		c0.193,0.189,0.193,0.383,0.385,0.576c0.193,0.191,0.193,0.576,0.387,0.77l0,0c0,0.191,0.191,0.191,0.191,0.385
		c1.73,0.191,3.463,0.191,5.193,0.191c0.385,0,0.576,0,0.961,0c-0.576-3.463-2.309-6.541-4.809-8.654c0,0,0,0-0.191-0.193
		c-0.193-0.193-0.578-0.385-0.77-0.578c-0.193,0-0.193-0.191-0.385-0.191c-0.191-0.193-0.385-0.385-0.77-0.385
		c-0.193,0-0.385-0.193-0.385-0.193c-0.193-0.191-0.385-0.191-0.578-0.383c-0.191,0-0.385-0.193-0.576-0.193
		c-0.193,0-0.385-0.193-0.576-0.193c-0.193,0-0.387-0.191-0.771-0.191c-0.191,0-0.383-0.191-0.576-0.191
		c-0.191,0-0.576-0.193-0.77-0.193c-0.191,0-0.383,0-0.576-0.191c-0.385,0-0.578-0.193-0.961-0.193c-0.193,0-0.193,0-0.387,0
		c-0.383,0-0.77,0-1.154,0c-0.191,0-0.191,0-0.383,0l0,0c-0.576,0-1.154,0-1.539,0.193c-0.191,0-0.385,0-0.578,0
		c-0.191,0-0.191,0-0.385,0c-0.383,0-0.576,0.191-0.77,0.191c-0.191,0-0.385,0-0.385,0.193c-1.152,0.383-2.115,0.77-3.076,1.346l0,0
		c-0.193,0.191-0.385,0.191-0.385,0.385c-0.385,0.191-0.578,0.385-0.961,0.77l0,0c-1.348,1.154-2.502,2.5-3.463,4.039
		c0,0,0,0,0,0.193c0,0,0,0,0.191,0h0.193C679.492,359.554,680.646,359.938,681.609,360.13z"/>
	<path fill="#FFFFFF" d="M622.174,417.833L622.174,417.833C622.367,417.833,622.174,417.833,622.174,417.833
		C622.367,417.833,622.367,417.642,622.174,417.833c0.193-0.191,0.193-0.191,0.386-0.191c0-0.193,0.192-0.385,0.385-0.578
		c0,0,0.192-0.385,0.769-0.77c0.577-0.383,1.346-0.768,2.308-0.768c0.962,0,1.731,0.385,2.309,0.768
		c0.577,0.385,0.77,0.77,0.77,0.77c0.192,0.385,0.383,0.578,0.576,0.578c0,0,0,0,0.193,0c0.192,0,0.192-0.193,0.192-0.193l0,0
		c0,0,0-0.385,0-0.77s-0.192-1.73-0.385-2.307c0,0-1.154-1.924-3.27-1.924s-3.27,1.924-3.27,1.924
		c-0.385,0.576-0.385,1.922-0.385,2.307L622.174,417.833C621.983,417.642,621.983,417.642,622.174,417.833L622.174,417.833z"/>
	<path fill="#FFFFFF" d="M571.973,224.526c0.961-0.77,2.116-1.73,3.078-2.309c35.198-24.234,71.743,25.006,107.328,33.662
		c5.77,1.346,11.348,1.73,17.117,0.385c0,0,0,0,0-0.193c-0.191,0-0.385,0-0.576,0.193c0.385-0.193,0.77-0.578,0.576-0.77
		c0-0.193-0.385-0.193-0.768-0.387c-0.578-0.191-6.156-0.576-12.119-1.922c-7.887-1.539-14.811-4.809-22.889-9.809
		c-0.191,0-0.191-0.193-0.385-0.193c-6.154-3.848-11.926-7.693-18.08-11.541c-1.924-1.348-3.848-2.5-5.962-3.846
		c-14.234-8.848-28.082-16.543-41.547-16.928c-8.079-0.193-17.888,0.77-26.543,8.271c0,1.73,0,3.654,0.193,5.385
		C571.587,224.72,571.78,224.526,571.973,224.526z"/>
	<path fill="#FFFFFF" d="M649.295,336.856c-2.692,1.154-5,2.115-6.924,3.078l-0.193,0.576l0,0c1.154,0.576,2.117,1.346,3.271,1.924
		c0.576,0.385,0.961,0.576,1.537,0.961c0.385-0.191,0.77-0.385,0.963-0.385c0.768-0.385,1.537-0.77,2.309-0.961
		c0.576-0.193,0.961-0.385,1.539-0.578c0.768-0.385,1.346-0.576,2.115-0.961c0.576-0.193,0.961-0.385,1.539-0.576
		c0.576-0.193,1.346-0.578,1.922-0.77c0.578-0.193,0.961-0.385,1.539-0.576c0.576-0.195,1.154-0.387,1.73-0.578
		c0.578-0.193,1.154-0.385,1.732-0.578c0.576-0.191,1.154-0.385,1.73-0.576c0.578-0.193,1.154-0.385,1.924-0.576
		c0.576-0.193,0.961-0.193,1.539-0.387c0.77-0.191,1.539-0.383,2.309-0.383c0.383,0,0.768-0.193,1.346-0.193
		c0.191,0,0.385,0,0.576,0c0.961-0.191,1.925-0.385,2.886-0.385h0.193c0.384,0,0.767,0,1.153,0c3.461-0.385,6.73-0.578,9.809-0.578
		c2.5,0,4.809,0.193,7.117,0.385c0,0,0,0,0.191,0c2.309,0,5.963,0.578,5.963,0l0,0c0-0.191-0.191-0.191-0.576-0.385
		c-7.117-1.922-13.85-2.691-20.004-2.691C666.029,331.278,656.219,334.161,649.295,336.856z"/>
	<path fill="#FFFFFF" d="M725.463,535.548h-37.891h-0.193c-12.694,25.582-39.047,43.277-69.628,43.277
		c-15.195,0-29.236-4.424-41.162-11.924c-11.925-7.504-21.734-18.275-28.275-30.969c0-0.193-0.191-0.193-0.191-0.385l-0.193,0.191
		l0,0h-37.507l11.925,11.734l-11.925,12.693h0.769h20.39l-3.271-10c0.385,0.576,0.578,1.154,0.962,1.535
		c8.655,15.199,20.966,27.893,35.969,36.934c15.387,9.23,33.467,14.619,52.702,14.619c38.661,0,72.321-21.545,89.631-53.281
		l-0.961,2.695l-2.5,7.309h0.576h20.582l-11.926-12.697l11.732-11.541L725.463,535.548z M692.957,564.206
		c-1.154,1.348-2.693,2.309-4.424,2.887l-1.348-3.27c1.154-0.191,2.502-0.578,3.271-1.539c0.576-0.578,0.77-1.732,0-2.307
		c-0.77-0.58-2.117,0.189-2.693,0.768c-2.115,1.346-3.463,2.115-5.578,0.385c-2.309-1.924-2.309-4.807-0.578-6.924
		c0.963-1.154,2.502-2.117,3.848-2.693l1.346,3.078c-0.961,0.191-1.73,0.576-2.307,1.344c-0.385,0.578-0.77,1.541-0.193,1.926
		c0.578,0.576,1.539,0,2.115-0.385l0.77-0.578c1.732-1.154,3.463-1.73,5.387-0.191c1.154,0.961,1.924,2.115,2.115,3.654
		C694.496,561.706,693.918,563.052,692.957,564.206z M550.431,557.476l-6.54,5.963l-2.501-2.887l10.771-9.617l2.5,2.887
		l-2.116,10.963l0,0l6.54-5.963l2.5,2.885l-10.771,9.617l-2.5-2.885L550.431,557.476L550.431,557.476z M573.126,584.403l-2.115,1.73
		l-3.462-1.73l11.54-10.387l3.655,1.922l-1.73,15.389l-3.655-1.922l0.385-2.695L573.126,584.403z M615.635,598.636l-3.655-0.383
		l-5.964-9.426l0,0l-0.961,8.848l-3.655-0.385l1.539-14.424l3.654,0.383l5.962,9.426l0,0l0.963-8.848l3.655,0.383L615.635,598.636z
		 M664.49,576.519l3.654-2.309l1.732,2.689l-3.656,2.311l1.348,2.115l3.846-2.309l1.732,2.693l-6.926,4.23l-7.693-12.309l6.926-4.23
		l1.73,2.691l-3.848,2.309L664.49,576.519z M643.525,595.175l-3.655,0.963l-2.693-10.965l-3.078,0.768l-0.769-3.076l9.616-2.309
		l0.77,3.078l-3.077,0.77L643.525,595.175z"/>
	<path fill="#FFFFFF" d="M725.463,430.722L725.463,430.722c-0.191,0-0.191,0-0.385,0c-1.539,0.576-3.078,0.961-4.424,1.537
		c-2.115,0.578-4.232,1.154-6.348,1.346c-3.461,0.578-7.117,0.963-10.578,0.963l0,0c-7.117,0-14.234-1.154-21.35-3.27
		c0,0,0,0-0.193,0l0,0c-1.154-0.385-2.309-0.771-3.27-1.154c-0.193,0-0.385-0.193-0.578-0.193c-2.5-0.77-4.999-1.73-7.693-2.885
		c-0.768-0.385-1.537-0.576-2.307-0.961c-0.963-0.385-1.732-0.77-2.693-1.154c-1.154-0.576-2.115-0.961-3.27-1.539
		c-0.963-0.385-1.924-0.961-2.887-1.346c-0.961-0.385-1.922-0.963-2.885-1.346c-1.152-0.578-2.115-1.154-3.27-1.732
		c-0.385-0.193-0.77-0.385-1.346-0.576c-2.309-1.154-4.617-2.5-6.925-3.85c-1.154-0.576-2.308-1.344-3.269-1.922
		c-6.733-3.846-13.273-8.078-19.812-12.311c-0.193-0.191-0.386-0.191-0.578-0.383c-1.732-1.156-3.462-2.117-5.001-3.271
		c-3.848-2.5-7.694-4.807-11.541-7.115c-0.771-0.578-1.731-0.963-2.501-1.541c-0.577-0.383-0.961-0.576-1.538-0.961
		s-1.154-0.576-1.539-0.961c-0.578-0.385-1.154-0.576-1.539-0.961c-0.577-0.387-1.154-0.578-1.538-0.963
		c-0.385-0.193-0.77-0.385-0.963-0.578c-0.961-0.576-1.923-1.152-2.885-1.729c-1.153-0.578-2.308-1.348-3.461-1.926
		c-4.617-2.498-9.425-4.807-14.042-6.732c-2.308-0.961-4.425-1.73-6.733-2.5c-9.04-3.27-17.887-5.193-26.928-5.193
		c-5.386,0-10.771,0.77-16.157,2.309c-0.384,0.193-0.962,0.193-1.347,0.385c-0.769,0.191-1.538,0.578-2.308,0.77l0,0
		c-0.193,0.193-0.193,0.193-0.385,0.385c-0.385,0.576-0.77,1.154-0.77,1.732c0,0.191,0,0.191,0,0.383c0,0.193,0,0.385,0.193,0.578
		c0.192,0.385,0.385,0.77,0.769,1.152c0.386,0.385,0.962,0.963,1.539,1.539c0.385,0.193,0.769,0.578,1.154,0.963
		c0.385,0.385,0.961,0.576,1.347,0.961c1.154,0.771,2.692,1.541,4.423,2.309c0.577,0.193,1.155,0.578,1.924,0.77
		c4.231,1.73,10.001,3.846,17.696,5.771c1.538,0.385,2.885,0.768,4.231,1.346c0.385,0.191,0.578,0.191,0.961,0.383
		c1.347,0.387,2.501,0.77,3.847,1.348h0.192l0,0c-0.385,0.193-0.961,0.578-1.347,0.77c-0.191,0-0.191,0.193-0.384,0.193
		c-0.385,0.191-0.962,0.576-1.347,0.961c-0.191,0-0.191,0.191-0.384,0.191c-3.655,2.309-7.502,5.193-8.848,6.156
		c-0.192,0.383-0.192,0.961-0.385,1.537c0,0.193,0,0.385,0,0.385c0.963-0.385,2.116-0.77,3.463-1.344
		c0.191,0,0.191-0.195,0.384-0.195l10.387-4.615l2.692-1.154l1.154-0.385l0,0h0.192c0,0,0.192,0,0.192-0.191
		c0.192,0,0.385-0.193,0.385-0.193l0,0h0.193c0.385-0.191,0.961-0.385,1.346-0.576c0.577-0.193,1.155-0.385,1.731-0.77
		c0.578-0.191,1.154-0.385,1.539-0.77c-0.577-0.383-1.154-0.578-1.73-0.961c-0.193,0-0.385-0.193-0.578-0.193
		c-0.577-0.193-1.154-0.576-1.731-0.77c-0.192-0.191-0.577-0.191-0.77-0.385c-0.385-0.191-0.961-0.383-1.346-0.576
		c-0.384-0.191-0.769-0.385-1.154-0.576c-0.385-0.193-0.578-0.193-0.961-0.387c-0.578-0.191-1.154-0.385-1.731-0.77
		c0,0-0.192,0-0.385-0.191c-2.693-0.961-5.771-1.922-8.848-2.885c-0.193,0-0.577-0.193-0.77-0.193
		c-0.769-0.191-1.539-0.385-2.308-0.576c-0.384-0.193-0.77-0.193-1.154-0.385c-0.577-0.191-1.154-0.385-1.73-0.576
		c-0.386-0.193-0.771-0.193-1.154-0.385c-0.578-0.193-1.154-0.385-1.539-0.576c-0.385-0.193-0.77-0.193-0.961-0.387
		c-0.578-0.191-0.962-0.383-1.539-0.576l0,0c-0.192,0-0.577-0.191-0.77-0.191c-0.77-0.193-1.346-0.578-2.116-0.771
		c-0.192-0.191-0.577-0.191-0.769-0.191c-0.385-0.191-0.963-0.385-1.347-0.578c-0.385-0.191-0.578-0.191-0.962-0.383
		c-0.192,0-0.385-0.193-0.577-0.193l0,0c-3.654-1.924-4.04-3.27-4.04-3.27s-0.384-0.385,1.539,0.191l0,0
		c1.54,0.385,8.271,2.502,14.042,4.041c1.73,0.383,3.462,0.768,4.809,1.154l0,0c0.769,0.191,1.346,0.385,2.115,0.576
		c0.192,0,0.385,0,0.385,0.191c1.154,0.387,2.308,0.578,3.462,0.963c0.385,0,0.576,0.191,0.961,0.191
		c0.77,0.193,1.731,0.578,2.5,0.77c0.385,0.191,0.77,0.191,0.963,0.385c0.769,0.191,1.538,0.576,2.115,0.77
		c0.384,0.193,0.577,0.193,0.961,0.385c0.769,0.191,1.347,0.578,2.116,0.77c0.385,0.191,0.578,0.191,0.962,0.385
		c0.769,0.385,1.346,0.576,2.116,0.961c0.193,0.191,0.576,0.191,0.769,0.385c0.77,0.385,1.346,0.576,2.115,0.961
		c0.192,0.193,0.385,0.193,0.578,0.387c0.769,0.385,1.346,0.77,2.116,1.152c0.192,0,0.384,0.193,0.384,0.193
		c0.193,0,0.193,0.191,0.386,0.191l0,0c2.308-0.961,4.616-1.924,6.731-2.885l-0.192-0.193l-13.656-8.848
		c1.924,0.578,3.847,1.348,5.771,2.117l11.54,5.193l0.385,0.191c0.961,0.578,2.116,1.154,3.27,1.73
		c0.77,0.385,1.346,0.77,2.116,1.156c2.308,1.152,4.616,2.5,6.924,3.846l0,0l0,0c0,0,0.192,0,0.192,0.193
		c0.578,0.385,1.154,0.576,1.539,0.961c0.191,0.191,0.384,0.191,0.577,0.385l0,0l0,0c0,0,0,0-0.193,0.191
		c-0.193,0.193-0.193,0.193-0.384,0.385c-0.577,0.578-1.153,1.154-1.539,1.539c-1.539,1.539-2.885,3.27-4.039,5.193
		c-0.578,0.961-1.154,1.73-1.731,2.693c0,0,0,0.191-0.192,0.191c-0.578,0.963-0.962,1.924-1.539,2.887
		c-0.577,1.154-0.962,2.309-1.347,3.461c-0.385,1.154-0.77,2.309-0.962,3.463c-0.769,3.078-1.154,6.348-1.154,9.811
		c0,8.078,2.309,15.387,6.348,21.734c-0.192,0-0.384,0.191-0.577,0.191c-0.193,0-0.385,0.193-0.769,0.193
		c-1.539,0.578-2.886,1.154-4.424,1.73l0,0l0.192-0.385l0,0h-0.577l-6.155,0.961c-0.385,0-0.962-0.191-1.154-0.576
		c-0.192-0.385-0.192-0.77,0-1.152l2.501-3.078l1.73-2.117l-6.733-0.193c-0.191,0-0.384,0-0.384-0.191
		c-0.192-0.191-0.384-0.385-0.578-0.578c0-0.191,0-0.383,0-0.77c0-0.189,0.193-0.383,0.193-0.383l1.923-1.732l3.077-2.885
		l-3.846-0.77l-2.693-0.576c-0.192,0-0.192,0-0.192-0.193c-0.386-0.191-0.578-0.385-0.578-0.768c0-0.385,0.192-0.961,0.578-1.154
		l1.345-0.771l4.424-2.691l0,0l-5.386-2.115l-0.961-0.385c-0.385-0.193-0.769-0.578-0.769-0.961c0-0.385,0.191-0.77,0.769-0.963
		l6.347-2.5l-5.77-3.463c-0.193-0.191-0.386-0.191-0.386-0.385c0-0.191-0.192-0.385,0-0.576c0-0.193,0.193-0.578,0.386-0.578
		c0.192,0,0.192-0.193,0.384-0.193l4.232-0.768l2.501-0.576l-5.001-4.426c-0.192-0.191-0.192-0.191-0.192-0.383
		c-0.192-0.193-0.192-0.578,0-0.77c0.192-0.385,0.576-0.771,0.962-0.771l4.232-0.189l0,0h2.5l-4.231-5.195v-0.193
		c-0.193-0.191-0.193-0.385-0.193-0.574c0-0.195,0-0.195,0-0.387c0.193-0.191,0.385-0.383,0.577-0.383c0.193,0,0.385,0,0.385,0l0,0
		l3.462,0.574l3.27,0.578l0,0l-1.347-2.309v-0.191l-0.576-1.154l-1.347-2.309c-0.192-0.191-0.192-0.385-0.192-0.768l0,0
		c0-0.193,0-0.387,0.192-0.387c0-0.191,0.192-0.191,0.385-0.191l0.191-0.193h0.192c0.192,0,0.192,0,0.385,0l6.154,2.117l0,0
		c0,0,0,0,0-0.193c0.193-0.576-0.385-1.539-1.154-2.309c-0.192-0.191-0.577-0.576-0.961-0.961c-1.347-1.348-3.462-2.693-5.001-3.654
		l0,0c-2.116,0.961-4.424,1.922-6.732,3.078c-0.192,0-0.192,0-0.385,0.191c-1.154,0.385-2.115,0.961-3.27,1.346
		c-0.385,0.193-0.578,0.193-0.962,0.385c-0.384,0.193-0.77,0.385-1.154,0.578c-0.192,0-0.192,0-0.385,0.193
		c-0.577,0.189-1.154,0.383-1.731,0.768c-0.385,0.193-0.577,0.193-0.962,0.385c-0.383,0.193-0.769,0.387-1.153,0.576
		c-0.193,0.193-0.577,0.193-0.77,0.385c-0.577,0.193-1.153,0.578-1.731,0.77c-1.154,0.578-2.116,0.961-3.269,1.539
		c-0.77,0.385-1.731,0.77-2.501,1.156c-0.192,0.191-0.385,0.191-0.77,0.383c-0.577,0.387-1.346,0.576-1.923,0.77
		c-0.192,0-0.192,0.191-0.385,0.191c-0.769,0.387-1.538,0.578-2.308,0.963c-0.77,0.385-1.54,0.576-2.308,0.961l0,0l0,0l-4.04,1.732
		l0,0c0,0-0.384,0.191-0.961,0.383h-0.193c-0.191,0-0.384,0.193-0.769,0.193l0,0l0,0c-0.769,0.191-1.155,0.385-1.155,0.385
		s-0.577,0.193-1.346,0.385l0,0c-0.192,0-0.576,0.191-0.961,0.191c-1.346,0.385-3.27,0.963-5.001,1.348l0,0
		c-0.577,0.193-1.154,0.193-1.731,0.385h-0.193c-2.116,0.193-3.462-0.191-4.424-0.961c-0.577-0.387-1.154-0.963-1.539-1.541
		c-1.347-2.113-0.962-4.998-0.77-5.963c-0.578,0-0.961,0.195-1.539,0.387c-1.732,0.768-2.693,2.309-3.27,4.039
		c-0.193,0.77-0.578,1.537-0.578,2.115c-0.384,1.539-0.384,2.885-0.384,2.885c0,0.77,0,1.346,0,1.924c0,0.385,0,0.578,0,0.77
		c0,0.961,0.192,1.73,0.384,2.691c1.347,6.926,5.578,11.35,10.579,14.426c0.577,0.385,1.154,0.578,1.731,0.963
		c1.539,0.77,3.27,1.539,5,2.115c0.193,0,0.578,0.193,0.771,0.193c1.347,0.385,2.692,0.768,4.038,1.154c0.193,0,0.386,0,0.386,0.191
		c1.923,0.387,3.462,0.578,4.809,0.771c2.308,0.191,3.654,0.191,3.654,0.191s-0.192,0-0.385,0.191l0,0l0,0c0.578,0,0.963,0,0.963,0
		l0,0l0,0c0,0,0,0-0.193,0l0,0c0,0-0.192,0-0.192,0.193c0,0,0,0-0.193,0l0,0l0,0c0,0-0.192,0.191-0.385,0.191
		c0,0-0.191,0-0.191,0.193l0,0l0,0l0,0c-0.385,0.191-0.578,0.576-0.962,0.768c-0.193,0-0.193,0.193-0.384,0.193
		c-0.192,0-0.192,0.191-0.385,0.191l0,0c-0.385,0.193-0.576,0.578-0.961,0.963l0,0l0,0l0,0c-0.385,0.387-0.77,0.77-1.154,1.154l0,0
		l0,0l0,0c-0.192,0.191-0.385,0.385-0.385,0.576c-0.77,0.77-1.539,1.732-2.309,2.695c-0.192,0.383-0.577,0.768-0.769,1.152l0,0l0,0
		l0,0c-0.193,0.385-0.385,0.77-0.77,1.152c-0.193,0.195-0.193,0.387-0.385,0.578l0,0l0,0l0,0c-0.769,1.348-1.346,2.693-1.731,4.232
		l0,0c-0.192,0.77-0.384,1.539-0.577,2.309v0.191c-0.191,0.77-0.384,1.539-0.384,2.5c0,0.193,0,0.193,0,0.385
		c0,0.576,0,1.154-0.192,1.732c0,0.383,0,0.576,0,0.961l0,0c0,1.154,0,2.309,0,3.463c0,0.576,0,0.961,0.192,1.539
		c0,0.77,0.193,1.539,0.384,2.309v0.191v0.191c0.577-0.191,1.346-0.191,1.924-0.383c4.231-0.77,8.656-1.732,12.887-2.887l0,0
		c8.655-2.309,17.503-5.191,26.159-8.463l0,0c1.731-0.576,3.271-1.346,5.001-1.922c2.116-0.771,4.04-1.732,6.155-2.502
		c0.192-0.193,0.578-0.193,0.769-0.385c0,0,0.192,0,0.192-0.191c0.193,0,0.193-0.193,0.385-0.193c1.924-0.77,3.847-1.539,5.77-2.5
		c1.539-0.77,3.078-1.346,4.809-2.117c2.116-0.961,4.232-1.922,6.347-2.885l0,0c1.154-0.576,2.309-0.963,3.271-1.539l0,0
		c2.501-1.152,5-2.309,7.5-3.27c5.194-2.307,10.388-4.615,15.773-6.924c3.655-1.539,7.309-3.078,10.963-4.617
		c0.193,0,0.385-0.191,0.77-0.385c0.191,0,0.385,0.193,0.576,0.193c0.387,0.191,0.77,0.385,1.154,0.576
		c0.77,0.385,1.346,0.77,2.115,1.154c0.387,0.191,0.771,0.385,1.348,0.578c1.537,0.77,2.885,1.539,4.422,2.307
		c0.193,0,0.193,0.193,0.387,0.193c1.539,0.768,3.078,1.346,4.424,2.115c0.193,0.193,0.385,0.193,0.576,0.385
		c1.539,0.576,2.887,1.346,4.424,1.922c0.385,0.195,0.963,0.387,1.348,0.578c1.152,0.387,2.308,0.963,3.462,1.348l0,0
		c0.575,0.191,1.153,0.385,1.729,0.576l0,0h0.193c0.576,0.193,1.154,0.385,1.73,0.576c0.578,0.195,0.963,0.385,1.539,0.385l0,0
		c0.191,0,0.578,0.193,0.77,0.193c0.77,0.193,1.348,0.385,2.115,0.578c0.193,0,0.385,0.191,0.578,0.191v2.502
		c1.537,4.424,5.77,7.693,10.963,7.693c5.002,0,9.232-3.27,10.963-7.693c1.154,0,2.311,0,3.463-0.193c0.385,0,2.309,0,4.809-0.193
		c-1.73,9.234-9.617,16.158-19.234,16.158c-4.039,0-7.693-1.154-10.963-3.27v2.691v2.885c0.191,0,0.385,0,0.385,0
		c0.576,0.193,1.152,0.387,1.73,0.77c0,0,0.193,0.193,0.385,0.193c0.385,0.191,0.77,0.77,1.346,1.73l2.887,7.887
		c0.191,0.385,0.576,0.768,0.961,0.961c0.193,0,0.385,0.193,0.576,0.193h4.809c0.578,0,1.348-0.387,1.539-1.154l2.693-7.309
		c0.77-1.924,1.924-2.502,1.924-2.502c0.578-0.193,1.154-0.383,1.539-0.77c0.191,0,1.152-0.191,2.5,0.193l7.693,3.461
		c0.576,0.193,1.348,0.193,1.73-0.383l3.463-3.463c0.385-0.387,0.578-1.348,0.385-1.924l-3.27-7.115
		c-0.77-1.926-0.385-3.27-0.385-3.27c0.193-0.578,0.385-1.154,0.77-1.732c0.191-0.191,0.77-0.963,1.924-1.539l7.887-2.885
		c0.191,0,0.191-0.193,0.383-0.193c0.385-0.383,0.578-0.768,0.578-1.344v-4.813c0-0.383-0.193-0.961-0.578-1.152
		C725.848,430.913,725.656,430.722,725.463,430.722z M624.098,407.062C624.291,407.062,624.291,407.062,624.098,407.062
		c1.347,0.771,2.5,1.539,3.655,2.309l0,0c1.154,0.77,2.308,1.348,3.462,2.117c0.192,0,0.192,0.191,0.385,0.191
		c1.154,0.77,2.116,1.346,3.269,2.115c0.193,0.191,0.386,0.191,0.578,0.385c0.385,0.193,0.962,0.576,1.347,0.77
		c0.577,0.385,1.347,0.77,1.923,1.154l0,0c0.192,0.385,0.192,0.77,0.385,1.154c0.192,1.154,0.385,2.309,0.385,3.463
		c0,0.191,0,0.383,0,0.768c-2.309,0.963-4.425,1.924-6.732,2.887c0.384-1.156,0.769-3.271,0.769-4.232c0,0,0,0,0-0.191
		c0-0.77,0-1.539,0-1.539l0,0c0,0-0.192-0.193-0.385-0.193c-0.192,0-0.192,0-0.192,0.193c-0.192,0.191-0.578,0.576-0.962,1.346
		c0,0-0.578,0.77-1.731,1.73c-0.384,0.385-0.77,0.578-1.346,0.77c-0.192,0.193-0.577,0.385-0.961,0.385
		c-0.769,0.193-1.539,0.385-2.308,0.385c-1.54,0-2.693-0.576-3.654-1.154c-0.193-0.191-0.578-0.385-0.771-0.576
		c-1.154-0.961-1.73-1.73-1.73-1.73c-0.192-0.385-0.577-0.771-0.77-0.963c0-0.191-0.193-0.191-0.193-0.385c0,0,0,0,0-0.191
		c0,0,0,0-0.191-0.193l0,0c0,0-0.193,0-0.193,0.193c0,0.191,0,0.191,0,0.191c0,0.193,0,0.963,0,1.732
		c0,0.576,0.193,2.307,0.577,3.461c0.193,0.578,0.193,0.963,0.386,1.154c0,0,0.384,0.77,1.153,1.539
		c0.77,0.768,1.923,1.539,3.27,2.115c-2.116,0.961-4.423,1.924-6.54,2.885c-0.77-0.77-1.538-1.539-2.308-2.5
		c-0.577-0.768-1.154-1.732-1.539-2.693c-0.769-1.73-1.154-3.461-1.154-5.385C611.98,413.603,617.366,407.833,624.098,407.062z
		 M612.173,399.56L612.173,399.56C612.173,399.56,612.365,399.56,612.173,399.56c1.154,0.77,2.115,1.348,3.077,1.924l0,0
		l-6.155,10.58l-4.04,6.924c-0.192,0.193-0.192,0.578-0.192,0.963s0.192,0.961,0.192,0.961l4.04,6.926l1.539,2.689l1.539,2.693
		c-1.154,0.58-2.308,0.963-3.271,1.541l-1.538-2.502l-1.539-2.693l-3.847-6.73c-0.193-0.193-0.193-0.385-0.193-0.578
		c-0.385-0.77-0.385-1.537-0.385-2.307s0.192-1.539,0.385-2.117l0,0l0,0c0-0.191,0.193-0.385,0.385-0.576L612.173,399.56
		L612.173,399.56L612.173,399.56z M592.746,411.679c0.385-1.539,0.77-2.885,1.539-4.232c0.385-0.963,0.961-1.922,1.347-2.885
		c0.192-0.193,0.192-0.383,0.385-0.578c0.384-0.77,0.961-1.73,1.539-2.5c0.577-0.768,1.153-1.537,1.73-2.307
		c0.578-0.578,0.962-1.156,1.539-1.73c0.193-0.195,0.577-0.578,0.769-0.771c0.769-0.768,1.539-1.346,2.309-2.115l0,0
		c1.539,0.963,2.885,1.73,4.424,2.691l0,0c-3.847,2.887-6.925,6.732-9.041,10.965c-0.961,1.924-1.539,3.848-2.115,5.963
		c-0.577,2.115-0.77,4.424-0.77,6.732c0,4.232,0.963,8.463,2.693,12.117c0.385,0.961,0.961,1.924,1.539,2.887
		c0.385,0.768,0.961,1.537,1.539,2.307c-1.539,0.578-3.078,1.348-4.616,1.924c-0.192-0.191-0.385-0.576-0.578-0.768
		c-0.384-0.578-0.769-1.156-0.961-1.734c-2.693-5-4.424-10.578-4.424-16.732c0-2.117,0.193-4.039,0.578-5.963
		C592.169,413.603,592.361,412.64,592.746,411.679z"/>
	<path fill="#FFFFFF" d="M609.095,523.237h18.081l12.887-12.885v-14.041c-0.962,0.383-1.732,0.77-2.693,1.152
		c-11.349,5.002-22.696,10.195-34.237,15.195c-0.961,0.385-2.115,0.963-3.078,1.348c0,0,0,0-0.193,0L609.095,523.237
		L609.095,523.237z M633.715,504.966c1.346,0,2.308,0.963,2.308,2.309s-0.961,2.307-2.308,2.307c-1.347,0-2.309-0.961-2.309-2.307
		C631.407,506.12,632.369,504.966,633.715,504.966z M625.444,513.427c1.347,0,2.308,0.965,2.308,2.311s-0.961,2.307-2.308,2.307
		s-2.308-0.961-2.308-2.307S624.098,513.427,625.444,513.427z M612.365,514.583c1.346,0,2.308,0.961,2.308,2.307
		c0,1.348-0.962,2.309-2.308,2.309c-1.346,0-2.309-0.961-2.309-2.309C610.057,515.544,611.019,514.583,612.365,514.583z"/>
	<path fill="#FFFFFF" d="M534.464,457.071C534.464,457.071,534.273,457.265,534.464,457.071c-3.846,1.539-7.308,2.693-10.001,3.848
		c-3.078,1.154-2.693,2.885-2.308,3.654c0.192,0,0.192,0,0.384,0l0,0c1.347,0,2.885,0,4.232,0c2.308-0.193,5.192-0.576,8.656-0.963
		c0.769-0.191,1.73-0.191,2.5-0.385v-0.191c-0.192-0.961-0.192-1.73-0.385-2.691l0,0c0-0.193,0-0.193,0-0.387
		c-0.193-1.152-0.193-2.309-0.193-3.27v-0.191v-0.193C536.389,456.495,535.427,456.687,534.464,457.071z"/>
	<path fill="#FFFFFF" d="M588.129,518.813c-0.385,0.191-0.961,0.385-1.346,0.576c-0.961,0.387-1.923,0.77-3.078,1.154
		c0,0-0.192,0-0.192,0.191c3.27,5.771,7.886,10.773,13.657,14.234c5.962,3.848,13.271,5.963,20.773,5.963
		c21.927,0,39.624-17.695,39.624-39.621c0-4.039-0.578-7.693-1.732-11.35c-0.961,0.385-1.73,0.771-2.691,0.963
		c-0.385,0.193-0.77,0.387-1.346,0.578c-0.963,0.383-1.926,0.77-2.887,1.154c-0.193,0-0.193,0-0.385,0.191
		c0.77,2.691,1.154,5.58,1.154,8.463c0,8.848-3.462,16.732-9.232,22.504s-13.656,9.232-22.504,9.232
		c-6.348,0-12.31-1.924-17.311-5.193c-1.924-1.156-3.655-2.502-5.193-4.039c-1.731-1.732-3.27-3.848-4.617-5.963
		C590.053,518.044,589.091,518.429,588.129,518.813z"/>
	<path fill="#FFFFFF" d="M521.579,298.579c6.539-2.115,12.886-3.076,19.233-3.076c10.58,0,21.158,2.691,31.93,6.73l0,0
		c-0.385-0.385-0.577-0.77-0.962-1.154l-0.193-0.191c-0.191-0.385-0.576-0.77-0.769-1.154l-0.193-0.191
		c-0.192-0.385-0.384-0.77-0.576-1.156l-0.193-0.191c-0.192-0.385-0.384-0.961-0.577-1.346c-0.192-0.578-0.384-1.154-0.577-1.732
		c0-0.191-0.192-0.383-0.192-0.768c-0.193-0.578-0.193-1.154-0.386-1.732c-0.192-0.961-0.192-1.73-0.192-2.307l0,0l0,0
		c0-0.77,0-1.539,0.192-2.311c0-0.191,0.193-0.576,0.193-0.768s0-0.576,0.193-0.77v-11.732v-10.195h-0.386l0.193-0.77v-1.732
		c0-0.191-0.193-0.191-0.385-0.383l0,0l-4.231-2.5c-0.577-0.387-1.347-0.191-1.731,0.385l-2.692,3.27l-0.385,0.385l-0.385-4.426
		c0-0.189-0.192-0.576-0.385-0.768c-0.192-0.193-0.576-0.385-0.962-0.385h-4.808c-0.577,0-1.154,0.576-1.346,1.152l-0.576,4.617
		v0.191l-3.079-3.846c0,0,0,0-0.192,0c-0.384-0.385-1.154-0.576-1.538-0.191l-4.232,2.498c-0.578,0.387-0.769,0.963-0.578,1.539
		l1.731,4.426l-4.424-1.73c-0.577-0.193-1.346,0-1.539,0.576l-2.5,4.232c-0.385,0.576-0.193,1.344,0.384,1.729l3.848,3.078
		l-4.809,0.77c-0.577,0-1.153,0.576-1.153,1.348v4.809c0,0.576,0.384,0.961,0.962,1.152h0.191l4.809,0.771l-0.192,0.191
		l-3.462,2.885c-0.577,0.385-0.577,1.154-0.384,1.732l0.577,1.154c-5.578,0.576-11.157,1.922-16.926,4.23v5.387
		c0.192,0,0.384-0.193,0.384-0.193C519.462,299.349,520.424,298.964,521.579,298.579z M555.239,287.231
		c-3.847,0-6.925-3.078-6.925-6.926c0-3.846,3.078-6.924,6.925-6.924c3.847,0,6.924,3.078,6.924,6.924
		C562.163,284.153,559.085,287.231,555.239,287.231z"/>
	<path fill="#FFFFFF" d="M676.223,512.083l12.695-4.617c0.963-0.383,1.73-1.346,1.73-2.5v-7.693c0-0.77-0.385-1.539-0.961-1.922
		c-0.193-0.195-0.385-0.385-0.77-0.385l-11.926-4.426c-0.385-0.193-0.578-0.193-0.77-0.385c-0.191,0-0.385-0.193-0.385-0.193
		c-0.385-2.113-0.96-4.23-1.538-6.154c-0.961,0.193-1.731,0.578-2.692,0.77c-1.73,0.576-3.27,0.961-5.002,1.539
		c-0.961,0.385-1.922,0.768-3.076,0.963c-0.193,0-0.193,0-0.387,0.191c1.348,4.424,2.117,9.041,2.117,14.041
		c0,13.08-5.193,24.811-13.85,33.469c-8.654,8.461-20.387,13.846-33.467,13.846c-8.848,0-17.119-2.5-24.235-6.729
		c-3.271-1.928-6.348-4.428-9.04-7.117c-3.27-3.271-6.155-7.119-8.271-11.35c-0.963,0.385-1.924,0.576-2.693,0.961
		c-4.231,1.346-8.463,2.693-12.695,3.846c-1.539,0.387-3.269,0.77-4.809,1.154c-0.384,0-0.577,0.195-0.961,0.195l-1.539,1.922
		c-0.578,0.77-0.769,2.115-0.192,2.885l3.847,6.73c0.193,0.387,0.769,0.773,1.154,0.963c0.385,0.193,0.962,0.385,1.539,0.193
		l12.118-2.117c0.769-0.193,1.346-0.193,1.731-0.193c0,0.193,0.192,0.193,0.192,0.387c1.731,1.924,3.462,3.656,5.386,5.385
		c0,0.193,0,0.385,0,0.578l-2.309,13.271c-0.192,0.961,0.385,2.115,1.347,2.693l0.384,0.191l6.348,3.654
		c0.77,0.576,2.116,0.385,2.885-0.191l9.81-8.078c0.385-0.385,0.769-0.578,1.154-0.77c2.5,0.77,5.193,1.539,7.693,2.115
		c0,0,0,0.191,0.193,0.191c0,0.193,0.192,0.193,0.192,0.387l4.617,12.693c0.192,0.578,0.768,1.154,1.346,1.346
		c0.385,0.193,0.77,0.387,1.154,0.387h7.694c0.961,0,2.115-0.771,2.5-1.732l4.424-11.926c0.193-0.574,0.385-0.961,0.576-1.346
		c2.693-0.576,5.194-1.154,7.694-2.115c0.192,0.191,0.385,0.191,0.577,0.385l0,0l10.195,8.654c0.191,0,0.191,0.193,0.383,0.193
		c0.771,0.383,1.732,0.383,2.502,0l6.732-3.848c0.768-0.576,1.346-1.73,1.346-2.691l-2.115-12.117
		c-0.193-0.77-0.193-1.348-0.193-1.926c1.924-1.729,3.848-3.654,5.578-5.578c0.193,0,0.385,0,0.77,0l13.271,2.309
		c0.961,0.191,2.115-0.385,2.693-1.348l3.846-6.73c0.578-0.77,0.385-2.115-0.191-2.885l-8.077-9.811
		c-0.385-0.385-0.578-0.77-0.77-1.154c0.77-2.5,1.538-5.191,2.114-7.693C675.838,512.274,676.031,512.274,676.223,512.083z"/>
	<path fill="#FFFFFF" d="M696.035,338.011c-0.387,0-0.771-0.193-1.348-0.193s-0.961,0-1.539-0.191c-0.576,0-1.346-0.193-1.922-0.193
		c-1.346,0-2.693-0.191-4.041-0.191c-0.576,0-0.961,0-1.537,0c-1.539,0-3.27,0-5.002,0.191c-1.73,0-3.654,0.193-5.577,0.385
		c-1.154,0.193-2.31,0.193-3.462,0.385c-0.385,0-0.77,0.191-0.963,0.191c-0.768,0.195-1.537,0.195-2.115,0.387
		c-0.385,0.191-0.961,0.191-1.346,0.385c-0.578,0.191-1.154,0.385-1.73,0.385c-0.385,0.191-0.963,0.191-1.348,0.385
		c-0.576,0.191-1.154,0.383-1.73,0.576c-0.578,0.191-0.963,0.385-1.539,0.576c-0.578,0.193-1.154,0.385-1.539,0.578
		c-0.576,0.191-1.154,0.385-1.539,0.576c-0.576,0.193-1.154,0.385-1.539,0.578c-0.576,0.191-1.152,0.385-1.73,0.77
		c-0.576,0.191-1.154,0.576-1.73,0.768c-0.578,0.193-1.154,0.578-1.732,0.77c0,0-0.191,0-0.191,0.193l0,0
		c8.078,4.617,15.965,8.848,23.851,12.117l0,0c0-0.191-0.191-0.385-0.191-0.578l-2.503-5.191v-0.193c0-0.191,0-0.385,0-0.576
		c0-0.193,0.193-0.385,0.193-0.578l2.501-2.5l0.193-0.191c0.384-0.193,0.767-0.193,1.153,0l5.193,2.309l0.383,0.191
		c0.963,0.385,1.732,0.191,1.924,0.191c0.385-0.191,0.77-0.383,1.154-0.576c0,0,0.193-0.193,0.385-0.385
		c0.191-0.193,0.385-0.385,0.578-0.77c0,0,0,0,0-0.193c0.191-0.191,0.191-0.383,0.385-0.768l0.383-1.154l1.539-4.232
		c0-0.191,0-0.191,0.193-0.191l0,0l0.191-0.193c0,0,0,0,0.193-0.191c0.193,0,0.193-0.193,0.385-0.193s0.191,0,0.383,0h0.58h2.883
		c0.385,0,0.963,0.385,1.154,0.77l2.309,5.771c0.385,0.961,0.961,1.346,1.154,1.346c0.385,0.191,0.77,0.191,0.961,0.385h0.193
		c0,0,0.385,0,0.961,0c0.385,0,0.963-0.193,1.539-0.385l3.463-1.73l0,0l1.73-0.77c0.191-0.193,0.385-0.193,0.77,0
		c0.191,0,0.383,0.191,0.576,0.385l2.5,2.5c0.387,0.385,0.387,0.961,0.193,1.346l-0.576,1.154l-1.924,4.424
		c-0.193,0.385-0.193,0.578-0.193,0.961c0,0.387,0,0.578,0,0.77c0,0,0,0,0,0.195c0.193,0.383,0.387,0.768,0.578,1.152
		c0,0,0.385,0.77,1.922,1.346l4.811,1.732l0.576,0.191l0,0l0,0c1.924-0.385,3.848-0.961,5.771-1.539
		c0.385-0.193,0.961-0.193,1.346-0.385l0,0c0.576-0.191,1.154-0.385,1.73-0.576l0,0c0,0,0,0,0.193-0.191l0.191-0.193
		c0,0,0,0,0.193-0.191c0.385-0.385,0.576-0.77,0.77-1.156c0.385-0.576,0.576-1.154,0.768-1.537c0-0.193,0.193-0.387,0.193-0.578
		s0-0.191,0-0.383c0-3.271-2.5-7.504-7.887-11.35l-0.191-0.193l0,0c-1.924-1.152-4.039-2.307-6.539-3.461
		c-2.502-0.963-5.193-1.924-8.08-2.5c-1.922-0.387-4.23-0.963-6.348-1.154C696.418,338.011,696.227,338.011,696.035,338.011z"/>
	<path fill="#FFFFFF" d="M543.505,488.231c0-0.961-0.191-1.73-0.191-2.115c0-0.193-0.193-0.193-0.193-0.385
		c-0.77-1.346-2.5-1.924-3.462-1.924l0,0c-1.347,0.193-1.923,0.578-2.308,0.961c-0.193,0.385-0.384,0.77-0.384,1.348
		c0,0.191,0,0.385,0,0.768v13.658v0.191v2.117l0,0v0.385c0,0.576,0,0.961,0.191,1.346c0,0,0,0,0,0.191l0,0
		c0.192,0.193,0.385,0.385,0.578,0.578c0.384,0.193,1.154,0.193,2.115,0c0.193,0,0.771-0.193,1.154-0.578
		c0.385-0.191,0.963-0.576,1.347-1.152c0.577-0.576,0.963-1.154,1.154-1.73c0,0,0,0,0-0.193s0.193-0.578,0.193-0.963
		c0.193-1.922,0.193-6.346,0.193-9.809C543.698,490.155,543.698,489.001,543.505,488.231z"/>
	<path fill="#FFFFFF" d="M727.268,362.892c-0.387,0.191-0.77,0.191-1.154,0.385c-0.77,0.191-1.539,0.578-2.309,0.77
		c-2.5,0.768-5.193,1.539-7.693,1.924c-0.961,0.191-2.115,0.385-3.078,0.576c-2.5,0.387-5,0.576-7.309,0.576
		c-0.385,0-0.77,0-0.961,0c-1.541,0-3.27,0-4.809-0.189c-0.578,0-1.348-0.195-1.926-0.195c-0.189,0-0.189,0-0.383,0
		c-0.77,0-1.539-0.191-2.309-0.191c-0.191,0-0.191,0-0.385,0c-2.309-0.385-4.615-0.77-6.73-1.348
		c-0.578-0.191-0.963-0.191-1.539-0.385c-1.154-0.191-2.117-0.576-3.271-0.959c-1.152-0.387-2.309-0.771-3.463-1.156
		c0,0,0,0-0.191,0c-0.576-0.191-1.346-0.383-1.924-0.768c-0.191,0-0.191,0-0.383-0.193c-0.963-0.385-2.117-0.77-3.079-1.154
		c-0.576-0.191-1.153-0.383-1.729-0.576c-8.463-3.463-16.736-8.078-25.199-13.08c-1.153-0.576-2.115-1.346-3.269-1.924
		c-0.384-0.191-0.962-0.574-1.347-0.77c-0.192,0-0.383-0.189-0.383-0.189c-0.578-0.387-1.154-0.771-1.925-1.156
		c-0.384-0.193-0.769-0.576-1.154-0.77c-0.576-0.385-0.962-0.576-1.54-0.961l0,0l-0.191-0.193c-1.538-0.961-3.078-1.924-4.617-2.885
		c-4.23-2.693-8.271-5.193-12.501-7.887c-5.001-3.27-11.732-6.73-16.926-9.809c-22.312-12.119-42.316-21.543-61.936-21.543
		c-6.347,0-12.886,0.963-19.234,3.271c-1.154,0.383-2.116,0.768-3.271,1.152h-0.192v7.885v7.887v3.848v22.313v21.736
		c0.385-0.195,0.578-0.195,0.963-0.387c0.191,0,0.191,0,0.384-0.191c0.193,0,0.385-0.193,0.385-0.193
		c0.769-0.191,1.54-0.576,2.308-0.768c0.193,0,0.578-0.195,0.769-0.195c0.193,0,0.386-0.191,0.386-0.191
		c5.77-1.73,11.733-2.5,17.502-2.5l0,0c11.35,0,22.698,3.078,34.046,7.693c1.923,0.771,3.654,1.541,5.578,2.502
		c1.154,0.574,2.116,0.961,3.27,1.537c2.693,1.348,5.578,2.693,8.271,4.232c1.154,0.576,2.308,1.154,3.269,1.924
		c0.771,0.385,1.347,0.77,2.116,1.152c0.578,0.193,0.963,0.578,1.539,0.771c0.578,0.385,1.154,0.576,1.732,0.961
		c0.383,0.193,0.768,0.385,0.961,0.576c1.347,0.77,2.5,1.539,3.848,2.311c0.961,0.576,2.115,1.154,3.076,1.922
		c4.424,2.693,9.041,5.576,13.464,8.465c0.385,0.191,0.77,0.383,0.961,0.576c1.54,0.961,3.27,1.922,4.81,3.078
		c5.77,3.654,11.541,7.307,17.311,10.578c0.77,0.385,1.539,0.961,2.309,1.346c0.385,0.193,0.768,0.385,1.154,0.576
		c1.346,0.771,2.691,1.541,4.039,2.309c0.77,0.385,1.73,0.963,2.498,1.346c1.156,0.578,2.311,1.156,3.271,1.732
		c0.385,0.193,0.576,0.385,0.961,0.385c0.387,0.191,0.963,0.385,1.348,0.77c1.346,0.77,2.885,1.346,4.23,2.115
		c0.578,0.193,1.154,0.578,1.732,0.77c1.154,0.576,2.309,0.961,3.461,1.539c1.732,0.77,3.462,1.346,5.385,2.115
		c1.156,0.385,2.117,0.77,3.271,1.156c1.154,0.383,2.309,0.768,3.463,1.152c7.115,2.115,14.232,3.27,21.348,3.27
		c1.541,0,3.08,0,4.617-0.193c3.848-0.191,7.693-0.961,11.541-1.922c2.309-0.578,47.717-11.311,50.025-12.271
		c0-3.848,0-10.313,0-14.736c0-12.889,0-18,0-30.889v-24.412L727.268,362.892z"/>
	<path fill="#666666" d="M724.676,407.937L724.676,407.937l-2.064-24.471l-0.064-0.789l0,0c-0.018-0.197-0.068-0.787-0.342-1.674
		c-0.066-0.791-0.34-1.678-0.627-2.762c-0.293-1.082-0.789-2.262-1.283-3.447l0,0c-0.018-0.195-0.223-0.293-0.24-0.492l0,0
		c0.396,0,8.359-1.934,8.359-1.934c0.188-0.1,7.117-2.516,7.117-2.516c0.188-0.102,3.828-1.609,4.398-1.908
		c-0.174,0.295-0.348,0.592-0.504,1.09c-0.658,1.584-1.422,4.252-1.398,6.918c0.033,0.396,0.068,0.791,0.084,0.988
		c0.033,0.395,0.066,0.791,0.102,1.184c0.049,0.592,0.27,0.889,0.307,1.279c-0.414-0.191-0.811-0.188-1.223-0.385
		c-0.809-0.191-1.412-0.285-1.996-0.186c-0.586,0.105-1.189,0.012-1.566,0.211c-0.193,0.1-0.398,0.004-0.398,0.004s0,0-0.189,0.1
		l0,0l0,0l0,0c-1.344,0.504-2.5,0.904-3.861,1.213c-0.189,0.098-0.189,0.098-0.379,0.199c0,0-0.174,0.297-0.156,0.494l0,0l0,0
		l0.133,1.58l0.566,6.709c0.018,0.199,0.225,0.293,0.412,0.195c0.965-0.303,1.932-0.607,3.086-1.01l0,0l0,0l0,0
		c0,0,0.191-0.102,0.379-0.201c0.76-0.4,2.449-1.496,3.885-3.287l0.982,11.645c-1.014-0.287-2.014-0.381-2.805-0.375
		c-0.396,0.002-0.98,0.105-1.189,0.008c-0.189,0.1-0.189,0.1-0.395,0.002l0,0l0,0l0,0l0,0l0,0l0,0l0,0
		c-0.965,0.303-1.932,0.605-3.086,1.012c-0.189,0.1-0.189,0.1-0.381,0.199c-0.188,0.1-0.172,0.297-0.154,0.492l0.699,8.289l0,0
		c0,0,0,0,0.016,0.197c0.018,0.199,0.223,0.295,0.414,0.193c1.361-0.303,2.707-0.809,3.859-1.209l0,0c0,0,0.189-0.1,0.381-0.201
		c0.76-0.402,2.826-1.697,4.799-4.18c0.049,0.592-0.107,1.086-0.057,1.678c0.033,0.396,0.066,0.789,0.1,1.184
		c0.215,2.568,1.16,4.336,2.053,5.514c0.445,0.592,0.873,0.982,1.098,1.277c-2.293,1.002-4.586,2.006-7.086,2.912l0,0
		c-4.242,1.412-1.725,0.705-6,1.721l0,0c-2.324,0.607-4.857,1.123-7.201,1.531C725.063,412.474,724.711,408.331,724.676,407.937z"/>
	<path fill="#666666" d="M688.928,374.591c-1.73,3.463-2.494,10.371-2.494,10.561v19.428v5.002v0.193l0,0l0,0l0,0
		c0,0.383,0,4.422,1.539,9.23c-0.387-0.193-1.096-0.322-1.48-0.516c-2.885-1.732-6.102-1.109-8.984-3.035
		c0.383-0.768,1.424-3.951,1.617-4.912c0.191-0.961,0.383-1.922,0.576-2.693c0.191-0.77,0.191-1.537,0.191-1.922
		c0-0.193,0-0.385,0-0.576v-0.193l0,0l0,0l0,0v-0.191v-4.617v-19.813l0,0l0,0l0,0l0,0l0,0c0-0.385,0-4.23-1.539-9.039v-0.193
		c0,0,0,0,0.193,0C682.547,373.229,684.701,374.479,688.928,374.591z"/>
	<path fill="#666666" d="M554.495,315.675c1.538-2.887,3.654-4.428,5.962-4.428c0.961,0,2.116,0.387,3.27,0.965
		c2.885,1.537,5.578,5.193,7.694,9.617l0,0c1.538,1.924,2.884,3.846,4.423,5.77c-0.578,0.77-1.346,1.346-2.116,1.73
		c-1.346,0.77-2.307,1.156-3.27,1.156c-2.115,0-3.269-1.926-3.269-3.271c0-0.385,0-0.77-0.192-1.154
		c-0.577-3.463-1.539-5.77-2.886-6.539l0,0c-0.193-0.193-0.384-0.193-0.577-0.193c-1.347,0.193-1.924,1.732-2.5,3.848
		c-0.385,1.346-0.385,5.385-0.385,9.617c0,3.846,0.192,7.5,0.385,9.041c0.576,3.461,1.538,5.961,2.884,6.73
		c0.193,0.193,0.385,0.193,0.578,0.193c1.347-0.193,1.924-1.73,2.501-4.039l0,0c0-0.193,0.192-0.77,0.384-3.463
		c0.962,1.154,2.693,3.27,5.194,3.27c0.961,0,2.115-0.385,3.077-1.152c0,1.152-0.192,2.115-0.385,3.268
		c-0.191,1.346-0.577,2.693-0.961,3.85c-1.347,4.422-4.04,6.922-6.924,6.922c-0.961,0-2.116-0.193-3.27-0.961
		c-0.193,0-0.193-0.191-0.384-0.191c-0.577-0.385-1.154-0.77-1.923-1.348c-0.386-0.383-0.962-0.768-1.347-1.154
		c-0.384-0.385-0.77-0.961-1.154-1.346c-4.424-5.578-7.693-15.195-7.693-24.813C551.994,322.79,552.956,318.558,554.495,315.675z"/>
	<path fill="#666666" d="M636.303,350.026c0.509,0.254,5.478,2.352,7.763,3.691c0,0,2.359,1.656,3.674,2.404
		c-0.578,2.115-0.463,3.441-0.463,5.172c0,0.77,0,1.152,0,1.732c0,0.193,0,0.385,0,0.385v0.191l0,0l0,0
		c0.385,4.039,0.961,8.08,1.348,12.119c0,0.383,0.191,0.961,0.191,1.346c0.383,4.039,0.961,8.078,1.346,12.117c0,0,0,0,0,0.193
		c0,0.576,0.576,3.27,1.539,6.73c0.191,0.961,2.059,7.668,2.443,8.631c-0.77-0.387-5.066-2.564-5.066-2.564
		c-1.154-0.576-3.004-1.672-3.197-1.672c0,0-3.84-2.502-5.377-3.08c0.191-0.383,1.58-3.814,1.772-4.199
		c0.192-1.346,0.385-2.498,0.385-3.654c0-0.77,0-1.537,0-2.115c0-0.383,0-0.77,0-0.963c0-0.191,0-0.191-0.192-0.385
		c-0.576-0.383-1.347-0.768-1.73-0.961c-0.385-0.193-0.578-0.193-0.963-0.385c-0.576-0.193-0.961-0.193-1.346-0.193
		c-0.191,0-0.384,0-0.577,0c-0.192,0-0.385,0.193-0.385,0.385c0,0.193,0,0.387,0,0.578v0.193c0,0.961,0,2.309,0.193,4.037
		c0.192,1.156,0.377,5.242,0.57,6.59c-0.578-0.191-9.419-5.625-10.188-6.01c0.386-0.771,0.769-1.541,1.154-2.309
		c0.386-0.961,0.769-1.926,0.962-2.887c0.192-0.385,0.192-0.578,0.192-0.963c0.193-0.383,0.193-0.768,0.193-1.152
		c0-0.193,0-0.385,0.192-0.578v-0.191l0,0l0,0c0-0.576,0.192-1.154,0.192-1.539c0.384-3.27,0.769-6.348,1.154-9.617
		c0-0.385,0.192-0.768,0.192-1.348c0.383-3.461,0.769-6.924,1.345-10.385l0,0v-2.5l0,0c0-0.193,0-0.387-0.191-0.578
		c0-0.191-0.384-0.385-0.577-0.385c-0.385,0-0.769,0.385-1.154,0.576c-0.578,0.578-1.154,1.348-1.539,1.924
		c-0.193,0.385-0.384,0.576-0.576,0.77c-0.386-0.961-0.961-3.461-1.347-5.961c-0.385-1.541-0.578-2.887-0.77-3.848
		c-0.193-0.385-0.193-0.771-0.193-1.154C630.736,348.216,633.225,349.063,636.303,350.026z"/>
	<path fill="#666666" d="M605.036,375.286c-6.615-9.277-1.352-33.541-1.352-33.541l0,0c0-0.184,0.692-5.961-0.847-10.754
		c2.116,1.105,8.414,3.477,7.963,8.359l0,0c0,0-4.336,23.963-1.802,31.824c0.784,2.434,4.169,2.906,6.481,1.934
		c3.159-1.324,2.63-24.359,2.63-24.359l0,0c0-0.104-0.133-3.455,1.116-5.182c0.97-1.34,3.237-1.223,4.078-0.9
		c0.961,0.367,1.922,0.736,2.692,1.105c-0.192,0.369-0.192,0.553-0.384,0.922c-0.386,0.92-0.578,1.842-0.77,2.582
		c-0.191,0.551-0.191,1.104-0.384,1.656c0,0.553-0.192,0.922-0.192,1.291c0,0.184,0,0.555,0,0.738s0,0.365,0,0.551v0.184l0,0l0,0
		v2.768l-0.465,13.553c0,0-0.505,11.824-9.372,12.926C610.146,380.501,607.588,378.665,605.036,375.286z"/>
	<path fill="#666666" d="M765.855,399.896c-1.158,3.146-3.936,6.016-7.451,7.082c-0.191,0.037-0.568,0.109-0.758,0.146
		c-2.076,0.398-5.316,1.582-7.018,1.908c-0.188,0.037-1.004-0.002-1.004-0.002c-0.227-4.244-0.119-5.422-1.84-9.314
		c1.383,0.977,2.086,1.035,4.512,0.301c1.406-0.428,2.697-0.857,3.23-0.959c0,0,1.098-0.311,1.475-0.383
		c2.762-0.922,3.723-3.055,3.291-5.311l-0.037-0.188c-0.434-2.254-2.008-3.314-5.697-4.166c-4.895-1.008-8.9-4.523-10.506-10.84
		c-0.072-0.375-0.107-0.564-0.18-0.939c-0.398-2.068-0.346-3.83-0.104-5.631c0.162-1.201,0.549-2.248,0.969-3.107
		c0.846-1.723,2.141-3.141,3.732-4.031c0.873-0.557,1.744-1.113,2.877-1.332c0.379-0.074,0.756-0.145,0.945-0.184
		c0.736-0.139,2.66-0.385,4.816,0.186c2.064,0.545,4.174,0.426,4.531,0.416l0.141,7.969c-0.674-0.553-3.49-0.68-4.465-0.664
		c-0.691,0.014-2.332,0.068-3.436,0.363l-0.189,0.037c-0.188,0.035-0.377,0.072-0.756,0.145c-2.572,0.883-3.379,2.793-3.018,4.674
		l0.037,0.186c0.215,1.129,0.773,1.994,1.861,2.566c1.09,0.57,2.557,1.066,4.4,1.492c5.273,0.934,8.836,3.172,10.182,9.15
		c0.072,0.375,0.107,0.563,0.18,0.939C767.002,393.634,766.861,396.974,765.855,399.896z"/>
	<path fill="#666666" d="M533.389,307.614c0.402,0.15,0.994,0.283,1.395,0.434l0,0c1.185,0.264,2.578,0.697,3.763,0.961l0,0
		c1.987,0.566,3.973,1.131,5.979,1.881c-0.377,2.117-0.316,4.756-0.154,6.441c0.072,0.748,0.108,1.123,0.163,1.686
		c0.017,0.188,0.035,0.373,0.035,0.373l0.018,0.188l0,0l0,0c0.762,3.896,1.714,7.775,2.474,11.668
		c0.036,0.375,0.282,0.916,0.318,1.293c0.76,3.895,1.712,7.771,2.474,11.666c0,0,0,0,0.019,0.188
		c0.054,0.563,0.879,3.127,2.161,6.406c0.281,0.918,1.229,2.971,1.229,2.971l-11.179-1.932c0,0,0.144-2.553,0.299-2.945
		c0.065-1.328,0.148-2.471,0.041-3.594c-0.072-0.75-0.145-1.5-0.198-2.061c-0.036-0.375-0.072-0.75-0.09-0.936
		c-0.018-0.189-0.018-0.189-0.228-0.357c-0.61-0.318-1.412-0.619-1.813-0.77c-0.401-0.152-0.593-0.133-0.993-0.281
		c-0.592-0.133-0.975-0.096-1.359-0.059c-0.19,0.018-0.382,0.035-0.573,0.055c-0.192,0.018-0.365,0.223-0.348,0.408
		c0.019,0.189,0.036,0.377,0.054,0.564l0.018,0.188c0.09,0.936,0.216,2.246,0.569,3.912c0.3,1.105,1.196,4.574,1.513,5.867
		c-5.261-0.211-12.021,1.627-12.021,1.627s1.611-7.584,1.921-8.369c0.292-0.973,0.991-5.764,0.991-5.764
		c-0.054-0.563,0.084-1.143,0.048-1.518c0.078-3.219,0.172-6.252,0.25-9.471c-0.036-0.375,0.12-0.77,0.066-1.33
		c0.059-3.408,0.118-6.814,0.368-10.24l0,0l-0.234-2.434l0,0c-0.019-0.188-0.035-0.375-0.245-0.545
		c-0.017-0.186-0.419-0.338-0.61-0.318c-0.385,0.037-0.73,0.449-1.095,0.674c-0.521,0.615-1.023,1.42-1.353,2.018
		c-0.156,0.393-0.328,0.6-0.502,0.805c-0.473-0.9-1.28-3.279-1.897-5.678c-0.528-1.459-0.844-2.752-1.126-3.67
		c-0.226-0.355-0.263-0.729-0.299-1.105C526.681,306.181,530.235,306.972,533.389,307.614z"/>
	<path fill="#666666" d="M599.756,330.253c-0.384,0.783-1.135,1.859-1.327,2.834c-0.578,2.537-0.271,4.262-0.271,4.654l0,0
		l-8.037-6.498c0,0-2.062,27.381,0.947,36.15c0,0-5.605-3.18-8.086-4.242c1.98-7.777,0.678-35.109,0.678-35.109l-6.194-2.834
		c0-0.193,1.038-2.314-0.501-7.58C585.836,320.312,591.567,323.47,599.756,330.253z"/>
	<path fill="#666666" d="M657.545,407.261c0-3.846,0-7.5,0-11.348c0-1.346,0-2.5,0-3.846c0-3.27,0-6.35,0-9.619
		c0-1.346,0-2.5,0-3.846c0-3.078,0-15.852,0-15.852c3.094,2.283,5.617,2.404,7.213,2.857l-0.674,17.227v3.846v9.809v2.309
		c1.48,3.574,9.497,3.174,9.497,3.174c-0.802,1.203-1.095,10.152,0,12.271C673.197,414.243,661.691,408.384,657.545,407.261z"/>
	<path fill="#666666" d="M717.707,374.296c-2.885,2.713-0.156,9.516-0.156,9.516s-2.043-1.057-5.115-1.473
		c-2.107-0.283-5.535,0.031-5.535,0.031s-2.787,31.074,1.633,38.063c0,0-6.543,0.717-9.762-0.008
		c3.049-9.203,2.08-38.021,2.08-38.021s-2.078-0.367-5.328,0.029s-4.926,1.223-4.926,1.223c-0.084-0.176,2.705-4.949-0.988-9.002
		C696.459,376.776,710.914,374.853,717.707,374.296z"/>
	<path fill="#FFFFFF" d="M640.709,376.161L640.709,376.161c0.578,0.193,1.154,0.385,1.731,0.576l0,0c0.192,0,0.192,0,0.192-0.191
		c0.191,0,0.191-0.191,0.191-0.385c-0.191-1.73-0.384-3.461-0.384-5c-0.192-2.309-0.577-4.809-0.962-7.117
		c0-0.193-0.191-0.387-0.384-0.387c-0.193,0-0.193,0-0.193,0c-0.192,0-0.192,0-0.385-0.191c-0.193,0-0.193,0-0.384,0
		c-0.192,0-0.192,0.191-0.192,0.385c-0.385,2.309-0.578,4.615-0.962,6.924c-0.191,1.348-0.191,2.693-0.384,4.039
		c0,0.193,0,0.193,0.193,0.385C639.363,375.583,640.133,375.968,640.709,376.161z"/>
	<path fill="#FFFFFF" d="M539.074,331.837L539.074,331.837c0.599,0.105,1.197,0.213,1.797,0.32l0,0
		c0.189-0.029,0.189-0.029,0.161-0.219c0.191-0.029,0.163-0.219,0.135-0.408c-0.443-1.686-0.885-3.369-1.108-4.893
		c-0.527-2.256-1.271-4.672-1.987-6.902c-0.028-0.189-0.246-0.352-0.437-0.324c-0.19,0.027-0.19,0.027-0.19,0.027
		c-0.19,0.029-0.19,0.029-0.409-0.133c-0.189,0.027-0.189,0.027-0.38,0.057c-0.19,0.027-0.162,0.217-0.135,0.408
		c-0.044,2.34,0.101,4.65,0.056,6.99c0.006,1.359,0.202,2.691,0.206,4.053c0.028,0.189,0.028,0.189,0.247,0.352
		C537.657,331.462,538.474,331.729,539.074,331.837z"/>
	<path fill="none" d="M688.928,400.503C688.734,400.503,688.734,400.503,688.928,400.503
		C688.734,400.503,688.734,400.503,688.928,400.503L688.928,400.503z"/>
</g>
</svg>
