<?xml version="1.0" encoding="utf-8"?>
<!-- Generator: Adobe Illustrator 22.0.0, SVG Export Plug-In . SVG Version: 6.00 Build 0)  -->
<svg version="1.1" id="Calque_1" xmlns="http://www.w3.org/2000/svg" xmlns:xlink="http://www.w3.org/1999/xlink" x="0px" y="0px"
	 viewBox="0 0 200 200" style="enable-background:new 0 0 200 200;" xml:space="preserve">
<style type="text/css">
	.st0{fill:#FFFFFF;}
</style>
<path class="st0" d="M35.6,45.6c-2.2,1-4.1,2.3-5.2,4.6c-0.5,1.1-0.5,1.5,0.8,1.7c3.3,0.6,6.3,0.1,9.1-1.7c2.3-1.4,4.3-3.2,5.8-6
	C42.4,44,38.9,44,35.6,45.6z M26.7,103.2c6.3-0.6,11.3-6.3,12.5-11.8c-0.2,0-0.3-0.1-0.5-0.1c-4.8,0.6-9,2.4-12,6.2
	c-0.9,1.1-1.3,2.6-1.7,4C24.6,102.8,25.7,103.3,26.7,103.2z M40.3,133.3c5.3-5.3,5.2-13.3,2.6-19.6c-0.2,0.1-0.4,0.1-0.4,0.2
	c-0.6,0.7-1.3,1.4-1.9,2.2c-3.8,5.1-5.9,10.4-3.1,16.7C38.2,134.6,38.9,134.7,40.3,133.3z M31.4,118c5.6-2.8,8-7.7,8.9-13.7
	c-0.1-0.5-0.3-1-0.4-1.6c-0.6,0.2-1.2,0.3-1.7,0.6c-1.6,1.1-3.2,2.1-4.7,3.4c-2.9,2.6-4.7,5.8-4.7,9.8
	C28.8,118.6,29.4,118.9,31.4,118z M62.6,19.6c-3.3-1.2-6-0.7-7,1.2C58,22,60.9,21.5,62.6,19.6z M46.8,28.3c3.1,1.7,7.8,0.5,11.4-3.2
	C55.3,23.4,48.2,24.5,46.8,28.3z M52.5,33c-5.6-1.5-13.5,0.6-14.8,5.9C42.4,41.4,49.8,37.7,52.5,33z M49.5,123.3
	c-5.1,8.5-6.7,18.6-0.5,24.2C55.5,141.4,54.3,129.8,49.5,123.3z M56.6,148.4c0.6,3.3,1.7,6.3,4.6,8.4c6.1-7.1,3.9-17.8-1.2-23.6
	C57.7,137.1,55.8,144.3,56.6,148.4z M37.9,80.8c-6.2-0.7-14.5,2.8-15.4,9.1C27.5,92.3,36.5,86.4,37.9,80.8z M97.7,147.8
	c-0.1,4.8,1,9.3,3.6,13.3c2.1,3.2,5.1,5.2,8.8,6.3c1.7,0.5,2.2,0.2,2.4-1.5c0.1-1.1,0.1-2.3-0.1-3.4c-0.8-5.4-4.1-9.1-8.3-12.1
	c-1.8-1.3-3.9-2.3-6-3.6C97.8,147.4,97.7,147.6,97.7,147.8z M194.1,82.5c-0.2-9.7-2.8-18.9-6.7-27.6c-4.5-10.1-10.8-19.1-19-26.7
	c-6.7-6.3-14.1-11.5-22.4-15.5c-6.5-3.1-13.3-5.4-20.4-7c-6.2-1.3-12.6-1.6-19-1.7c-8.6-0.1-16.8,1.3-25,3.7
	c-0.4,0.1-0.7,0.8-1.1,1.2c0.5,0.1,1,0.4,1.5,0.3c4-0.8,8-1.7,12-2.5c10-2,19.9-1.5,29.8,0.5c5.4,1.1,10.7,2.9,16,4.6
	c7.4,2.5,14.1,6.6,20.3,11.2c5.6,4.1,10.5,8.9,14.8,14.4c4.8,6,8.8,12.5,11.7,19.7c1.7,4.2,2.8,8.7,4.1,13.1
	c1.6,5.3,2.1,10.8,2.2,16.3c0.1,6.2-0.6,12.4-1.8,18.6c-1.4,6.9-3.8,13.5-6.9,19.7c-4.8,9.4-11,17.7-19.1,24.5
	c-3.7,3.1-7.7,5.7-11.6,8.5c-1.2,0.9-2.5,1.7-3.7,2.6c0.1,0.2,0.1,0.5,0.2,0.7c0.6-0.1,1.4,0,1.9-0.3c6.5-4.2,12.9-8.6,18.3-14.3
	c3.7-3.9,7.2-7.8,10.2-12.3c4.6-6.8,8-14.1,10.5-21.8c2.4-7.2,3.3-14.7,3.7-22.2C194.6,87.6,194.2,85,194.1,82.5z M93.1,167.7
	c1.2-2.5,1.4-5.1,0.8-7.8c-1.5-6.8-6.2-11.1-11.9-14.8C79.9,154,83.5,165.5,93.1,167.7z M38.7,67.5c-7.1-0.4-14.2,2.7-15.5,9
	C27.9,78.9,36,74.3,38.7,67.5z M75.2,163.7c4.5-7.2,1.5-17.3-4.7-23.1C67.2,150.2,68.4,160.5,75.2,163.7z M115,154.7
	c2.3,5.7,6.6,9,12.3,10.7c1,0.3,1.5,0,1.8-1.1c0.9-3.7,0.1-7-1.8-10.2c-2.5-4.2-6.4-6.8-10.5-9.3c-0.9-0.6-1.9-1-3.2-1.6
	C113.2,147.5,113.5,151.2,115,154.7z M27.2,64.8c5.5,0.4,11.1-3.7,13.5-9.1c-3.8-0.1-7.3,0.3-10.3,2.3c-1.8,1.2-3.2,3-4.5,4.7
	C25.2,63.7,25.9,64.7,27.2,64.8z M118.8,175.8c-3.1-0.1-6,0.4-8.6,2.1c-6.6,4.3-9.4,11.1-11.7,18.5c0.7,0,1,0.2,1.3,0.1
	c5.5-1.7,10.8-3.9,15-8c3-2.9,5.2-6.3,5.7-10.5C120.8,176.6,120.3,175.9,118.8,175.8z M36.7,144.8c1.8-0.8,2.1-1.9,0.8-3.3
	c-1-1-2-2-3.2-2.7c-5.3-3.1-11-3.1-17.2-2.4c0.4,0.5,0.6,0.8,0.8,0.9c3.2,2.3,6.2,4.7,9.5,6.7C30.3,145.7,33.5,146.2,36.7,144.8z
	 M28.1,132.2c1.8-0.3,2-1,1-2.6c-2.2-3.5-5.5-5.5-9.4-6.5c-2.7-0.7-5.4-1.3-8.5-0.9c3.3,4.4,6.6,8.3,11.7,10
	C24.6,132.7,26.5,132.5,28.1,132.2z M99.1,176c-5.7-0.8-10.5,1-14.5,5c-3.5,3.4-6,7.4-8.1,11.8c0.1,0.2,0.2,0.4,0.3,0.6
	c3.1-0.6,6.2-1,9.3-1.8c6.7-1.9,12-5.6,15-12.2C102.1,176.9,101.7,176.3,99.1,176z M81.8,175.6c0.5-0.7,0.6-1.4-0.3-1.9
	c-3.5-1.9-7.2-2.8-11.1-1.7c-6.9,1.9-12,6.3-16.5,11.9c6.2,1.3,11.4,1.6,18.2-0.7C76.2,181.8,79.4,179.2,81.8,175.6z M51.4,157.2
	c-1.5-2.8-6.4-6-10.1-6.8c-6.3-1.3-12.5-0.8-18.8,1.4C30.4,157.7,43.4,162.1,51.4,157.2z M16,117c2,1.3,4.3,2.1,6.8,1.2
	c1.3-0.5,1.5-1.1,0.9-2.3c-1.8-3.4-4.8-5.3-8.3-6.4c-2.5-0.8-5.1-1.1-7.7-1.6c-0.1,0.2-0.1,0.5-0.2,0.7c0.2,0.3,0.5,0.6,0.7,0.9
	C10.4,112.4,12.9,115,16,117z M66.2,167c-6.8-7.5-21.7-4.4-29.4,0.9c6.8,2.3,13.5,4.1,20.8,3C60.8,170.4,63.6,169.1,66.2,167z
	 M138.4,169.5c-2.9,0.6-5.7,1.6-8,3.6c-4,3.5-6,8.2-7.2,13.2c-0.6,2.7-0.9,5.4-1.4,8.5c0.9-0.3,1.3-0.4,1.7-0.6
	c4.6-2.3,8.7-5.3,12-9.3c3.2-4,5.1-8.4,4.7-13.7C140.2,170.1,139.9,169.3,138.4,169.5z M39.7,32.9c2.8-3.3,1.5-9.1-1.9-13.8
	c-1.7,5.2-1.9,7.2-1,10.3C37.3,31,38.1,32.3,39.7,32.9z M31,42.4c1,0.5,1.6,0.4,1.9-0.7c1.4-4.3-0.6-10-4.4-13.3
	c-1,3-1.2,7.3-0.4,10.1C28.5,40.1,29.3,41.6,31,42.4z M27,53.1c-4.7,10.5-7.4,22.1-7.4,34.4c0,23.5,9.7,44.8,25.5,60.2
	c15.7,15.4,37.5,24.9,61.5,24.9h0c9.4,0,18.5-1.5,27-4.2l-0.4-1.4c-8.4,2.7-17.3,4.1-26.6,4.1c-23.6,0-45-9.4-60.5-24.5
	C30.6,131.4,21,110.5,21,87.4c0-29.8,16-56,40-70.8c4,0.9,9.4-2,10.5-5.7c-4.2-0.5-9.1,1.1-10.7,4.2c-4.5,2.7-8.7,5.8-12.6,9.2
	c0,0,0,0,0-0.1c1.7-2.4,1.7-8.4-0.2-11.3c-1.5,2.6-2.9,5.1-2.6,8.1c0.1,1.1,0.6,2.3,1.1,3.3c0.3,0.6,0.8,0.7,1.2,0.4
	C39,32.6,32,42,27.1,52.7c0.9-6.1-3.1-9.5-7.4-12.7c-0.2,3.8,0.4,7.5,2.6,10.6C23.5,52.1,24.9,53.2,27,53.1z M55.8,9.6
	c-2.3,3.3-2.7,7.3-0.7,8.9C57.2,16.7,57.6,11.9,55.8,9.6z M14.8,92.7c1.1,0.5,2.6,0.3,4,0.4c-0.1-1.3,0.1-2.6-0.3-3.7
	c-1.2-3.3-3.5-5.7-6.5-7.4c-1.8-1.1-3.7-2-5.6-2.9c-0.1,0.2-0.3,0.4-0.4,0.6c0.3,0.9,0.6,1.8,0.9,2.7C8.5,86.5,10.4,90.6,14.8,92.7z
	 M19.9,65.3c1.7,0.9,2.6,0.1,2.4-1.8c-0.5-3.9-5.2-8.8-9.5-9.7c0.5,3.1,1.5,6,3.4,8.4C17.2,63.4,18.5,64.6,19.9,65.3z M18.3,79.2
	c1.2,0.1,1.6-0.3,1.5-1.5c-0.2-2.4-1.2-4.3-2.8-6c-2.2-2.4-4.7-4.4-8-5.5c0.4,3.7,1.9,6.6,3.7,9.4C14,77.4,15.7,79,18.3,79.2z
	 M14.4,104.9c1.7,1.1,3.7,1.6,5.7,0.8c0.4-0.2,0.9-1,0.8-1.3c-0.7-1.5-1.4-3.2-2.5-4.4c-3.4-3.7-7.8-5.4-12.9-6.2
	C7.7,98.3,10.2,102.3,14.4,104.9z M76.3,58.7c0-0.5,0.2-0.9,0.5-1.3c0.4-0.5,0.9-0.7,1.5-0.7c0.3,0,0.6,0.1,0.9,0.3
	c0.4,0.3,0.6,0.6,0.6,1.1v4.7c0,1.2-0.3,1.8-0.9,1.8c-0.2,0-0.3,0-0.5-0.1l0,1.9c0.3,0.1,0.6,0.2,1,0.2c0.9,0,1.6-0.3,2-0.8
	c0.4,0.5,1,0.8,1.8,0.8c0.4,0,0.8-0.1,1.2-0.3l0-1.9l-0.5,0.2c-0.6,0-0.9-0.6-0.9-1.8l0-4.7c0-0.5,0.2-0.8,0.5-1.1
	c0.3-0.2,0.6-0.3,1-0.3c0.6,0,1.1,0.2,1.4,0.7c0.3,0.4,0.4,0.8,0.4,1.3v0.3h2.3c0,0,0-0.1,0-0.1v-4.3h-2.3v0.7
	c-0.7-0.6-1.5-0.8-2.5-0.8c-0.3,0-0.8,0.1-1.3,0.3c-0.5,0.2-0.9,0.4-1.1,0.6c-0.2-0.2-0.5-0.4-1.1-0.6c-0.5-0.2-1-0.3-1.3-0.3
	c-1,0-1.9,0.3-2.7,1v-0.9h-2.2v4.4h2.2V58.7z M91.8,64.6c-0.1,0-0.3,0-0.5-0.1v1.9c0.3,0.1,0.6,0.2,0.9,0.2c0.8,0,1.5-0.3,2.1-0.8
	c0.6,0.5,1.3,0.8,2.1,0.8c0.3,0,0.6-0.1,0.9-0.2v-1.9c-0.2,0.1-0.3,0.1-0.5,0.1c-0.4,0-0.6-0.2-0.8-0.5c-0.1-0.3-0.2-0.6-0.2-1.2
	c0-0.5,0-0.9,0-1.4h6c0,1.2,0,1.8-0.1,1.9c-0.1,0.7-0.4,1.1-0.9,1.1c-0.2,0-0.3,0-0.5-0.1v1.9c0.3,0.1,0.6,0.2,0.9,0.2
	c0.8,0,1.5-0.3,2.1-0.8c0.6,0.5,1.3,0.8,2.1,0.8c0.3,0,0.6-0.1,0.9-0.2l0-1.9c-0.2,0.1-0.3,0.1-0.5,0.1c-0.6,0-0.9-0.6-0.9-1.8V57
	c0-0.2,0.1-0.3,0.2-0.5c0.1-0.1,0.3-0.2,0.5-0.2c0.2,0,0.5,0.1,0.7,0.2v-1.7c-0.5-0.2-1-0.3-1.4-0.3c-0.5,0-1.1,0.3-1.6,0.8
	c-0.5-0.5-1-0.8-1.6-0.8c-0.4,0-0.9,0.1-1.4,0.3v1.7c0.2-0.1,0.5-0.2,0.7-0.2c0.2,0,0.4,0.1,0.5,0.2c0.2,0.1,0.2,0.3,0.2,0.5l0,2.6
	h-6l0-2.6c0-0.2,0.1-0.3,0.2-0.5c0.1-0.1,0.3-0.2,0.5-0.2c0.2,0,0.5,0.1,0.7,0.2v-1.7c-0.5-0.2-1-0.3-1.4-0.3
	c-0.5,0-1.1,0.3-1.6,0.8c-0.5-0.5-1-0.8-1.6-0.8c-0.4,0-0.9,0.1-1.4,0.3v1.7c0.3-0.1,0.5-0.2,0.7-0.2c0.2,0,0.3,0.1,0.5,0.2
	c0.2,0.1,0.2,0.3,0.2,0.5v5.9C92.7,64,92.4,64.6,91.8,64.6z M110.1,64.7c-0.2,0-0.3,0-0.5-0.1v1.9c0.3,0.1,0.5,0.2,0.8,0.2
	c0.3,0,0.7-0.1,0.9-0.2c0.2-0.1,0.4-0.3,0.8-0.6c0.7,0.6,2.1,1,4.1,1h1.4c0.6,0,1.2-0.1,1.8-0.2c0.6-0.2,1.1-0.3,1.5-0.6v0.5h2.3
	v-4.3h-2.3c0,0.6-0.2,1.2-0.5,1.7c-0.4,0.6-1,0.9-1.6,0.9h-2.5c-0.4,0-0.8-0.3-1.3-0.8c-0.5-0.5-0.7-0.9-0.7-1.2v-1.2
	c1,0,1.6,0,1.8,0c0.3,0,0.6,0.1,0.8,0.3c0.2,0.2,0.4,0.4,0.4,0.7c0,0.3,0,0.5-0.1,0.6h1.9c0.1-0.2,0.1-0.4,0.1-0.6
	c0-1-0.4-1.7-1.1-2.1c0.3-0.1,0.6-0.4,0.8-0.9c0.2-0.4,0.3-0.9,0.3-1.2c0-0.2,0-0.4-0.1-0.6h-1.9c0,0.1,0.1,0.3,0.1,0.5
	c0,0.3-0.1,0.6-0.4,0.8c-0.2,0.2-0.5,0.4-0.9,0.4h-1.7v-1.4c0-0.4,0.2-0.8,0.7-1.3c0.4-0.4,0.8-0.5,1.1-0.5h2.5
	c0.7,0,1.2,0.3,1.7,0.8c0.4,0.5,0.6,1,0.6,1.5v0.2h2.3v-4.4h-2.3v0.6c-0.8-0.5-1.8-0.8-2.9-0.8h-2.1c-0.8,0-1.6,0.1-2.3,0.4
	c-0.6,0.2-1.1,0.5-1.3,0.7c-0.3-0.6-0.7-1-1.4-1c-0.2,0-0.6,0.1-1.1,0.3v1.7c0.3-0.1,0.5-0.2,0.7-0.2c0.2,0,0.3,0.1,0.5,0.2
	c0.2,0.1,0.2,0.3,0.2,0.5v5.8C111.1,64.1,110.8,64.7,110.1,64.7z M128.2,64c-0.1,0.2-0.3,0.4-0.5,0.5c-0.3,0.2-0.6,0.2-0.9,0.2
	c-0.2,0-0.3,0-0.5-0.1v1.9c0.2,0.1,0.5,0.1,0.8,0.1c0.5,0,1-0.1,1.4-0.2c0.4-0.1,0.7-0.3,0.9-0.5c0.5,0.5,1.1,0.7,2,0.7
	c0.4,0,0.9-0.1,1.3-0.3l0-1.7c-0.2,0.1-0.5,0.1-0.7,0.1c-0.6,0-1-0.2-1-0.6c0-0.1,0.2-0.4,0.5-0.9h5.9c0.3,0.4,0.4,0.8,0.4,1
	c0,0.1-0.1,0.2-0.3,0.3c-0.1,0.1-0.3,0.1-0.4,0.1c-0.1,0-0.3,0-0.4-0.1v1.8c0.4,0.2,0.8,0.3,1.3,0.3c0.7,0,1.3-0.3,1.8-0.7
	c0.7,0.4,1.4,0.7,2.1,0.7c0.4,0,0.8-0.1,1.1-0.3l0-1.9c-0.2,0.1-0.3,0.1-0.5,0.1c-0.6,0-1-0.2-1.3-0.7c-0.2-0.4-0.8-1.6-1.7-3.5
	c-1.1-2.3-1.6-3.5-1.6-3.6c0-0.3,0.2-0.5,0.6-0.5c0.3,0,0.4,0.1,0.6,0.2l0-1.8c-0.5-0.2-1.1-0.3-1.8-0.3c-0.9,0-1.8,0.3-2.6,0.9
	c-0.8-0.6-1.6-0.9-2.6-0.9c-0.5,0-1.1,0.1-1.6,0.4v1.7c0.2-0.1,0.4-0.1,0.6-0.1c0.1,0,0.2,0,0.3,0.1c0.1,0.1,0.2,0.2,0.2,0.3
	c0,0.3-0.1,0.5-0.2,0.8L128.2,64z M134.6,57.2l1.9,3.9l-3.9,0L134.6,57.2z M73.6,74.4l2.3,8.3c0.1,0.3,0.1,0.5-0.1,0.7
	c0,0.1-0.1,0.2-0.2,0.2h4.9c-0.2-0.1-0.3-0.4-0.3-0.5c0-0.1,0-0.3,0-0.4l1.9-8.3l2.1,8c0.1,0.2,0.2,0.3,0.1,0.6
	c0,0.2-0.2,0.4-0.3,0.6h5c-0.2-0.2-0.3-0.3-0.3-0.6c0-0.2,0-0.3,0-0.5l1.9-7.9c0.2-0.6,0.5-1.6,0.7-2.1c0.1-0.3,0.2-0.5,0.4-0.8
	h-4.2c0.3,0.3,0.4,0.5,0.5,0.7c0.1,0.3,0,0.7-0.1,0.9l-1.6,7.6l-2.2-8.6c0-0.2-0.1-0.3,0-0.5c0-0.1,0.1-0.2,0.1-0.3h-4.3
	c0.1,0.1,0.1,0.2,0.1,0.3c0,0.1,0,0.2,0,0.3l-2.2,8.9l-1.8-7.6c-0.1-0.4-0.1-0.6-0.1-0.9c0-0.3,0.3-0.7,0.7-0.9h-4.4
	c0.3,0.4,0.4,0.7,0.6,1.1C73.3,73.5,73.4,73.8,73.6,74.4z M123.1,71.8h-8.7c0.3,0.2,0.4,0.4,0.6,0.7c0.6,0.8,0.5,2.5,0.5,2.9v6.1
	c0,0.5-0.1,1-0.3,1.3c-0.2,0.4-0.4,0.6-0.8,0.9h5.2c-0.3-0.2-0.6-0.4-0.8-0.7c-0.4-0.6-0.4-1.5-0.4-1.8v-1.9h0.8
	c1.2,0,2.1,0.2,2.9,1c1.1,1.1,1.6,2.3,1.5,2.9c-0.1,0.2-0.2,0.4-0.3,0.5h5.1c-0.4-0.3-0.7-0.5-1-0.8c-0.3-0.4-0.4-0.6-0.7-1
	l-0.7-1.1c-0.2-0.4-0.6-0.9-0.9-1.2c-0.4-0.3-0.6-0.6-1.1-0.8c1.8-0.3,3.1-1.5,3.2-3.2C127.4,73.3,125.5,71.8,123.1,71.8z
	 M122.5,77.1h-3.9V74h3.5c1,0,2.1,0.4,2.1,1.6C124.2,76.6,123.3,77.1,122.5,77.1z M140.1,71.8h-7.4c0.2,0.2,0.5,0.5,0.7,0.9
	c0.3,0.5,0.5,1.2,0.5,1.7v7.1c0,0.6-0.1,1-0.4,1.6c-0.2,0.3-0.4,0.4-0.6,0.6h4.6c4.1,0,8.8-0.8,8.8-6.1
	C146.4,73.1,142.3,71.8,140.1,71.8z M139.2,81.5h-2.4V74h3c2.1,0,3.5,1.4,3.4,3.8C143.2,80.6,141.5,81.5,139.2,81.5z M104.8,72.8
	c-0.1-0.2-0.2-0.4-0.2-0.7c0-0.1,0.1-0.2,0.2-0.3h-4.9c0.1,0.1,0.1,0.2,0.1,0.3c0.1,0.2-0.1,0.5-0.2,0.7l-4.3,9.7
	c-0.1,0.3-0.2,0.5-0.4,0.8c-0.1,0.1-0.2,0.2-0.3,0.3h4.3c-0.2-0.3-0.4-0.6-0.4-1c0-0.3,0.1-0.8,0.3-1.3h6.8c0.1,0.4,0.4,0.8,0.4,1.3
	c0,0.4-0.1,0.7-0.3,1h4.4c-0.2-0.3-0.4-0.5-0.6-0.9c-0.5-0.8-0.8-1.4-1.2-2.3L104.8,72.8z M100,79l2.2-5.2l2.4,5.2H100z M69.7,83.6
	c-0.2-0.3-0.4-0.5-0.6-0.9c-0.5-0.8-0.8-1.4-1.2-2.3l-3.7-7.7c-0.1-0.2-0.2-0.4-0.2-0.7c0-0.1,0.1-0.2,0.2-0.3h-4.9
	c0.1,0.1,0.1,0.2,0.1,0.3c0.1,0.2-0.1,0.5-0.2,0.7l-4.3,9.7c-0.1,0.3-0.2,0.5-0.4,0.8c-0.1,0.1-0.2,0.2-0.3,0.3h4.3
	c-0.2-0.3-0.4-0.6-0.4-1c0-0.3,0.1-0.8,0.3-1.3h6.8c0.1,0.4,0.4,0.8,0.4,1.3c0,0.4-0.1,0.7-0.3,1H69.7z M59.5,79l2.2-5.2l2.4,5.2
	H59.5z M156.2,81.7c-2.7,0.1-5.2-1.3-5.4-1.5l0.7,3.5c0.2-0.1,0.4-0.1,0.6-0.1c0.9,0,2.5,0.3,4,0.3c3.6,0.1,6.1-1.3,6.2-3.9
	c0-1.9-1.2-3.1-4-3.5l-2.2-0.4c-0.9-0.1-2-0.4-2-1.1c0-0.9,1.3-1.3,2.9-1.2c1.8,0.1,3.6,0.6,4,1.1l0.8-2.9c-0.3,0.1-0.3,0.1-0.7,0.1
	c-1.3,0-2.6-0.4-4.1-0.5c-2.9-0.1-6,0.9-6,3.6c0,2.3,1.9,3,3.9,3.3l2.5,0.4c0.8,0.1,1.7,0.4,1.7,1.2C159,81.2,157.7,81.7,156.2,81.7
	z M89.7,92.7c-0.3,0-0.5-0.3-0.5-0.6H88v0.1c0,0.9,0.7,1.5,1.7,1.5c1,0,1.7-0.6,1.7-1.5c0-0.6-0.3-1-1.1-1.3l-0.2-0.1l-0.2-0.1
	l-0.2-0.1c0,0-0.1,0-0.1,0c-0.2-0.1-0.3-0.2-0.3-0.4c0-0.2,0.2-0.4,0.4-0.4c0.3,0,0.4,0.1,0.4,0.5h1.2c0-0.4-0.1-0.7-0.3-0.9
	c-0.3-0.3-0.8-0.5-1.3-0.5c-0.9,0-1.7,0.6-1.7,1.4c0,0.4,0.2,0.7,0.5,1c0.2,0.2,0.4,0.3,1.1,0.6c0.3,0.1,0.5,0.3,0.5,0.5
	C90.2,92.5,90,92.7,89.7,92.7z M74.6,88.9v4.7h2.6v-1.1h-1.4v-3.7H74.6z M141.9,90.9l-0.2-0.1l-0.2-0.1l-0.2-0.1c0,0-0.1,0-0.1,0
	c-0.2-0.1-0.3-0.2-0.3-0.4c0-0.2,0.2-0.4,0.4-0.4c0.3,0,0.4,0.1,0.4,0.5h1.2c0-0.4-0.1-0.7-0.3-0.9c-0.3-0.3-0.8-0.5-1.3-0.5
	c-0.9,0-1.7,0.6-1.7,1.4c0,0.4,0.2,0.7,0.5,1c0.3,0.2,0.4,0.3,1.1,0.6c0.4,0.1,0.5,0.3,0.5,0.5c0,0.2-0.2,0.4-0.5,0.4
	c-0.3,0-0.5-0.3-0.5-0.6h-1.2v0.1c0,0.9,0.7,1.5,1.7,1.5c1,0,1.7-0.6,1.7-1.5C143,91.6,142.6,91.2,141.9,90.9z M136.5,89.9v-1.1
	h-2.6v4.7h2.6v-1.1H135v-0.8h1.4v-1.1H135v-0.7H136.5z M106.3,88.9v4.7h1.2l0-2.9l1.8,2.9h1.1v-4.7h-1.2l0,3l-1.8-3H106.3z
	 M130.6,92.5h-1.4v-3.7H128v4.7h2.6V92.5z M101.7,92.9l0.2,0.7h1.3l-1.9-4.7h-1l-1.9,4.7h1.3l0.2-0.7H101.7z M100.9,90.3l0.5,1.6h-1
	L100.9,90.3z M124.6,89.9v-1.1H122v4.7h2.6v-1.1h-1.5v-0.8h1.4v-1.1h-1.4v-0.7H124.6z M116.1,89.8c0.5,0,0.8,0.2,1,0.6h1.4
	c-0.3-1-1.3-1.7-2.3-1.7c-1.5,0-2.6,1.1-2.6,2.4c0,1.4,1.1,2.5,2.5,2.5c1.4,0,2.5-1.1,2.5-2.5c0,0,0-0.1,0-0.3h-2.8v1h1.4
	c-0.1,0.5-0.5,0.8-1,0.8c-0.8,0-1.4-0.6-1.4-1.5C114.8,90.4,115.4,89.8,116.1,89.8z M85,91.2c0-1.4-1.1-2.5-2.5-2.5
	c-1.4,0-2.5,1.1-2.5,2.5c0,1.4,1.1,2.4,2.5,2.4C83.9,93.7,85,92.6,85,91.2z M81.2,91.2c0-0.8,0.6-1.4,1.3-1.4c0.7,0,1.3,0.6,1.3,1.4
	c0,0.8-0.5,1.4-1.3,1.4S81.2,92,81.2,91.2z"/>
<path class="st0" d="M72.9,45.1c0-0.6-0.2-1-0.6-1.2c-0.3-0.1-0.7-0.1-1.3,0c-0.3,0.1-0.5,0.2-0.8,0.2c-0.3,0.1-0.6,0.1-0.8,0
	c-0.2-0.1-0.3-0.3-0.3-0.5c0-0.6,0.4-1.3,1.3-1.7c0.6-0.3,1.1-0.4,1.5-0.1c0.2-0.3,0.4-0.6,0.7-1c-0.6-0.3-1.2-0.3-2.2,0.2
	c-1.4,0.7-2.3,1.9-2.3,3.2c0,0.6,0.2,0.9,0.5,1.1c0.3,0.1,0.7,0.1,1.3-0.1c0.3-0.1,0.5-0.2,0.8-0.3c0.4-0.1,0.6-0.1,0.8,0
	c0.2,0.1,0.3,0.3,0.3,0.6c0,0.7-0.5,1.3-1.4,1.7c-0.7,0.3-1.3,0.4-1.8,0.2c-0.2,0.3-0.5,0.7-0.7,1c0.7,0.4,1.4,0.3,2.4-0.2
	C71.9,47.6,72.9,46.4,72.9,45.1z M150.4,41.6c-0.3-0.2-0.7-0.3-1-0.5v7.1c0.3,0.2,0.7,0.3,1,0.5V41.6z M94.2,22.3
	c0.5-0.1,0.9-0.2,1.4-0.2c0.5,0.9,1,1.8,1.6,2.8c0.4-0.1,0.9-0.1,1.3-0.2c-0.6-1-1.1-1.9-1.7-2.9c0.8-0.3,1.5-1.1,1.5-2.1
	c0-1.2-0.9-2-2.3-1.8c-1,0.1-1.9,0.3-2.9,0.5v7.1c0.4-0.1,0.7-0.1,1.1-0.2V22.3z M94.2,19.1c0.6-0.1,1.1-0.2,1.7-0.3
	c0.7-0.1,1.3,0.2,1.3,0.9c0,0.7-0.5,1.2-1.3,1.3c-0.6,0.1-1.1,0.2-1.7,0.3V19.1z M86.8,25.4c1-0.2,1.9-0.5,2.9-0.7
	c0.2,0.4,0.3,0.9,0.5,1.3c0.4-0.1,0.8-0.2,1.2-0.2c-0.9-2.2-1.8-4.4-2.7-6.5c-0.3,0.1-0.6,0.1-0.9,0.2c-0.9,2.6-1.8,5.2-2.7,7.8
	c0.4-0.1,0.8-0.2,1.2-0.3C86.5,26.4,86.7,25.9,86.8,25.4z M88.3,21c0.4,1,0.7,1.9,1.1,2.9c-0.7,0.2-1.5,0.3-2.2,0.5
	C87.5,23.2,87.9,22.1,88.3,21z M141,28.2c-1.1-0.4-2.3-0.8-3.4-1.1V21c-0.4-0.1-0.7-0.2-1.1-0.3v7.1c1.5,0.4,3,0.9,4.5,1.5V28.2z
	 M59.6,53.4c0.7-1.2,0.7-2.3,0.7-3.3c0-1,0-2.1-0.7-2.4c-0.4-0.2-1,0-1.7,0.4c-0.8,0.5-1.5,1-2.3,1.5v7.1c0.7-0.5,1.5-1,2.3-1.5
	C58.6,54.8,59.2,54.2,59.6,53.4z M56.6,55.1v-5.2c0.4-0.3,0.8-0.5,1.2-0.8c0.5-0.3,0.8-0.4,1.1-0.2c0.3,0.2,0.3,0.9,0.3,1.8
	c0,1,0,1.8-0.3,2.4c-0.3,0.5-0.6,0.9-1.1,1.2C57.4,54.6,57,54.8,56.6,55.1z M79,40c0.6,1,1.1,1.9,1.7,2.9c0.3-0.1,0.5-0.2,0.8-0.3
	c0.6-1.3,1.1-2.6,1.7-4v4.7c0.4-0.1,0.7-0.2,1.1-0.3V36c-0.4,0.1-0.7,0.2-1.1,0.3c-0.7,1.7-1.4,3.4-2.1,5c-0.7-1.2-1.4-2.5-2.1-3.7
	c-0.4,0.1-0.7,0.3-1.1,0.4v7.1c0.4-0.1,0.7-0.3,1.1-0.4V40z M89.1,34.8c-0.8,0.2-1.4,0.6-1.9,1.2c-0.7,0.9-0.7,1.7-0.7,3
	c0,1.4,0,2.2,0.7,2.7c0.5,0.4,1.1,0.5,1.9,0.3c0.8-0.2,1.4-0.6,1.9-1.2c0.7-0.8,0.7-1.6,0.7-3c0-1.4,0-2.2-0.7-2.7
	C90.5,34.7,89.9,34.6,89.1,34.8z M90.2,40.3c-0.3,0.3-0.7,0.6-1.1,0.7c-0.4,0.1-0.8,0-1.1-0.2c-0.4-0.3-0.4-0.7-0.4-2.1
	c0-1.4,0.1-1.8,0.4-2.3c0.3-0.3,0.7-0.6,1.1-0.7c0.4-0.1,0.8,0,1.1,0.2c0.4,0.3,0.4,0.7,0.4,2.1C90.6,39.5,90.5,39.9,90.2,40.3z
	 M134.3,26.2c-1.2-0.3-2.4-0.6-3.5-0.9v-2.1c1,0.2,2,0.5,3,0.7v-1c-1-0.3-2-0.5-3-0.7v-2.1c1.2,0.3,2.4,0.6,3.5,0.9v-1
	c-1.5-0.4-3.1-0.8-4.7-1.1V26c1.6,0.3,3.1,0.7,4.7,1.1V26.2z M163.6,52.9c-0.3-0.5-0.6-0.8-1.2-1.3c-0.2-0.2-0.5-0.4-0.7-0.6
	c-0.3-0.2-0.6-0.5-0.7-0.8c-0.2-0.3-0.2-0.6-0.2-0.8c0-0.6,0.4-0.8,1.2-0.3c0.5,0.4,1,0.8,1.4,1.5c0.2-0.1,0.4-0.2,0.6-0.2
	c-0.5-1-1.1-1.6-2-2.2c-1.3-0.9-2.2-0.6-2.2,0.7c0,0.6,0.2,1.1,0.5,1.7c0.3,0.5,0.7,0.9,1.2,1.4c0.3,0.2,0.5,0.4,0.8,0.6
	c0.4,0.3,0.5,0.5,0.7,0.8c0.2,0.3,0.3,0.6,0.3,0.9c0,0.7-0.5,0.7-1.3,0.2c-0.7-0.4-1.2-0.9-1.7-1.8c-0.2,0.1-0.4,0.2-0.7,0.3
	c0.6,1.1,1.3,1.8,2.3,2.4c1.4,0.9,2.3,0.8,2.3-0.5C164.2,54.1,164,53.5,163.6,52.9z M66.6,49.1c-1.1,0.6-2.2,1.2-3.3,1.8v-2.1
	c0.9-0.5,1.9-1,2.8-1.5v-1c-0.9,0.5-1.9,1-2.8,1.5v-2.1c1.1-0.6,2.2-1.2,3.3-1.8v-1c-1.4,0.7-2.9,1.5-4.3,2.4v7.1
	c1.4-0.8,2.8-1.6,4.3-2.4V49.1z M153.8,45.4c1,2.2,2.1,4.4,3.1,6.7c0.3,0.2,0.6,0.4,0.9,0.5v-7.1c-0.3-0.2-0.7-0.4-1-0.6v5
	c-1-2.3-2.1-4.5-3.1-6.7c-0.3-0.2-0.6-0.3-0.9-0.5v7.1c0.3,0.2,0.7,0.4,1,0.5V45.4z M81.4,28.4c1.3-0.4,2.3-1.5,2.6-3
	c-0.4,0.1-0.7,0.2-1.1,0.3c-0.2,0.8-0.7,1.4-1.5,1.7c-0.4,0.1-0.8,0.1-1.1-0.1c-0.4-0.3-0.4-0.6-0.4-2.1c0-1.4,0.1-1.9,0.4-2.4
	c0.3-0.4,0.6-0.6,1.1-0.8c0.8-0.3,1.3,0.1,1.5,0.8c0.4-0.1,0.7-0.2,1.1-0.3c-0.3-1.3-1.2-1.8-2.6-1.4c-0.7,0.2-1.4,0.7-1.9,1.4
	c-0.7,0.9-0.7,1.7-0.7,3.1c0,1.4,0,2.2,0.7,2.6C80,28.6,80.6,28.6,81.4,28.4z M101.6,21.3c0.5,0,0.9-0.1,1.4-0.1
	c0.5,1,1,1.9,1.6,2.9c0.4,0,0.9,0,1.3-0.1c-0.6-1-1.1-2-1.7-3.1c0.8-0.3,1.5-0.9,1.5-2c0-1.2-0.9-2-2.3-1.9c-1,0.1-1.9,0.1-2.9,0.2
	v7.1c0.4,0,0.8-0.1,1.1-0.1V21.3z M101.6,18.2c0.6,0,1.1-0.1,1.7-0.1c0.8-0.1,1.3,0.3,1.3,1c0,0.7-0.5,1.1-1.3,1.2
	c-0.6,0-1.1,0.1-1.7,0.1V18.2z M110.3,24c0.8,0,1.5-0.3,2-0.7c0.7-0.7,0.7-1.5,0.7-2.8c0-1.4,0-2.2-0.7-2.9c-0.5-0.5-1.2-0.8-2-0.8
	c-0.8,0-1.4,0.3-2,0.8c-0.7,0.7-0.7,1.5-0.7,2.9c0,1.4,0,2.2,0.7,2.8C108.9,23.7,109.5,24,110.3,24z M109.2,18.2
	c0.3-0.3,0.7-0.4,1.1-0.4c0.4,0,0.8,0.2,1.1,0.5c0.4,0.4,0.4,0.8,0.4,2.2s-0.1,1.8-0.4,2.2c-0.3,0.3-0.7,0.4-1.1,0.4
	c-0.4,0-0.8-0.2-1.1-0.4c-0.4-0.4-0.4-0.8-0.4-2.2C108.8,19,108.9,18.6,109.2,18.2z M102.1,32.8v7.1c0.9-0.1,1.7-0.1,2.6-0.2
	c0.8,0,1.5-0.3,1.9-0.8c0.8-0.8,0.8-1.9,0.8-3c0-1,0.1-2.1-0.8-2.8c-0.5-0.4-1.2-0.6-1.9-0.6C103.9,32.7,103,32.7,102.1,32.8z
	 M106.3,36.1c0,1,0,1.7-0.4,2.2c-0.3,0.3-0.7,0.5-1.3,0.5c-0.5,0-0.9,0.1-1.4,0.1v-5.2c0.5,0,0.9-0.1,1.4-0.1c0.5,0,1,0.1,1.3,0.4
	C106.3,34.4,106.3,35.1,106.3,36.1z M118.7,33.8c0.6,0.1,1.2,0.2,1.6,0.7c0.2-0.2,0.5-0.4,0.7-0.6c-0.6-0.6-1.3-1-2.3-1.1
	c-1.5-0.1-2.5,0.7-2.5,1.9c0,0.6,0.2,1,0.5,1.4c0.3,0.3,0.8,0.5,1.4,0.7c0.3,0.1,0.6,0.1,0.9,0.2c0.4,0.1,0.6,0.2,0.8,0.4
	c0.2,0.2,0.3,0.5,0.3,0.8c0,0.7-0.6,1-1.5,0.9c-0.8-0.1-1.4-0.3-1.9-0.8c-0.3,0.2-0.5,0.4-0.8,0.7c0.7,0.7,1.5,1,2.6,1.1
	c1.6,0.1,2.7-0.5,2.7-1.8c0-0.6-0.2-1.1-0.6-1.5c-0.3-0.3-0.7-0.5-1.4-0.7c-0.3-0.1-0.6-0.1-0.8-0.2c-0.3-0.1-0.6-0.2-0.8-0.4
	c-0.2-0.2-0.3-0.4-0.3-0.7C117.3,34.1,117.8,33.7,118.7,33.8z M94,33.8v7.1c0.4-0.1,0.7-0.1,1.1-0.2v-5c1.1,1.5,2.3,3,3.4,4.5
	c0.3,0,0.7-0.1,1-0.1v-7.1c-0.4,0-0.7,0.1-1.1,0.1v5c-1.1-1.5-2.3-3-3.4-4.5C94.7,33.7,94.3,33.8,94,33.8z M117.9,24.3
	c1.5,0.1,2.7-0.7,2.7-2.2v-4.7c-0.4,0-0.8-0.1-1.1-0.1V22c0,0.9-0.6,1.5-1.5,1.4c-0.9-0.1-1.5-0.7-1.5-1.7v-4.7
	c-0.4,0-0.8,0-1.1-0.1v4.7C115.2,23.2,116.3,24.2,117.9,24.3z M124.9,24.2c-0.8-0.1-1.3-0.4-1.9-1c-0.2,0.2-0.5,0.4-0.7,0.6
	c0.7,0.8,1.5,1.1,2.6,1.3c1.5,0.2,2.6-0.3,2.6-1.6c0-0.6-0.2-1.2-0.6-1.6c-0.3-0.3-0.7-0.6-1.4-0.8c-0.3-0.1-0.6-0.2-0.8-0.3
	c-0.3-0.1-0.6-0.3-0.8-0.5c-0.2-0.2-0.3-0.4-0.3-0.7c0-0.6,0.5-1,1.3-0.9c0.6,0.1,1.1,0.3,1.6,0.8c0.2-0.2,0.5-0.4,0.7-0.5
	c-0.6-0.7-1.3-1-2.3-1.2c-1.5-0.2-2.5,0.5-2.5,1.7c0,0.6,0.2,1,0.5,1.4c0.3,0.3,0.8,0.6,1.4,0.8c0.3,0.1,0.6,0.2,0.9,0.3
	c0.4,0.1,0.6,0.2,0.8,0.4c0.2,0.2,0.3,0.5,0.3,0.8C126.5,24.1,125.9,24.4,124.9,24.2z M109.7,39.6c1.6,0,3.2,0,4.8,0.1v-1
	c-1.2-0.1-2.4-0.1-3.6-0.1v-2.1c1,0,2.1,0,3.1,0.1v-1c-1,0-2.1-0.1-3.1-0.1v-2.1c1.2,0,2.4,0,3.6,0.1v-1c-1.6-0.1-3.2-0.1-4.8-0.1
	V39.6z M139.6,44.4c0.4,0.1,0.8,0.3,1.2,0.4c-0.9-2.7-1.7-5.3-2.6-8c-0.3-0.1-0.6-0.2-0.9-0.3c-0.9,2.1-1.8,4.2-2.6,6.3
	c0.4,0.1,0.8,0.2,1.2,0.3c0.2-0.4,0.3-0.9,0.5-1.3c0.9,0.3,1.9,0.6,2.8,0.9C139.2,43.3,139.4,43.8,139.6,44.4z M136.6,41.1
	c0.4-0.9,0.7-1.9,1.1-2.8c0.4,1.2,0.7,2.3,1.1,3.5C138,41.5,137.3,41.3,136.6,41.1z M126.5,41.1c0.4,0.1,0.7,0.1,1.1,0.2v-4.7
	c0.6,1.3,1.2,2.5,1.7,3.8c0.3,0.1,0.5,0.1,0.8,0.2c0.6-1,1.1-2.1,1.7-3.1v4.7c0.4,0.1,0.7,0.2,1.1,0.3v-7.1
	c-0.4-0.1-0.7-0.2-1.1-0.3c-0.7,1.3-1.4,2.6-2.1,3.9c-0.7-1.6-1.4-3.2-2.1-4.8c-0.4-0.1-0.7-0.1-1.1-0.2V41.1z M146.2,46.8
	c0.4,0.2,0.8,0.3,1.2,0.5c-0.5-1.3-1.1-2.6-1.6-3.8c0.8,0.1,1.4-0.3,1.4-1.3c0-1.2-0.8-2.4-2.2-3c-0.9-0.4-1.8-0.7-2.7-1.1v7.1
	c0.4,0.1,0.7,0.3,1.1,0.4v-3c0.4,0.2,0.9,0.3,1.3,0.5C145.2,44.4,145.7,45.6,146.2,46.8z M143.4,39.6c0.5,0.2,1.1,0.4,1.6,0.6
	c0.7,0.3,1.2,0.9,1.2,1.6c0,0.7-0.5,0.9-1.2,0.6c-0.5-0.2-1.1-0.4-1.6-0.6V39.6z M102.3,120.9h-3.4v-6.1h-1.1v7.1h4.5V120.9z
	 M113.3,101.9h-1v7.1h1.1v-5l3.3,5h1v-7.1h-1.1v5L113.3,101.9z M99.2,109v-6.1h2v-1h-5v1h2v6.1H99.2z M106.1,102.6
	c-0.7,0.7-0.7,1.5-0.7,2.8s0,2.2,0.7,2.9c0.5,0.5,1.1,0.8,1.9,0.8c0.8,0,1.4-0.3,1.9-0.8c0.7-0.7,0.7-1.5,0.7-2.9s0-2.2-0.7-2.8
	c-0.5-0.5-1.1-0.8-1.9-0.8C107.3,101.9,106.6,102.1,106.1,102.6z M109.5,105.5c0,1.4-0.1,1.8-0.4,2.2c-0.2,0.3-0.6,0.4-1.1,0.4
	c-0.4,0-0.8-0.2-1.1-0.4c-0.3-0.4-0.4-0.8-0.4-2.2c0-1.4,0.1-1.8,0.4-2.2c0.2-0.3,0.6-0.4,1.1-0.4c0.4,0,0.8,0.2,1.1,0.4
	C109.4,103.7,109.5,104.1,109.5,105.5z M103.7,109v-7.1h-1.1v7.1H103.7z M158.5,102.8c0.6,0,1.1,0.1,1.5,0.5l0.7-0.7
	c-0.6-0.6-1.3-0.8-2.2-0.8c-1.5,0-2.4,0.8-2.4,2.1c0,0.6,0.2,1,0.5,1.4c0.3,0.3,0.8,0.5,1.3,0.6l0.8,0.1c0.4,0.1,0.6,0.1,0.8,0.3
	c0.2,0.2,0.3,0.4,0.3,0.7c0,0.7-0.5,1.1-1.5,1.1c-0.7,0-1.3-0.2-1.8-0.7l-0.7,0.7c0.7,0.7,1.4,0.9,2.5,0.9c1.5,0,2.6-0.8,2.6-2.1
	c0-0.6-0.2-1.1-0.6-1.5c-0.3-0.3-0.7-0.4-1.3-0.5l-0.8-0.1c-0.3,0-0.6-0.2-0.8-0.3c-0.2-0.2-0.3-0.4-0.3-0.7
	C157.2,103.3,157.7,102.8,158.5,102.8z M123.4,101.9h-1.1v7.1h4.5v-1h-3.4V101.9z M123.2,119.4c0,0.9-0.6,1.5-1.5,1.5
	c-0.9,0-1.5-0.6-1.5-1.5v-4.7h-1.1v4.7c0,1.5,1.1,2.5,2.5,2.5c1.4,0,2.6-1,2.6-2.5v-4.7h-1.1V119.4z M131.8,107.6l0.5,1.4h1.1
	l-2.6-7.1H130l-2.6,7.1h1.1l0.5-1.4H131.8z M130.5,103.5l1.1,3.1h-2.2L130.5,103.5z M60,114.7c-0.8,0-1.4,0.3-1.9,0.8
	c-0.7,0.7-0.7,1.5-0.7,2.8c0,1.4,0,2.2,0.7,2.9c0.5,0.5,1.1,0.8,1.9,0.8c0.8,0,1.4-0.3,1.9-0.8c0.7-0.7,0.7-1.5,0.7-2.9
	c0-1.4,0-2.2-0.7-2.8C61.4,114.9,60.7,114.7,60,114.7z M61,120.5c-0.2,0.3-0.6,0.4-1.1,0.4c-0.4,0-0.8-0.2-1.1-0.4
	c-0.3-0.4-0.4-0.8-0.4-2.2c0-1.4,0.1-1.8,0.4-2.2c0.2-0.3,0.6-0.4,1.1-0.4c0.4,0,0.8,0.2,1.1,0.4c0.3,0.4,0.4,0.8,0.4,2.2
	C61.5,119.7,61.4,120.1,61,120.5z M122,133.1h-2v1.2h-1.5l3-5.9h-2.3l-3,5.9v2h3.8v1.2h2v-1.2h0.7v-2H122V133.1z M109.6,130v2.2
	l1.9-1.7v6.9h2.1v-9.1h-2.1L109.6,130z M117.5,118.2c0-1,0.1-2.1-0.7-2.8c-0.4-0.5-1.1-0.7-1.8-0.7h-2.5v7.1h2.5
	c0.7,0,1.4-0.2,1.8-0.7C117.6,120.4,117.5,119.3,117.5,118.2z M116.1,120.4c-0.3,0.3-0.7,0.5-1.2,0.5h-1.3v-5.2h1.3
	c0.5,0,0.9,0.2,1.2,0.5c0.4,0.4,0.4,1.1,0.4,2.1C116.5,119.2,116.4,120,116.1,120.4z M154.6,106.6v-4.7h-1.1v4.7
	c0,0.9-0.6,1.5-1.5,1.5c-0.9,0-1.5-0.6-1.5-1.5v-4.7h-1.1v4.7c0,1.5,1.1,2.5,2.5,2.5C153.5,109.1,154.6,108.1,154.6,106.6z
	 M153.6,114.7h-2.5v7.1h2.5c0.7,0,1.4-0.2,1.8-0.7c0.8-0.8,0.7-1.9,0.7-2.9c0-1,0-2.1-0.7-2.8C155,115,154.4,114.7,153.6,114.7z
	 M154.7,120.4c-0.3,0.3-0.7,0.5-1.2,0.5h-1.3v-5.2h1.3c0.5,0,0.9,0.2,1.2,0.5c0.4,0.4,0.4,1.1,0.4,2.1
	C155.1,119.2,155.1,120,154.7,120.4z M103.7,121.8h4.5v-1h-3.5v-2.1h2.9v-1h-2.9v-2.1h3.5v-1h-4.5V121.8z M139.4,114.7
	c-0.8,0-1.4,0.3-1.9,0.8c-0.7,0.7-0.7,1.5-0.7,2.8c0,1.4,0,2.2,0.7,2.9c0.5,0.5,1.1,0.8,1.9,0.8c0.8,0,1.4-0.3,1.9-0.8
	c0.7-0.7,0.7-1.5,0.7-2.9c0-1.4,0-2.2-0.7-2.8C140.8,114.9,140.2,114.7,139.4,114.7z M140.5,120.5c-0.3,0.3-0.6,0.4-1.1,0.4
	c-0.4,0-0.8-0.2-1.1-0.4c-0.4-0.4-0.4-0.8-0.4-2.2c0-1.4,0.1-1.8,0.4-2.2c0.2-0.3,0.6-0.4,1.1-0.4c0.4,0,0.8,0.2,1.1,0.4
	c0.3,0.4,0.4,0.8,0.4,2.2C140.9,119.7,140.8,120.1,140.5,120.5z M158,121.8h4.5v-1h-3.5v-2.1h2.9v-1h-2.9v-2.1h3.5v-1H158V121.8z
	 M148,119.7l-3.3-5h-1v7.1h1.1v-5l3.3,5h1v-7.1H148V119.7z M139.9,101.9h-2.7v7.1h1.1v-2.8h1.6c1.4,0,2.3-0.9,2.3-2.2
	C142.2,102.8,141.3,101.9,139.9,101.9z M139.9,105.3h-1.6v-2.4h1.6c0.7,0,1.3,0.4,1.3,1.2C141.1,104.8,140.6,105.3,139.9,105.3z
	 M148.2,108.1h-3.4v-6.1h-1.1v7.1h4.5V108.1z M132,119.1l-2.1-4.4h-1.1v7.1h1.1v-4.7l1.7,3.5h0.8l1.6-3.5v4.7h1.1v-7.1H134
	L132,119.1z M75.8,101.9h-5v1h2v6.1h1.1v-6.1h2V101.9z M80.8,121.8h1.1v-7.1h-1.1V121.8z M71,121.8h1.1v-7.1H71V121.8z M76.5,118.9
	H78v0.4c0,0.5-0.1,0.8-0.4,1.1c-0.3,0.3-0.7,0.5-1.2,0.5c-0.4,0-0.8-0.2-1-0.4c-0.3-0.4-0.4-0.8-0.4-2.2c0-1.4,0.1-1.8,0.4-2.2
	c0.2-0.3,0.6-0.4,1-0.4c0.8,0,1.3,0.5,1.5,1.2H79c-0.2-1.2-1.1-2.2-2.6-2.2c-0.8,0-1.4,0.3-1.9,0.8c-0.7,0.7-0.7,1.5-0.7,2.8
	c0,1.4,0,2.2,0.7,2.9c0.5,0.5,1.1,0.8,1.9,0.8c0.7,0,1.4-0.2,2-0.8c0.5-0.5,0.6-1.1,0.6-2V118h-2.6V118.9z M61.9,101.9H61l-2.6,7.1
	h1.1l0.5-1.4h2.8l0.5,1.4h1.1L61.9,101.9z M60.3,106.7l1.1-3.1l1.1,3.1H60.3z M65,102.9h2v6.1h1.1v-6.1h2v-1h-5V102.9z M69.3,116.8
	c0-1.2-0.9-2.1-2.2-2.1h-2.8v7.1h1.1v-3h1.3l1.5,3h1.3l-1.6-3.1C68.7,118.5,69.3,117.8,69.3,116.8z M65.4,117.9v-2.2H67
	c0.7,0,1.2,0.4,1.2,1.1c0,0.7-0.5,1.1-1.2,1.1H65.4z M84.7,107.6h2.8L88,109h1.1l-2.6-7.1h-0.9l-2.6,7.1h1.1L84.7,107.6z
	 M86.1,103.5l1.1,3.1H85L86.1,103.5z M92.7,109.1c1.3,0,2.3-0.8,2.5-2.2h-1.1c-0.2,0.7-0.7,1.2-1.4,1.2c-0.4,0-0.8-0.2-1-0.4
	c-0.3-0.4-0.4-0.8-0.4-2.2c0-1.4,0.1-1.8,0.4-2.2c0.2-0.3,0.6-0.4,1-0.4c0.8,0,1.3,0.5,1.4,1.2h1.1c-0.2-1.4-1.2-2.2-2.5-2.2
	c-0.7,0-1.4,0.3-1.9,0.8c-0.7,0.7-0.7,1.5-0.7,2.8s0,2.2,0.7,2.9C91.3,108.8,91.9,109.1,92.7,109.1z M82.2,104
	c0-1.2-0.9-2.1-2.2-2.1h-2.8v7.1h1.1v-3h1.3l1.5,3h1.3l-1.6-3.1C81.5,105.7,82.2,105,82.2,104z M78.3,105.1v-2.2h1.6
	c0.7,0,1.2,0.4,1.2,1.1c0,0.7-0.5,1.1-1.2,1.1H78.3z M100.3,131c0-1.7-1.2-2.8-2.9-2.8c-1.6,0-2.9,1-2.9,2.8h2.1
	c0-0.7,0.5-0.9,0.8-0.9c0.5,0,0.8,0.3,0.8,0.8c0,0.4-0.1,0.6-0.5,1l-3.3,3.6v1.9h5.9v-1.9H97l2.2-2.3
	C99.9,132.5,100.3,132,100.3,131z M95.4,121.8h1.1l-2.6-7.1h-0.9l-2.6,7.1h1.1l0.5-1.4h2.8L95.4,121.8z M92.5,119.5l1.1-3.1l1.1,3.1
	H92.5z M104.7,128.3c-1.5,0-2.9,1-2.9,2.8v3.6c0,1.9,1.4,2.8,2.9,2.8c1.5,0,2.9-1,2.9-2.8v-3.6C107.6,129.2,106.2,128.3,104.7,128.3
	z M105.5,134.7c0,0.6-0.4,0.9-0.8,0.9c-0.5,0-0.8-0.3-0.8-0.9v-3.6c0-0.6,0.4-1,0.8-1c0.4,0,0.8,0.3,0.8,1V134.7z M88.2,119.7
	l-3.3-5h-1v7.1H85v-5l3.3,5h1v-7.1h-1.1V119.7z"/>
</svg>
