<?xml version="1.0" encoding="utf-8"?>
<!-- Generator: Adobe Illustrator 22.0.0, SVG Export Plug-In . SVG Version: 6.00 Build 0)  -->
<svg version="1.1" id="Calque_1" xmlns="http://www.w3.org/2000/svg" xmlns:xlink="http://www.w3.org/1999/xlink" x="0px" y="0px"
	 viewBox="0 0 502.2 60" style="enable-background:new 0 0 502.2 60;" xml:space="preserve">
<style type="text/css">
	.st0{fill:#FFFFFF;}
</style>
<rect x="2.5" y="3.9" class="st0" width="496.8" height="50.9"/>
<g>
	<path d="M499.3,54.8H2.5V3.9h496.8V54.8z M500.8,2.4H1v53.9h499.8V2.4z"/>
</g>
<path d="M23,15.1c2.8,0,4.9,1,6.5,3c1.9,2.3,2.8,6.2,2.8,11.7c0,5.4-0.9,9.3-2.8,11.7c-1.5,2-3.7,2.9-6.5,2.9s-5-1.1-6.7-3.2
	c-1.7-2.1-2.6-6-2.6-11.5c0-5.4,0.9-9.3,2.8-11.6C18.1,16.1,20.2,15.1,23,15.1z M23,19.7c-0.7,0-1.3,0.2-1.8,0.6s-0.9,1.2-1.2,2.3
	c-0.4,1.4-0.6,3.8-0.6,7.2s0.2,5.7,0.5,6.9c0.3,1.3,0.8,2.1,1.3,2.5s1.1,0.6,1.8,0.6s1.3-0.2,1.8-0.6c0.5-0.4,0.9-1.2,1.2-2.3
	c0.4-1.4,0.6-3.8,0.6-7.1s-0.2-5.7-0.5-6.9c-0.3-1.3-0.8-2.1-1.3-2.5C24.3,19.9,23.7,19.7,23,19.7z"/>
<path d="M40.7,28.4c-1.4-0.6-2.5-1.4-3.1-2.5c-0.6-1-1-2.2-1-3.4c0-2.1,0.7-3.9,2.2-5.3s3.6-2.1,6.4-2.1c2.7,0,4.8,0.7,6.3,2.1
	s2.3,3.2,2.3,5.3c0,1.3-0.3,2.5-1,3.5s-1.7,1.8-2.9,2.4c1.6,0.6,2.8,1.6,3.6,2.8s1.2,2.6,1.2,4.2c0,2.6-0.8,4.8-2.5,6.4
	c-1.7,1.7-3.9,2.5-6.7,2.5c-2.6,0-4.8-0.7-6.5-2.1c-2-1.6-3.1-3.8-3.1-6.6c0-1.5,0.4-3,1.2-4.3C37.8,30.1,39,29.1,40.7,28.4z
	 M41.3,35.1c0,1.5,0.4,2.7,1.2,3.5s1.7,1.3,2.9,1.3c1.1,0,2.1-0.4,2.8-1.2s1.1-2,1.1-3.5c0-1.3-0.4-2.4-1.1-3.2
	c-0.8-0.8-1.7-1.2-2.9-1.2c-1.3,0-2.3,0.5-3,1.4S41.3,34.1,41.3,35.1z M41.8,22.9c0,1.1,0.3,1.9,0.9,2.6c0.6,0.6,1.4,0.9,2.5,0.9
	c1,0,1.9-0.3,2.5-0.9s0.9-1.5,0.9-2.6c0-1-0.3-1.9-0.9-2.5c-0.6-0.6-1.4-0.9-2.5-0.9s-1.9,0.3-2.5,0.9S41.8,21.9,41.8,22.9z"/>
<path d="M72.3,43.9h-5.5V23.2c-2,1.9-4.4,3.3-7.1,4.2v-5c1.4-0.5,3-1.4,4.7-2.7s2.8-2.8,3.5-4.6h4.5L72.3,43.9L72.3,43.9z"/>
<path d="M89.8,15.1c2.8,0,4.9,1,6.5,3c1.9,2.3,2.8,6.2,2.8,11.7c0,5.4-0.9,9.3-2.8,11.7c-1.5,2-3.7,2.9-6.5,2.9s-5-1.1-6.7-3.2
	c-1.7-2.1-2.6-6-2.6-11.5c0-5.4,0.9-9.3,2.8-11.6C84.8,16.1,87,15.1,89.8,15.1z M89.8,19.7c-0.7,0-1.3,0.2-1.8,0.6s-0.9,1.2-1.2,2.3
	c-0.4,1.4-0.6,3.8-0.6,7.2s0.2,5.7,0.5,6.9c0.3,1.3,0.8,2.1,1.3,2.5s1.1,0.6,1.8,0.6s1.3-0.2,1.8-0.6c0.5-0.4,0.9-1.2,1.2-2.3
	c0.4-1.4,0.6-3.8,0.6-7.1s-0.2-5.7-0.5-6.9c-0.3-1.3-0.8-2.1-1.3-2.5C91,19.9,90.4,19.7,89.8,19.7z"/>
<path d="M127.9,43.9h-5.5V23.2c-2,1.9-4.4,3.3-7.1,4.2v-5c1.4-0.5,3-1.4,4.7-2.7s2.8-2.8,3.5-4.6h4.5L127.9,43.9L127.9,43.9z"/>
<path d="M154.6,38.8v5.1h-19.2c0.2-1.9,0.8-3.8,1.9-5.5c1-1.7,3.1-4,6.2-6.9c2.5-2.3,4-3.9,4.6-4.7c0.8-1.1,1.1-2.3,1.1-3.4
	c0-1.2-0.3-2.2-1-2.8c-0.7-0.7-1.6-1-2.7-1c-1.1,0-2.1,0.3-2.7,1c-0.7,0.7-1.1,1.8-1.2,3.4l-5.5-0.5c0.3-3,1.3-5.2,3.1-6.5
	c1.7-1.3,3.9-2,6.4-2c2.8,0,5,0.8,6.7,2.3c1.6,1.5,2.4,3.4,2.4,5.7c0,1.3-0.2,2.5-0.7,3.7s-1.2,2.4-2.2,3.7
	c-0.7,0.8-1.9,2.1-3.6,3.7c-1.7,1.6-2.8,2.6-3.3,3.2c-0.5,0.5-0.8,1-1.1,1.5C143.8,38.8,154.6,38.8,154.6,38.8z"/>
<path d="M183.5,43.9H178V23.2c-2,1.9-4.4,3.3-7.1,4.2v-5c1.4-0.5,3-1.4,4.7-2.7s2.8-2.8,3.5-4.6h4.5L183.5,43.9L183.5,43.9z"/>
<path d="M210.2,38.8v5.1H191c0.2-1.9,0.8-3.8,1.9-5.5c1-1.7,3.1-4,6.2-6.9c2.5-2.3,4-3.9,4.6-4.7c0.8-1.1,1.1-2.3,1.1-3.4
	c0-1.2-0.3-2.2-1-2.8c-0.7-0.7-1.6-1-2.7-1c-1.1,0-2.1,0.3-2.7,1c-0.7,0.7-1.1,1.8-1.2,3.4l-5.5-0.5c0.3-3,1.3-5.2,3.1-6.5
	c1.7-1.3,3.9-2,6.4-2c2.8,0,5,0.8,6.7,2.3c1.6,1.5,2.4,3.4,2.4,5.7c0,1.3-0.2,2.5-0.7,3.7s-1.2,2.4-2.2,3.7
	c-0.7,0.8-1.9,2.1-3.6,3.7c-1.7,1.6-2.8,2.6-3.3,3.2c-0.5,0.5-0.8,1-1.1,1.5C199.4,38.8,210.2,38.8,210.2,38.8z"/>
<path d="M243.6,38.8v5.1h-19.2c0.2-1.9,0.8-3.8,1.9-5.5c1-1.7,3.1-4,6.2-6.9c2.5-2.3,4-3.9,4.6-4.7c0.8-1.1,1.1-2.3,1.1-3.4
	c0-1.2-0.3-2.2-1-2.8c-0.7-0.7-1.6-1-2.7-1c-1.1,0-2.1,0.3-2.7,1c-0.7,0.7-1.1,1.8-1.2,3.4l-5.5-0.5c0.3-3,1.3-5.2,3.1-6.5
	c1.7-1.3,3.9-2,6.4-2c2.8,0,5,0.8,6.7,2.3c1.6,1.5,2.4,3.4,2.4,5.7c0,1.3-0.2,2.5-0.7,3.7s-1.2,2.4-2.2,3.7
	c-0.7,0.8-1.9,2.1-3.6,3.7c-1.7,1.6-2.8,2.6-3.3,3.2c-0.5,0.5-0.8,1-1.1,1.5C232.8,38.8,243.6,38.8,243.6,38.8z"/>
<path d="M247.4,36.5l5.5-0.6c0.2,1.2,0.6,2.2,1.4,2.9s1.7,1.1,2.7,1.1c1.1,0,2.1-0.5,2.9-1.4s1.2-2.3,1.2-4.2c0-1.8-0.4-3.1-1.2-4
	s-1.8-1.3-3.1-1.3c-1.6,0-3,0.7-4.2,2.1l-4.5-0.6l2.8-14.9h14.5v5.1H255l-0.9,4.9c1.2-0.6,2.5-0.9,3.8-0.9c2.4,0,4.5,0.9,6.2,2.7
	c1.7,1.8,2.5,4.1,2.5,6.9c0,2.4-0.7,4.5-2.1,6.3c-1.9,2.5-4.4,3.8-7.8,3.8c-2.6,0-4.8-0.7-6.5-2.1C248.7,40.8,247.7,38.9,247.4,36.5
	z"/>
<g>
	<path d="M370.6,38c-1,0-1.9,0.3-2.5,0.7v5.8c0.7,0.3,1.5,0.4,2.5,0.4c0.9,0,1.4-0.6,1.4-3.5C372,38.8,371.5,38,370.6,38z"/>
	<path d="M360.5,15.4c-1.5,0-2,0.1-2,2.6h2.6c0.6,0,0.9-0.3,0.9-0.9C362,15.7,361.9,15.4,360.5,15.4z"/>
	<path d="M318.3,17.1c0-1.5-0.2-1.7-1.5-1.7c-1.5,0-2,0.1-2,2.6h2.6C318,18,318.3,17.7,318.3,17.1z"/>
	<path d="M357.6,43.2v0.6c0,1,0.5,1.1,1,1.1c1.2,0,2.4-0.9,2.4-0.9v-2.1l-2.5,0.2C357.7,42.1,357.6,42.7,357.6,43.2z"/>
	<path d="M320.3,38c-1,0-1.9,0.3-2.5,0.7v5.8c0.7,0.3,1.5,0.4,2.5,0.4c0.9,0,1.4-0.6,1.4-3.5C321.7,38.8,321.2,38,320.3,38z"/>
	<path d="M381.6,38c-1,0-1.9,0.3-2.5,0.7v5.8c0.7,0.3,1.5,0.4,2.5,0.4c0.9,0,1.4-0.6,1.4-3.5C383,38.8,382.5,38,381.6,38z"/>
	<path d="M392,37.8c-1.5,0-2,0.1-2,2.6h2.6c0.6,0,0.9-0.3,0.9-0.9C393.5,38,393.3,37.8,392,37.8z"/>
	<path d="M279.3,1v14.1l14.3,14.3l-14.3,14.3v14h208.3V1H279.3z M341.9,9.4c0-0.3,0.2-0.5,0.5-0.5h2.1c0.3,0,0.4,0.2,0.4,0.5v2
		c0,0.3-0.2,0.5-0.4,0.5h-2.1c-0.3,0-0.5-0.2-0.5-0.5V9.4z M344.8,13.1v11.7H342V13.1H344.8z M308.5,40.7h-3V44h-2.3v-3.3h-2.9v-2.6
		h2.9v-3.3h2.3v3.3h3V40.7z M310.7,20.6c0,3.7-2.1,4.3-4,4.3c-2.5,0-4.1-0.2-5.6-0.7v-2.4c0.8,0.1,3.2,0.2,5,0.2
		c0.8,0,1.8-0.2,1.8-1.4v-0.9c0-0.9-0.2-1.5-1.3-1.5h-2.2c-3.5,0-3.7-2.9-3.7-4.3v-1.4c0-3.2,1.7-4.1,3.9-4.2c2.1,0,4.5,0.3,5.6,0.6
		v2.4c-1.3-0.1-4.1-0.2-4.8-0.2c-1.2,0-1.9,0.1-1.9,1.6v0.8c0,1.3,0.4,1.6,1.6,1.6h2.3c2.8,0,3.4,2.5,3.4,4.3L310.7,20.6L310.7,20.6
		z M312.1,18.9c0-5,1.3-5.9,4.6-5.9c3,0,4.5,0.4,4.5,4.3c0,2.1-1,2.9-2.9,2.9H315c0,2.1,0.7,2.2,2.2,2.2c1.6,0,2.4,0,3.9-0.2v2.1
		c-1.5,0.6-3.7,0.6-5.4,0.6C312.9,24.9,312.1,23.2,312.1,18.9z M321,47.4c-0.9,0-2.2-0.3-3.2-0.8v6.5H315V35.5h2.3l0.5,1.2
		c0.7-0.6,1.9-1.3,3.2-1.3c2.6,0,3.4,2.4,3.4,5.9C324.4,44.7,323.9,47.4,321,47.4z M325.4,17.4v7.4h-2.8V13.1h2.3l0.4,1.5
		c0.7-0.8,1.7-1.6,3-1.6c0.5,0,0.9,0,1.2,0.1v3c-0.3,0-0.9-0.1-1.5-0.1C326.9,16.1,326.1,16.3,325.4,17.4z M333,38.5
		c-0.3,0-0.9-0.1-1.5-0.1c-1.1,0-2,0.2-2.7,1.3v7.4H326V35.5h2.3l0.4,1.5c0.7-0.8,1.7-1.6,3-1.6c0.5,0,0.9,0,1.2,0.1v3H333z
		 M330.3,13.1h3l2.3,8.1l2.4-8.1h3l-4,11.7h-3.1L330.3,13.1z M337,47.2h-2.8V35.5h2.8V47.2z M337.2,33.8c0,0.3-0.2,0.5-0.4,0.5h-2.1
		c-0.3,0-0.5-0.2-0.5-0.5v-2c0-0.3,0.2-0.6,0.5-0.6h2.1c0.3,0,0.4,0.2,0.4,0.6V33.8z M348.7,47.2h-3.2l-2-3.5l-2,3.5h-3.3l3.6-5.9
		l-3.6-5.8h3.3l1.9,3.5l2-3.5h3.3l-3.7,5.9L348.7,47.2z M346.4,18.9c0-4.8,1.4-5.9,3.5-5.9c1,0,3.1,0.1,4.8,0.7v1.9
		c0,0-1.9-0.1-3.7-0.1c-1.3,0-1.9,0.1-1.9,3.5c0,3,0.5,3.4,1.9,3.4c1.8,0,3.8-0.2,3.8-0.2v1.9c-1.5,0.9-3.3,0.7-5,0.7
		C347.9,24.9,346.4,23.8,346.4,18.9z M363.7,47.2h-2.2l-0.6-1.3c-0.1,0.3-1.6,1.5-3.2,1.4c-2-0.1-3-1.6-3-3.1v-1.1
		c0-1.7,0.8-3.2,3.1-3.2h3.1v-0.7c0-1.2-0.5-1.4-1.4-1.4s-3.6,0.2-4.4,0.3v-1.9c1.4-0.6,2.8-0.8,4.8-0.8c2.3,0,3.8,0.9,3.8,3.8
		L363.7,47.2L363.7,47.2z M360.8,22.4c1.6,0,2.4,0,3.9-0.2v2.1c-1.5,0.6-3.7,0.6-5.4,0.6c-2.7,0-3.5-1.7-3.5-6c0-5,1.3-5.9,4.6-5.9
		c3,0,4.5,0.4,4.5,4.3c0,2.1-1,2.9-2.9,2.9h-3.3C358.5,22.3,359.3,22.4,360.8,22.4z M371.3,47.4c-0.9,0-2.2-0.3-3.2-0.8v6.5h-2.8
		V35.5h2.3l0.5,1.2c0.7-0.6,1.9-1.3,3.2-1.3c2.6,0,3.4,2.4,3.4,5.9C374.7,44.7,374.2,47.4,371.3,47.4z M382.3,47.4
		c-0.9,0-2.2-0.3-3.2-0.8v6.5h-2.8V35.5h2.3l0.5,1.2c0.7-0.6,1.9-1.3,3.2-1.3c2.6,0,3.4,2.4,3.4,5.9
		C385.8,44.7,385.2,47.4,382.3,47.4z M392.2,44.8c1.6,0,2.4,0,3.9-0.2v2.1c-1.5,0.6-3.7,0.6-5.4,0.6c-2.7,0-3.5-1.7-3.5-6
		c0-5,1.3-5.9,4.6-5.9c3,0,4.5,0.4,4.5,4.3c0,2.1-1,2.9-2.9,2.9H390C390,44.7,390.7,44.8,392.2,44.8z M402.8,47.2h-2.3
		c-1.7,0-2.7-1.1-2.7-4.2V30h2.8v12.6c0,1.7,0.4,2.1,0.9,2.3c0,0,1.2,0.5,1.3,0.5L402.8,47.2L402.8,47.2z"/>
</g>
<path class="st0" d="M376.6,9.2c1.5,0,2.7,0.5,3.6,1.6c1,1.3,1.5,3.4,1.5,6.4s-0.5,5.1-1.5,6.4c-0.9,1.1-2,1.6-3.6,1.6
	c-1.5,0-2.8-0.6-3.7-1.8c-0.9-1.2-1.4-3.3-1.4-6.3s0.5-5.1,1.5-6.4C373.8,9.7,375,9.2,376.6,9.2z M376.6,11.7c-0.4,0-0.7,0.1-1,0.3
	s-0.5,0.6-0.7,1.3c-0.2,0.8-0.3,2.1-0.3,3.9s0.1,3.1,0.3,3.8c0.2,0.7,0.4,1.2,0.7,1.4c0.3,0.2,0.6,0.3,1,0.3s0.7-0.1,1-0.3
	c0.3-0.2,0.5-0.6,0.7-1.3c0.2-0.8,0.3-2.1,0.3-3.9s-0.1-3.1-0.3-3.8c-0.2-0.7-0.4-1.2-0.7-1.4C377.2,11.8,376.9,11.7,376.6,11.7z"/>
<path class="st0" d="M384.3,22h3v2.2c0,0.9-0.1,1.6-0.2,2.1s-0.4,1-0.9,1.4c-0.4,0.4-1,0.7-1.6,0.9l-0.6-1.2c0.6-0.2,1-0.5,1.3-0.8
	c0.3-0.4,0.4-0.8,0.4-1.4h-1.5V22H384.3z"/>
<path class="st0" d="M394.9,9.2c1.5,0,2.7,0.5,3.6,1.6c1,1.3,1.5,3.4,1.5,6.4s-0.5,5.1-1.5,6.4c-0.9,1.1-2,1.6-3.6,1.6
	c-1.5,0-2.8-0.6-3.7-1.8c-0.9-1.2-1.4-3.3-1.4-6.3s0.5-5.1,1.5-6.4C392.2,9.7,393.4,9.2,394.9,9.2z M394.9,11.7
	c-0.4,0-0.7,0.1-1,0.3s-0.5,0.6-0.7,1.3c-0.2,0.8-0.3,2.1-0.3,3.9s0.1,3.1,0.3,3.8c0.2,0.7,0.4,1.2,0.7,1.4c0.3,0.2,0.6,0.3,1,0.3
	s0.7-0.1,1-0.3c0.3-0.2,0.5-0.6,0.7-1.3c0.2-0.8,0.3-2.1,0.3-3.9s-0.1-3.1-0.3-3.8c-0.2-0.7-0.4-1.2-0.7-1.4
	C395.6,11.8,395.3,11.7,394.9,11.7z"/>
<path class="st0" d="M402.1,20.9l3-0.3c0.1,0.7,0.3,1.2,0.8,1.6s0.9,0.6,1.5,0.6s1.2-0.3,1.6-0.8s0.7-1.3,0.7-2.3s-0.2-1.7-0.7-2.2
	c-0.4-0.5-1-0.7-1.7-0.7c-0.9,0-1.6,0.4-2.3,1.1l-2.4-0.4l1.5-8.2h8v2.8h-5.7l-0.5,2.7c0.7-0.3,1.4-0.5,2.1-0.5
	c1.3,0,2.5,0.5,3.4,1.5s1.4,2.2,1.4,3.8c0,1.3-0.4,2.5-1.1,3.5c-1,1.4-2.4,2.1-4.3,2.1c-1.5,0-2.6-0.4-3.6-1.2
	C402.8,23.3,402.3,22.2,402.1,20.9z"/>
<path class="st0" d="M431,9.6l-0.6,3c-0.6-0.6-1.5-0.9-2.7-0.9s-2.1,0.4-2.8,1.3c-0.4,0.5-0.7,1.1-0.9,1.8h5.9l-0.3,1.7h-5.8
	c0,0.2,0,0.4,0,0.6c0,0.3,0,0.5,0,0.8h5.5l-0.3,1.7h-5c0.2,0.8,0.5,1.4,0.8,1.8c0.7,0.8,1.6,1.3,2.8,1.3c1.4,0,2.5-0.4,3.3-1.3v3.3
	c-0.9,0.5-2,0.7-3.3,0.7c-2.1,0-3.8-0.7-5.2-2.1c-0.9-1-1.5-2.2-1.8-3.6H419l0.3-1.7h1.1c0-0.2,0-0.4,0-0.5c0-0.3,0-0.6,0-0.9H419
	l0.3-1.7h1.3c0.3-1.4,0.9-2.6,1.8-3.6c1.4-1.4,3.1-2.2,5.3-2.2C429.1,9,430.1,9.2,431,9.6z"/>
<path class="st0" d="M436.2,25.2l3-16.2h1.7l-3,16.3L436.2,25.2L436.2,25.2z"/>
<path class="st0" d="M446.4,13.6h2.1v1.6c0.7-1.2,1.6-1.8,2.7-1.8c0.5,0,1,0.2,1.4,0.5s0.7,0.8,1,1.4c0.4-0.6,0.8-1.1,1.2-1.4
	c0.4-0.3,0.9-0.5,1.4-0.5c0.6,0,1.2,0.2,1.6,0.5s0.8,0.8,1,1.5c0.2,0.5,0.2,1.3,0.2,2.4V25h-2.3v-6.5c0-1.1-0.1-1.9-0.2-2.2
	c-0.2-0.4-0.5-0.6-1-0.6c-0.3,0-0.6,0.1-0.9,0.4s-0.5,0.6-0.6,1.1s-0.2,1.3-0.2,2.4V25h-2.3v-6.3c0-1.1,0-1.8-0.1-2.1
	c-0.1-0.3-0.2-0.6-0.4-0.7c-0.2-0.2-0.4-0.2-0.7-0.2c-0.3,0-0.7,0.1-0.9,0.4c-0.3,0.3-0.5,0.6-0.6,1.1s-0.2,1.3-0.2,2.4V25h-2.3
	L446.4,13.6L446.4,13.6z"/>
<path class="st0" d="M461.3,12V9.2h2.3V12H461.3z M461.3,25V13.6h2.3V25H461.3z"/>
<path class="st0" d="M473.7,25h-2.3v-5.8c0-1.2,0-2-0.1-2.4s-0.3-0.6-0.5-0.8c-0.2-0.2-0.5-0.3-0.8-0.3c-0.4,0-0.7,0.1-1.1,0.4
	c-0.3,0.3-0.5,0.7-0.6,1.1s-0.2,1.3-0.2,2.6V25h-2.3V13.6h2.1v1.7c0.7-1.3,1.7-1.9,2.8-1.9c0.5,0,1,0.1,1.4,0.4
	c0.4,0.2,0.7,0.5,0.9,0.9c0.2,0.4,0.4,0.8,0.4,1.3c0.1,0.5,0.1,1.1,0.1,2v7H473.7z"/>
</svg>
