<?xml version="1.0" encoding="utf-8"?>
<!-- Generator: Adobe Illustrator 22.0.0, SVG Export Plug-In . SVG Version: 6.00 Build 0)  -->
<svg version="1.1" id="Calque_1" xmlns="http://www.w3.org/2000/svg" xmlns:xlink="http://www.w3.org/1999/xlink" x="0px" y="0px"
	 viewBox="0 0 42 42" style="enable-background:new 0 0 42 42;" xml:space="preserve">
<style type="text/css">
	.st0{fill:#FFFFFF;}
</style>
<g>
	<path class="st0" d="M31.1,19.7c0.7,0.3,1.9,0.4,2.8,0.3c-0.5,0.6-1.4,1.1-2.9,1.1c-2,8.2-15.5,11.6-21.7,3.2
		c2.4,2.3,6.5,2.5,9.1-0.2c-1.5,0.2-2.7-1.3-0.8-2.1c-1.7,0.2-2.6-0.7-3-1.5c0.4-0.4,0.8-0.6,1.7-0.7c-1.9-0.4-2.6-1.4-2.8-2.5
		c0.5-0.1,1.2-0.2,1.5-0.2c-1.6-0.9-2.2-2.1-2.1-3.1c2.9,1.1,4.8,2,6.3,2.8c0.6,0.3,1.2,0.8,1.9,1.5c0.9-2.3,2-4.8,3.9-6
		c0,0.3-0.2,0.5-0.4,0.7c0.5-0.5,1.2-0.8,1.9-0.9c-0.1,0.5-0.8,0.8-1.3,1c0.3-0.1,2.2-0.9,2.4-0.5c0.2,0.5-1.3,0.8-1.5,0.9
		c-0.2,0.1-0.4,0.1-0.6,0.2c2.3-0.2,4.6,1.7,5.2,4.1c0,0.2,0.1,0.4,0.1,0.6c0.9,0.3,2.4,0,2.9-0.3C33.4,19,32.5,19.6,31.1,19.7
		 M41,21c0-11-9-20-20-20S1,10,1,21s9,20,20,20S41,32,41,21"/>
</g>
</svg>
